<?xml version="1.0" standalone="no"?>
<!DOCTYPE svg PUBLIC "-//W3C//DTD SVG 1.1//EN" "http://www.w3.org/Graphics/SVG/1.1/DTD/svg11.dtd" >
<svg>
<metadata>
Created by FontForge 20090622 at Fri May  8 06:33:37 2015
 By deploy user
Copyright (c) 2006 Parachute&#194;&#168;, www.parachute.gr.  All rights reserved.
</metadata>
<defs>
<font id="PFAgoraSerifPro-Italic" horiz-adv-x="1818" >
  <font-face 
    font-family="PF Agora Serif Pro"
    font-weight="400"
    font-style="italic"
    font-stretch="normal"
    units-per-em="1000"
    panose-1="2 0 5 3 0 0 0 9 0 4"
    ascent="750"
    descent="-250"
    x-height="483"
    cap-height="687"
    bbox="-280 -265 1760 938"
    underline-thickness="50"
    underline-position="-50"
    slope="-12"
    unicode-range="U+0020-U+FB05"
  />
<missing-glyph horiz-adv-x="440" 
d="M0 686h440v-686h-440v686zM360 643h-280l140 -255zM390 88v510l-140 -255zM360 43l-140 255l-140 -255h280zM50 88l140 255l-140 255v-510z" />
    <glyph glyph-name="fj" unicode="fj" horiz-adv-x="549" 
d="M362 457q11 0 28.5 1t38 3t42.5 5t42 7q2 -1 5 -2l4 -2l4 -2l-28 -218.5t-30 -218.5q-9 -65 -28.5 -113t-46.5 -79.5t-60 -47.5t-70 -16q-27 0 -45.5 5.5t-30.5 14t-17 18.5t-5 19q0 16 12.5 27.5t42.5 18.5q8 -30 31 -45.5t46 -15.5q26 0 44 25t29 67q6 24 12 56
t14.5 87.5t20.5 142l30 220.5h-213l-46 -320q-8 -53 -20 -112.5t-37.5 -109t-68 -82t-110.5 -32.5q-42 0 -67 14.5t-25 38.5q0 13 6.5 25t22.5 23q64 -42 108 -42q22 0 39.5 11.5t29.5 32t20 49t13 62.5l61 442h-97l4 25l101 24q2 19 6.5 47t13.5 58.5t24.5 60.5t40.5 53.5
t61 38.5t86 15q55 0 87 -16t32 -45q0 -16 -7.5 -31t-30.5 -27q-42 26 -72 38.5t-60 12.5t-48 -10.5t-28.5 -29.5t-15.5 -46t-9 -60l-8 -65h122z" />
    <glyph glyph-name="ffj" unicode="ffj" horiz-adv-x="851" 
d="M470 457q2 17 6 45.5t13.5 61t25 65.5t41 60t62 44t87.5 17q54 0 86.5 -16t32.5 -45q0 -16 -7.5 -31t-30.5 -27q-42 26 -72 38.5t-60 12.5q-28 0 -45.5 -10t-28.5 -29t-17 -46t-10 -61l-10 -79h122q11 0 28 1t37.5 3t42.5 5t43 7q2 -1 5 -2l4 -2l4 -2l-58 -419
q-9 -68 -28 -116.5t-45.5 -79.5t-59.5 -45.5t-71 -14.5q-49 0 -73.5 19.5t-24.5 37.5q0 16 12.5 27.5t42.5 18.5q8 -30 31 -45.5t45 -15.5q27 0 45 25.5t29 67.5q6 23 11.5 52t14 80.5t20.5 136l30 218.5h-213l-47 -316q-8 -53 -20 -112.5t-37.5 -109t-68 -82t-111.5 -32.5
q-42 0 -66.5 14.5t-24.5 38.5q0 13 6.5 25t22.5 23q32 -22 58.5 -32t49.5 -10q47 0 69.5 42t32.5 113l62 438h-227l-49 -343q-8 -53 -20 -112t-37.5 -109t-68 -82.5t-110.5 -32.5q-42 0 -67 15t-25 39q0 13 6.5 25t22.5 23q64 -42 108 -42t68.5 43.5t34.5 111.5l63 464h-97
l4 25l101 24l6 38.5t13.5 56t25.5 63t41 58.5t60.5 43t85.5 17q42 0 67 -14.5t25 -38.5q0 -13 -6 -25t-23 -23q-27 17 -54 29.5t-48 12.5q-26 0 -44.5 -12.5t-31.5 -33.5t-21.5 -49t-13.5 -60l-10 -68h228z" />
    <glyph glyph-name="ff" unicode="ff" horiz-adv-x="654" 
d="M679 457l-11 -43h-131l-47 -316q-8 -53 -20 -112.5t-37.5 -109t-68 -82t-110.5 -32.5q-42 0 -67 14.5t-25 38.5q0 13 6.5 25t22.5 23q64 -42 108 -42q47 0 69.5 42t32.5 113l62 438h-226l-50 -343q-8 -53 -20 -112t-37.5 -109t-68 -82.5t-110.5 -32.5q-42 0 -67 15
t-25 39q0 13 6.5 25t23.5 23q32 -22 58 -32t49 -10q45 0 69.5 43.5t33.5 111.5l63 464h-96l4 24l100 25l6 38.5t13 55.5t24.5 62t40.5 58t60.5 42.5t85.5 16.5q42 0 67 -14.5t25 -38.5q0 -13 -6 -25t-23 -23q-26 17 -53.5 29.5t-48.5 12.5q-26 0 -44.5 -12.5t-31 -33.5
t-21 -49t-12.5 -60l-9 -65h227q2 17 6.5 45.5t14.5 60t25.5 64t38.5 58.5t54.5 42.5t73.5 16.5t66.5 -14.5t25.5 -38.5q1 -14 -6 -26t-24 -22q-26 17 -53 29.5t-48 12.5t-35.5 -11.5t-25 -32t-18 -49t-12.5 -62.5l-11 -73h137z" />
    <glyph glyph-name="fi" unicode="fi" horiz-adv-x="562" 
d="M352 457q11 0 29.5 1t40.5 3t45.5 5t44.5 7q2 -1 5 -2l4 -2l4 -2l-23 -117l-22.5 -117.5l-19.5 -104t-13 -77.5q25 2 48 9.5t49 21.5l13 -15q-10 -12 -24.5 -25.5t-31.5 -25t-35 -19t-35 -7.5q-33 0 -45.5 13.5t-12.5 36.5q0 7 1 16.5t3 17.5l29 168l32 172h-204
l-46 -320q-8 -53 -20 -112.5t-37.5 -109t-68 -82t-110.5 -32.5q-42 0 -67 14.5t-25 38.5q0 13 6.5 25t22.5 23q32 -22 58.5 -32t49.5 -10q22 0 39.5 11.5t29.5 32t20 49t13 62.5l61 442h-97l4 25l101 24q3 17 6.5 44.5t12 57.5t23.5 60.5t40 55t61.5 40t88.5 15.5
q55 0 87 -16t32 -45q0 -16 -7.5 -31t-30.5 -27q-42 26 -72 38.5t-60 12.5q-50 0 -71.5 -39.5t-29.5 -106.5l-8 -65h112v0z" />
    <glyph glyph-name="fl" unicode="fl" horiz-adv-x="576" 
d="M400 736q38 0 67 -9l78 15l12 -10l-34.5 -231.5t-36.5 -230.5l-18.5 -111t-17.5 -108q26 2 48 9.5t48 21.5l14 -16q-10 -12 -24.5 -25t-31.5 -24.5t-35.5 -19t-34.5 -7.5q-34 0 -45.5 14t-11.5 37q0 15 3 33l33 199l29 178t27 183q-35 18 -64.5 26t-55.5 8t-43.5 -10.5
t-29 -29.5t-18 -46t-10.5 -60l-8 -65h143l-8 -43h-141l-46 -320q-8 -53 -20 -112.5t-37.5 -109t-68 -82t-110.5 -32.5q-42 0 -67 14.5t-25 38.5q0 13 6.5 25t22.5 23q32 -22 58.5 -32t49.5 -10q22 0 39.5 11.5t29.5 32t20 49t13 62.5l61 442h-97l4 25l101 24q3 18 6.5 45
t12 57t23.5 60t40 54.5t61.5 40t88.5 16.5z" />
    <glyph glyph-name="ffi" unicode="ffi" horiz-adv-x="864" 
d="M170 463l6 38.5t13.5 56t25.5 63t41 58.5t60.5 43t85.5 17q42 0 67 -14.5t25 -38.5q0 -13 -6 -25t-23 -23q-27 17 -54 29.5t-48 12.5q-26 0 -44.5 -12.5t-31.5 -33.5t-21.5 -49t-13.5 -60l-10 -68h228q2 17 6 45.5t13.5 61t25 65.5t41 60t62 44t87.5 17q54 0 86.5 -16
t32.5 -45q0 -16 -8 -31t-31 -27q-42 26 -71.5 38.5t-59.5 12.5q-25 0 -42 -10t-29 -29t-19 -46t-11 -61l-10 -79h112q11 0 29.5 1t40.5 3t45.5 5t44.5 7q2 -1 5 -2l4 -2l4 -2l-23 -117l-23 -117.5l-19.5 -104t-12.5 -77.5q24 2 47.5 9.5t49.5 21.5l13 -15
q-10 -12 -24.5 -25.5t-31.5 -25t-35.5 -19t-34.5 -7.5q-33 0 -45.5 13.5t-12.5 36.5q0 7 1 16.5t3 17.5l29 168l32 172h-204l-46 -320q-8 -53 -20 -112.5t-37.5 -109t-68.5 -82t-111 -32.5q-42 0 -66.5 14.5t-24.5 38.5q0 13 6.5 25t22.5 23q32 -22 58.5 -32t49.5 -10
q22 0 39.5 11.5t29.5 32t20 49t13 62.5l61 442h-227l-49 -343q-8 -53 -20 -112t-37.5 -109t-68 -82.5t-110.5 -32.5q-42 0 -67 15t-25 39q0 13 6.5 25t22.5 23q64 -42 108 -42t68.5 43.5t33.5 111.5l64 464h-97l4 25z" />
    <glyph glyph-name="ffl" unicode="ffl" horiz-adv-x="864" 
d="M461 414h-225l-49 -343q-8 -53 -20 -112t-37.5 -109t-68 -82.5t-110.5 -32.5q-42 0 -67 15t-25 39q0 13 6.5 25t22.5 23q64 -42 108 -42t68.5 43.5t33.5 111.5l64 464h-97l4 25l101 24q2 13 6.5 38.5t14.5 56t26 63t41 58.5t60.5 43t83.5 17q42 0 67 -14.5t25 -38.5
q0 -13 -6 -25t-23 -23q-27 17 -54 29.5t-48 12.5q-26 0 -44.5 -12.5t-31.5 -33.5t-21.5 -49t-13.5 -60l-10 -68h228q2 16 6 44t13 60.5t25 66t41.5 60.5t62 44.5t88.5 17.5q38 0 67 -9l78 15l12 -10q-14 -107 -33 -222.5l-39 -231.5q-11 -63 -20.5 -123.5l-18.5 -117.5
q25 2 47.5 9.5t48.5 21.5l14 -16q-10 -12 -24.5 -25t-32 -24.5t-35.5 -19t-34 -7.5q-34 0 -45.5 14t-11.5 37q0 15 3 33q8 51 18 108.5t18 108.5l30 177t27 180q-35 18 -64.5 26t-55.5 8q-27 0 -44 -10.5t-28 -29.5t-17.5 -46t-11.5 -60l-12 -79h143l-8 -43h-141l-46 -320
q-8 -53 -20 -112.5t-37.5 -109t-68.5 -82t-111 -32.5q-42 0 -66.5 14.5t-24.5 38.5q0 13 6.5 25t22.5 23q32 -22 58.5 -32t49.5 -10q22 0 39.5 11.5t29.5 32t20 49t13 62.5z" />
    <glyph glyph-name="ft" unicode="ft" horiz-adv-x="629" 
d="M515 599h38l-25 -136h110l-9 -43h-107l-33.5 -186.5t-27.5 -186.5q38 0 73 13.5t63 30.5q4 -6 7.5 -10l7.5 -9q-32 -33 -77.5 -58.5t-93.5 -25.5q-34 0 -47 15t-13 41q0 14 3 32q7 47 14.5 90t15.5 84.5l16 83l16 86.5h-212l-23 -163l-23 -163q-8 -53 -21 -112
t-38.5 -109t-68 -82.5t-109.5 -32.5q-42 0 -66 14.5t-25 38.5q-2 29 29 48q32 -22 58.5 -32t49.5 -10q46 0 69 42t33 113l60 448h-96l4 26l101 23q2 13 5.5 38t11.5 54.5t22 60.5t37 56.5t55.5 41.5t78.5 16q42 0 66 -14.5t25 -38.5q1 -14 -5.5 -26t-23.5 -22
q-26 17 -53 29.5t-48 12.5q-23 0 -38 -11.5t-25.5 -32.5t-17 -49.5t-10.5 -61.5l-8 -59h215z" />
    <glyph glyph-name=".notdef" horiz-adv-x="440" 
d="M0 686h440v-686h-440v686zM360 643h-280l140 -255zM390 88v510l-140 -255zM360 43l-140 255l-140 -255h280zM50 88l140 255l-140 255v-510z" />
    <glyph glyph-name="exclam" unicode="!" horiz-adv-x="258" 
d="M138 181l21 466q0 9 3 20t9.5 20t17 15.5t26.5 6.5q25 0 34.5 -14t9.5 -31v-10t-1 -8l-46 -232.5l-46 -232.5h-28zM141 98q20 0 32.5 -13.5t12.5 -33.5q0 -26 -18 -44t-41 -18q-19 0 -32 13.5t-13 33.5q0 25 18 43.5t41 18.5z" />
    <glyph glyph-name="quotedbl" unicode="&#x22;" horiz-adv-x="244" 
d="M132 456h-24q0 48 0.5 95t0.5 95q1 12 12 23.5t29 11.5q17 0 26.5 -11t4.5 -27zM241 456h-22l1 190q0 12 10.5 23.5t28.5 11.5q17 0 27.5 -11t5.5 -27z" />
    <glyph glyph-name="numbersign" unicode="#" horiz-adv-x="483" 
d="M216 455l55 169h42l-55 -169h141l55 169h43l-55 -169h67l-13 -43h-68l-60 -183h72q-4 -11 -6.5 -20.5t-6.5 -20.5h-74l-30 -94l-30 -94h-42l60 188h-141l-30 -94l-30 -94h-42l60 188h-66l14 41h66l60 183h-70l13 43h71zM185 229h140l61 183h-141z" />
    <glyph glyph-name="quotesingle" unicode="'" horiz-adv-x="173" 
d="M151 456h-23q0 48 0.5 95t0.5 95q1 12 11.5 23.5t28.5 11.5q17 0 26.5 -11t4.5 -27z" />
    <glyph glyph-name="parenleft" unicode="(" horiz-adv-x="298" 
d="M366 702q-63 -61 -103.5 -129.5t-64 -140.5t-32 -146t-8.5 -145q0 -99 26 -182t68 -148l-18 -17q-78 80 -113 181t-35 204q0 79 18.5 156t53 146.5t83.5 130.5t110 109z" />
    <glyph glyph-name="parenright" unicode=")" horiz-adv-x="298" 
d="M-5 -185q63 61 103.5 129.5t64 140.5t32 146t8.5 145q0 99 -26 182t-68 148l18 17q78 -80 113 -181t35 -204q0 -79 -18.5 -156t-53 -146.5t-83.5 -130.5t-110 -109z" />
    <glyph glyph-name="asterisk" unicode="*" horiz-adv-x="426" 
d="M271 537l-23 151q11 2 24.5 4t25.5 2q23 0 46 -6l-59 -152l69 44l70 45q22 -45 17 -99l-152 -11l53.5 -47.5l54.5 -47.5q-19 -20 -41.5 -36t-45.5 -25l-37 147l-36.5 -73.5l-36.5 -73.5q-20 9 -39.5 25t-30.5 35l131 96l-148 11q7 52 41 99z" />
    <glyph glyph-name="plus" unicode="+" horiz-adv-x="532" 
d="M313 248l-24 -196h-52l24 196h-185l7 53h185l24 195h52l-24 -195h183l-7 -53h-183z" />
    <glyph glyph-name="comma" unicode="," horiz-adv-x="211" 
d="M118 98q22 0 35 -14.5t13 -39.5q0 -23 -9.5 -48t-26 -48.5t-39 -43.5t-48.5 -33q-4 5 -7 10l-6 10q24 23 39 44.5t22 56.5q-15 5 -23 16.5t-8 27.5q0 25 17.5 43.5t40.5 18.5z" />
    <glyph glyph-name="hyphen" unicode="-" horiz-adv-x="321" 
d="M308 284q-2 -17 -4 -31.5t-4 -31.5h-224q2 17 4 31.5t4 31.5h224z" />
    <glyph glyph-name="period" unicode="." horiz-adv-x="201" 
d="M113 98q20 0 32.5 -13.5t12.5 -33.5q0 -26 -18 -44t-41 -18q-20 0 -32 13t-12 33q0 26 17.5 44.5t40.5 18.5z" />
    <glyph glyph-name="slash" unicode="/" horiz-adv-x="299" 
d="M34 -42h-36l350 763h36z" />
    <glyph glyph-name="zero" unicode="0" horiz-adv-x="532" 
d="M346 704q56 0 92.5 -21.5t57.5 -57t29.5 -81t8.5 -93.5q0 -35 -5 -83.5t-17.5 -100.5t-33.5 -102.5t-53 -90.5t-76 -65t-102 -25q-56 0 -92.5 22t-57.5 59t-29.5 83.5t-8.5 96.5q0 40 5.5 89.5t18 100.5t34 99.5t53.5 86t75.5 60.5t100.5 23zM330 655q-45 0 -77 -24
t-54 -62.5t-34.5 -86t-19 -95.5t-8.5 -91.5t-2 -72.5q0 -39 5.5 -73.5t19.5 -61t39 -42t63 -15.5q42 0 73 21.5t53 56.5t36 80t22 92.5t11 93.5t3 84q0 39 -5.5 74.5t-20 62.5t-40 43t-64.5 16z" />
    <glyph glyph-name="one" unicode="1" horiz-adv-x="532" 
d="M432 0q-22 0 -40 0.5l-36 1t-38 1t-45 0.5q-24 0 -43.5 -0.5l-38 -1l-36.5 -1t-39 -0.5l4 34l70 17q21 5 33 12.5t19 17.5t10 22.5t5 27.5l51 432q1 14 1 25.5t-4.5 19.5t-15 13.5t-29.5 7.5l-82 9l5 34l202 26l12 -20l-35.5 -281.5l-35.5 -281.5q-4 -34 6.5 -46
t41.5 -19l62 -14z" />
    <glyph glyph-name="two" unicode="2" horiz-adv-x="532" 
d="M317 705q28 0 61 -7.5t61.5 -26.5t48 -52t19.5 -84q0 -66 -31.5 -131t-83 -126.5t-117.5 -117.5t-134 -104q56 0 112.5 1t108.5 3q18 0 31 3t23.5 10t20 19t20.5 31l33 58l28 -8l-43 -166l-8 -8q-27 0 -57.5 0.5l-62 1l-62 1t-56.5 0.5h-32.5h-28t-41.5 -0.5t-73 -1.5
l-7 43q189 140 284 257t95 218q0 69 -39 101.5t-97 32.5q-32 0 -77.5 -14t-97.5 -49q-5 8 -10.5 13.5t-10.5 13.5q52 43 107.5 66t115.5 23z" />
    <glyph glyph-name="three" unicode="3" horiz-adv-x="532" 
d="M350 402q31 -4 59.5 -18.5t50 -38t34 -53t12.5 -63.5q0 -50 -21 -94.5t-61 -78.5t-96.5 -54t-127.5 -20q-42 0 -68.5 7t-42 17t-21.5 22t-6 23q0 16 11.5 36t43.5 27q26 -80 123 -80q40 0 74.5 13.5t60 38t40.5 59t15 76.5q0 61 -41 95t-116 34q-14 0 -28 -1.5t-28 -3.5
l-15 39q37 11 77 30.5t74 44t56 54.5t22 62t-22.5 53t-76.5 21q-25 0 -52.5 -6t-54.5 -16.5t-52 -25t-46 -30.5l-24 26q25 24 54.5 43.5t61.5 34t65.5 22.5t66.5 8q31 0 59.5 -6t50.5 -19t35.5 -33.5t13.5 -50.5q0 -28 -13 -55t-35 -51.5t-51 -45.5t-60 -36z" />
    <glyph glyph-name="four" unicode="4" horiz-adv-x="532" 
d="M412 111q-2 -18 -0.5 -29t7 -18t15.5 -11t25 -7l44 -10l-4 -36q-20 0 -36 0.5l-32.5 1l-34.5 1t-42 0.5q-34 0 -63.5 -0.5t-60.5 -1.5l2 35l39 9q38 9 50.5 30t16.5 50l8 74h-280l-23 31l184.5 229l185.5 229l53 16l15 -12l-54 -446h110l-6 -47h-109zM394 590
l-67.5 -84.5l-62.5 -82.5l-65.5 -86.5l-68.5 -90.5h222l46 344h-4z" />
    <glyph glyph-name="five" unicode="5" horiz-adv-x="532" 
d="M215 34q41 0 77.5 15.5t64 43t43.5 65.5t16 83q0 39 -14 64.5t-36.5 40.5t-51 21t-56.5 6q-31 0 -57 -5.5t-51 -13.5l-27 22l54 286l2 1q1 1 2.5 1.5t3.5 2.5q4 2 7 5h87t58 0.5t38.5 0.5h28.5q17 0 28 2t18.5 5.5t13 10t11.5 15.5l12 17l29 -5l-22 -113l-8 -7l-259 10
l-51 -202q33 14 60.5 21t56.5 7q44 0 81 -11t63.5 -33t41.5 -54.5t15 -75.5q0 -60 -22.5 -111t-64 -88.5t-99.5 -58.5t-129 -21q-45 0 -72.5 7t-43 17.5t-20.5 22.5t-5 23q0 15 12.5 35t46.5 28q11 -38 40.5 -59t77.5 -21z" />
    <glyph glyph-name="six" unicode="6" horiz-adv-x="532" 
d="M92 197q0 92 22 181t64 159.5t103 114t140 43.5q21 0 48.5 -4.5t54.5 -13.5l-10 -36q-29 7 -61 7q-70 0 -123.5 -36t-90 -96.5t-55 -141t-18.5 -168.5q0 -78 29.5 -124.5t96.5 -46.5q42 0 72.5 19.5t50 51.5t29 72.5t9.5 82.5q0 43 -10 71t-29 44.5t-47 22.5t-63 6l3 36
q12 2 23.5 3t24.5 1q36 0 68 -11t55.5 -33.5t37 -56t13.5 -78.5q0 -42 -12.5 -91t-41 -92t-75 -71.5t-114.5 -28.5q-56 0 -93 18t-59 48t-31.5 68.5t-10.5 79.5z" />
    <glyph glyph-name="seven" unicode="7" horiz-adv-x="532" 
d="M108 -9l66 106l66 105l128.5 204.5l127.5 214.5l-204 -7q-23 -1 -38.5 -3.5t-27.5 -8.5t-22 -17.5t-22 -30.5l-29 -48l-27 8l43 167l9 8q54 0 104 -1t98 -1q44 0 84.5 0.5t87.5 1.5l17 -34l-92.5 -165.5l-91.5 -165.5l-185 -334l-85 -10z" />
    <glyph glyph-name="eight" unicode="8" horiz-adv-x="532" 
d="M223 542q-1 -5 -1 -9.5v-9.5q0 -27 12 -49.5t32 -41.5t46 -35t54 -31q32 21 53.5 45.5t34 49t18 47.5t5.5 41q0 21 -6.5 40.5t-20.5 34t-36.5 23t-54.5 8.5q-31 0 -54.5 -9t-40.5 -25t-27.5 -36.5t-13.5 -42.5zM280 38q35 0 65 11t52.5 31.5t35 48.5t12.5 61q0 27 -12 49
t-33.5 41.5t-53 37.5t-70.5 37q-38 -22 -62 -48t-38.5 -52.5t-20 -52.5t-5.5 -47q0 -57 34 -87t96 -30zM546 527q-2 -19 -9.5 -41t-23.5 -45t-41.5 -46.5t-63.5 -44.5q49 -29 79 -68t30 -97q0 -44 -17.5 -80.5t-50 -63t-78 -41t-101.5 -14.5q-51 0 -88 13t-61 35t-36 52
t-12 65q0 31 9 62.5t29 61t52 54.5t78 42q-42 28 -70 65.5t-28 82.5q0 44 18.5 78.5t50 58t72.5 36t85 12.5q31 0 63 -8.5t58 -26.5t42 -47t16 -69q0 -7 -0.5 -13t-1.5 -13z" />
    <glyph glyph-name="nine" unicode="9" horiz-adv-x="532" 
d="M336 705q58 0 95 -19t58.5 -50t30 -70.5t8.5 -81.5q0 -92 -15.5 -182t-49.5 -160.5t-89 -114t-133 -43.5q-25 0 -52.5 3.5t-49.5 11.5l12 35q28 -7 57 -7q72 0 119 36t75.5 97t40 140t13.5 165q0 42 -6 77t-20.5 59.5t-38.5 38t-61 13.5q-41 0 -71 -19t-50 -50
t-29.5 -70.5t-10.5 -80.5q0 -45 10 -73.5t29.5 -45.5t46.5 -24t62 -8q-1 -11 -2 -17.5t-2 -17.5q-12 -2 -22.5 -3t-23.5 -1q-37 0 -69 11.5t-55 34.5t-36.5 57.5t-13.5 80.5q0 42 13 90.5t42 90t75.5 69.5t112.5 28z" />
    <glyph glyph-name="colon" unicode=":" horiz-adv-x="201" 
d="M152 419q20 0 32.5 -13t12.5 -33q0 -26 -18 -44t-41 -18q-20 0 -32 14t-12 34q0 25 17.5 42.5t40.5 17.5zM113 98q20 0 32.5 -13.5t12.5 -33.5q0 -26 -18 -44t-41 -18q-20 0 -32 13t-12 33q0 26 17.5 44.5t40.5 18.5z" />
    <glyph glyph-name="semicolon" unicode=";" horiz-adv-x="201" 
d="M108 98q21 0 34.5 -14.5t13.5 -40.5q0 -22 -9.5 -47t-26.5 -48.5t-39.5 -43.5t-47.5 -33l-15 19q25 23 40 45t23 57q-15 5 -23 16.5t-8 27.5q0 25 17.5 43.5t40.5 18.5zM152 419q20 0 33 -13t13 -33q0 -26 -18.5 -44t-41.5 -18q-20 0 -32 14t-12 34q0 25 17.5 42.5
t40.5 17.5z" />
    <glyph glyph-name="less" unicode="&#x3c;" horiz-adv-x="532" 
d="M117 251l6 45l383 193q-2 -16 -4 -29.5t-4 -29.5l-312 -157l137 -78l137 -78l-4 -30l-4 -30z" />
    <glyph glyph-name="equal" unicode="=" horiz-adv-x="532" 
d="M120 331l7 53h371l-7 -53h-371zM102 183l7 52h371l-7 -52h-371z" />
    <glyph glyph-name="greater" unicode="&#x3e;" horiz-adv-x="532" 
d="M93 57l8 60l311 156l-136.5 77.5l-136.5 78.5l8 60l335 -193l-6 -44z" />
    <glyph glyph-name="question" unicode="?" horiz-adv-x="426" 
d="M242 181q-38 20 -61 53t-23 70q0 21 12 43.5t31 45t42.5 45l46.5 43.5l37 34t32.5 32.5t23 30t8.5 26.5q0 25 -20 41.5t-52 16.5t-72.5 -21t-84.5 -69q-14 8 -25 21.5t-11 33.5q0 43 44.5 65.5t122.5 22.5q83 0 129.5 -28.5t46.5 -83.5q0 -21 -10.5 -41.5t-28 -40
t-39.5 -39l-45 -38.5l-44 -38t-37.5 -38t-26.5 -38t-10 -39q0 -18 11.5 -43.5t25.5 -41.5zM213 98q20 0 33 -13.5t13 -33.5q0 -26 -18.5 -44t-42.5 -18q-19 0 -31.5 13.5t-12.5 33.5q0 25 18 43.5t41 18.5z" />
    <glyph glyph-name="at" unicode="@" horiz-adv-x="930" 
d="M613 88q-24 0 -36 9t-12 41q0 10 1 27t2.5 36.5t4 40.5t4.5 41l-7 2q-53 -97 -101.5 -140.5t-89.5 -43.5q-29 0 -49.5 30.5t-20.5 102.5q0 46 18 98t46 96t63 72.5t69 28.5q24 0 51.5 -1t62.5 -9q8 14 13.5 18.5t12.5 4.5q4 0 12 -1t15.5 -3.5t13 -6.5t5.5 -10
q0 -2 -2 -6q-11 -39 -21 -89t-17.5 -102t-12 -101.5t-4.5 -87.5q34 5 69.5 24t64 52.5t46.5 83t18 114.5q0 50 -20.5 93.5t-57 76t-86.5 51t-109 18.5q-64 0 -131.5 -25t-122.5 -76.5t-90.5 -130.5t-35.5 -187q0 -66 21.5 -118.5t62 -89t98 -56t129.5 -19.5q63 0 106 11
t65 22l12 -27q-18 -10 -41 -18.5t-49.5 -15t-54 -10.5t-53.5 -4q-77 0 -142 21.5t-112.5 63.5t-74 103.5t-26.5 141.5q0 97 35.5 181t96.5 145t142 96t172 35q73 0 132 -23t100.5 -61.5t64 -90t22.5 -108.5q0 -83 -30 -143.5t-73 -99.5t-89.5 -58t-79.5 -19zM511 484
q-32 0 -56 -21t-40.5 -54t-25 -72.5t-8.5 -76.5q0 -45 10 -65.5t28 -20.5t42 21.5t48.5 53t46.5 68.5t35 67q3 15 6 33t5 34q-19 18 -46.5 25.5t-44.5 7.5z" />
    <glyph glyph-name="A" unicode="A" horiz-adv-x="658" 
d="M446 701l66 -293.5l67 -293.5q7 -29 17.5 -47.5t36.5 -24.5l21 -5l-4 -37h-234l5 34l45 13q5 1 12 4.5t12.5 10t8.5 16.5t0 24l-26 116h-252l-44 -100q-5 -11 -7.5 -20t-2.5 -17q0 -17 12 -24.5t33 -12.5l35 -8l-5 -36h-231l4 37l32 8q23 6 39 22t30 46l239 491
q11 22 21 44.5l20 45.5l48 9zM308 406l-67 -146h223l-31 145l-39 184h-4z" />
    <glyph glyph-name="B" unicode="B" horiz-adv-x="640" 
d="M429 689q53 0 88 -12.5t56 -32.5t29.5 -44.5t8.5 -48.5q0 -33 -13.5 -60.5t-34 -48t-45 -34t-46.5 -17.5v-4q72 -14 106 -57.5t34 -109.5q0 -47 -17.5 -87t-51 -69.5t-82 -46.5t-109.5 -17q-42 0 -90 1.5t-86 1.5h-63.5t-66.5 -2q0 8 0.5 15.5t0.5 15.5l42 13
q17 5 27 11.5t15.5 14t7.5 16.5t3 20l61 483q5 22 -3 37t-29 18l-37 12l7 32q11 0 28.5 -0.5l36 -1l36.5 -1t30 -0.5q38 0 78.5 2t78.5 1zM334 404q73 4 113.5 24.5t59.5 44.5t22.5 43.5t3.5 21.5q0 53 -39 77t-108 24q-6 0 -18.5 -0.5t-27.5 -1t-30.5 -2t-25.5 -3.5
l-32 -259l-33 -259q-3 -20 1.5 -32t18 -19t37.5 -9.5t60 -2.5q49 0 86.5 12t62.5 33.5t38 51t13 64.5q0 32 -10 58.5t-34 45.5t-63.5 30t-97.5 12l-3 40z" />
    <glyph glyph-name="C" unicode="C" horiz-adv-x="611" 
d="M450 705q16 0 39 -2.5t47.5 -9.5t49 -19t44.5 -31q-8 -38 -15 -75l-14 -75l-32 -1l-3 69q-2 28 -12 46.5t-25.5 29t-36 14.5t-42.5 4q-77 0 -129.5 -34.5t-85.5 -89.5t-47.5 -123t-14.5 -135q0 -37 8 -78t29 -76t58.5 -58t96.5 -23q47 0 91.5 5.5t93.5 22.5l12 -36
q-57 -26 -113 -36t-103 -10q-66 0 -113.5 21t-79 59t-46.5 92.5t-15 121.5q0 79 20.5 155.5t64 137t111.5 97.5t162 37z" />
    <glyph glyph-name="D" unicode="D" horiz-adv-x="689" 
d="M196 3h-39.5h-30t-30.5 -0.5t-41 -1.5v29l51 17q26 9 33.5 22.5t9.5 33.5l61 491q2 22 -3.5 31t-28.5 17l-40 13l10 32q18 0 30 -0.5l23 -1t23.5 -0.5h31.5q22 0 41 0.5t36.5 1.5t36 1.5t39.5 0.5q81 0 135.5 -23.5t87.5 -62.5t46.5 -89.5t13.5 -105.5q0 -32 -5.5 -74.5
t-20 -88t-40 -89.5t-65.5 -78.5t-96 -56t-132 -21.5q-5 0 -25.5 0.5t-44 1t-43.5 1t-24 0.5zM226 118q-3 -23 0.5 -36t15.5 -20.5t33 -9.5t53 -2q77 0 131.5 31t89 81.5t50 114t15.5 128.5q0 69 -18.5 114t-51 71.5t-77 37t-96.5 10.5q-22 0 -44.5 -1t-36.5 -3z" />
    <glyph glyph-name="E" unicode="E" horiz-adv-x="596" 
d="M583 195l-46 -187l-9 -8q-35 0 -61.5 0.5l-52.5 1l-54.5 1t-67.5 0.5h-55.5t-63.5 -0.5l-65.5 -1t-60.5 -1.5v31l48 14q17 5 30 17t16 38l30 243l30 244q3 23 -0.5 35t-29.5 21l-38 13l7 32q24 -1 58 -1.5t69 -0.5h66h50q46 0 76.5 0.5t64.5 1.5l68 2q2 -2 4 -2.5t4 -2.5
q-4 -47 -8.5 -92.5l-9.5 -92.5l-33 -5l-12 91q-2 23 -14 34.5t-43 11.5q-29 0 -73.5 1t-123.5 1l-30 -252l129.5 4l129.5 4l-8 -62l-257 8l-29 -229q-4 -35 7.5 -43.5t40.5 -8.5q16 0 37 0.5l42.5 1l43 1t38.5 0.5q16 0 27 3t19 9t15.5 16t15.5 25l50 91z" />
    <glyph glyph-name="F" unicode="F" horiz-adv-x="589" 
d="M219 111q-3 -29 3.5 -41.5t32.5 -19.5l46 -12l-5 -38h-253l5 33l45 14q27 8 36 21t13 39l29 240l30 240q3 23 -0.5 35t-29.5 21l-38 13l7 32q24 -1 58 -1.5t69 -0.5h66h50q33 0 59 0.5t49 1l47 1t54 1.5q2 -2 4 -2.5t4 -2.5q-4 -47 -8.5 -92.5l-9.5 -92.5
q-10 -1 -18 -2.5t-18 -2.5l-12 91q-3 23 -14.5 34.5t-42.5 11.5q-14 0 -31.5 0.5t-40.5 0.5t-53 0.5t-69 0.5l-32 -262l129.5 4l129.5 4l-8 -62l-257 8z" />
    <glyph glyph-name="G" unicode="G" horiz-adv-x="666" 
d="M587 493l-3 68q-1 28 -12 46.5t-28 29t-38.5 14.5t-43.5 4q-81 0 -136 -37.5t-88.5 -95t-48 -127t-14.5 -132.5q0 -44 9 -84t31 -70.5t59 -49t93 -18.5q28 0 62.5 4.5t69.5 23.5l17 155q3 29 -3 43.5t-32 23.5l-42 14l4 30h206v-35l-20 -7q-17 -6 -24.5 -20t-9.5 -37
l-20 -191q-66 -33 -122.5 -47t-104.5 -14q-64 0 -111.5 20t-79 57t-47.5 89.5t-16 117.5q0 78 21.5 156t66.5 140.5t114.5 101.5t165.5 39q16 0 40 -2.5t49.5 -9.5t51 -19t45.5 -31q-7 -38 -14.5 -74t-14.5 -74z" />
    <glyph glyph-name="H" unicode="H" horiz-adv-x="726" 
d="M772 687l-5 -35l-39 -10q-36 -9 -46.5 -22.5t-13.5 -37.5l-60 -480q-3 -27 5.5 -38t33.5 -17l45 -11l-4 -36h-253l4 31l41 13q14 4 23 9t15 12t9.5 16.5t5.5 23.5l28 230h-322l-28 -233q-2 -24 7.5 -36t32.5 -19l43 -12l-4 -35h-252l4 31l41 13q13 4 22 9t15 12t9.5 16.5
t5.5 23.5l30.5 241l29.5 241q2 26 -7 37t-29 18l-41 14l4 31h253l-5 -35l-39 -10q-37 -9 -47.5 -22.5t-13.5 -37.5l-25 -202h322l25 207q2 25 -7.5 36.5t-28.5 18.5l-40 14l4 31h252z" />
    <glyph glyph-name="I" unicode="I" horiz-adv-x="369" 
d="M395 687l-5 -35l-39 -10q-18 -5 -29.5 -10.5t-18 -12.5t-9.5 -16t-4 -21l-59 -482q-2 -25 6.5 -37t32.5 -18l45 -11l-5 -34h-252l4 31l41 13q14 4 23 9t15 12t9.5 16.5t5.5 23.5l59 482q4 28 -4 37.5t-32 17.5l-41 14l5 31h252z" />
    <glyph glyph-name="L" unicode="L" horiz-adv-x="587" 
d="M211 587q1 16 -2 25.5t-8.5 15.5t-12.5 9t-13 5l-40 14l4 31h252l-5 -35l-39 -10q-36 -9 -46.5 -22.5t-13.5 -37.5l-59 -476q-4 -35 7.5 -43.5t40.5 -8.5q16 0 38.5 0.5l46.5 1l47.5 1t41.5 0.5q16 0 27 3t19 9t15.5 16t15.5 25l50 92q7 -2 13.5 -3.5t13.5 -3.5
l-24 -93.5l-23 -93.5l-9 -8q-20 0 -46 0.5t-42 0.5q-35 1 -71.5 1.5t-86.5 0.5h-55.5t-63.5 -0.5l-65.5 -1t-60.5 -1.5v31l48 14q17 5 30 17t16 38z" />
    <glyph glyph-name="M" unicode="M" horiz-adv-x="948" 
d="M288 574l-9 -1l-18.5 -112.5l-20 -117.5l-20.5 -117.5l-19 -112.5q-5 -31 2 -44.5t42 -21.5l44 -11l-4 -36h-263l4 35l50 12q15 3 25 7t16.5 11.5t11.5 20.5t9 34l94 464q5 26 -4.5 38.5t-36.5 21.5q-11 3 -20 7t-20 7l7 32q29 -1 52.5 -1.5t48.5 -0.5h36.5t50.5 2
q2 -15 4.5 -28.5t5.5 -27.5q16 -65 36.5 -137.5l38.5 -137.5l56 -207h10l54.5 110.5l55.5 110.5l80.5 158.5l81.5 158.5q17 -1 33 -1h34h54t68 1l-3 -34l-47 -14q-33 -9 -42.5 -23.5t-11.5 -45.5l-26 -455q-2 -29 5.5 -45t34.5 -25l44 -14l-4 -34h-258l4 31l41 13
q29 9 39 23.5t12 45.5l37 480h-7l-143.5 -281.5l-144.5 -281.5h-47z" />
    <glyph glyph-name="N" unicode="N" horiz-adv-x="789" 
d="M616 147l23 211l12 102.5t11 102.5q4 40 -7 55t-37 23q-9 2 -18.5 5.5t-18.5 5.5l4 35h248l-5 -36l-41 -9q-15 -4 -26 -9t-18.5 -14t-12.5 -23.5t-8 -36.5l-33 -236.5l-33 -237.5l-12 -86l-37 -12l-105.5 183l-105.5 183l-130 229l-7 -1q-13 -112 -25.5 -231t-25.5 -231
q-4 -39 7.5 -53.5t37.5 -19.5l44 -10l-4 -36h-260l4 33l51 13q24 7 38.5 20.5t19.5 51.5l64 452q4 29 -3 46.5t-35 26.5l-46 14l7 32q23 -1 45.5 -1h43.5h51t39 1q6 -17 13.5 -32.5t13.5 -26.5l92 -162.5l92 -161.5z" />
    <glyph glyph-name="O" unicode="O" horiz-adv-x="695" 
d="M458 703q52 0 93 -19t70 -53.5t45 -82.5t17 -105q0 -100 -24.5 -184t-71 -145t-113.5 -95.5t-151 -34.5q-50 0 -91.5 19t-72 54t-48 84.5t-18.5 109.5q0 104 28 187.5t77 142.5t116 90.5t144 31.5zM424 655q-51 0 -95.5 -31t-78 -82.5t-53 -117.5t-19.5 -135
q0 -120 43 -188.5t139 -68.5q59 0 104 35t76 90t46.5 122.5t15.5 132.5q0 51 -10.5 95.5t-32 77t-55.5 51.5t-80 19z" />
    <glyph glyph-name="P" unicode="P" horiz-adv-x="608" 
d="M210 586q3 22 -2 36.5t-30 22.5l-36 11l7 33q17 0 27 -0.5l20 -1t23 -0.5h36q42 0 88 1.5t88 1.5q45 0 82 -9.5t62.5 -30t39.5 -53t14 -77.5q0 -49 -18 -92t-52 -75t-84.5 -50.5t-114.5 -18.5q-17 0 -46 1.5t-65 9.5l-23 -193q-2 -26 6 -37t34 -18l44 -11l-4 -36h-254
l4 31l42 13q28 9 38.5 21.5t13.5 39.5zM377 640q-22 0 -44 -2t-42 -7l-34 -287q22 -5 46 -6.5t35 -1.5q65 0 106 16t64.5 41.5t32 56.5t8.5 60q0 71 -45.5 100.5t-126.5 29.5z" />
    <glyph glyph-name="R" unicode="R" horiz-adv-x="640" 
d="M371 304q-17 0 -50 1.5t-69 9.5l-26 -213q-3 -26 6.5 -37t33.5 -18l44 -11l-4 -36h-254l4 31l42 13q28 9 38.5 21.5t13.5 39.5l60 481q3 21 -1.5 36t-30.5 23l-36 11l7 33q17 0 27 -0.5l20 -1t23 -0.5h36q42 0 88 1.5t88 1.5q44 0 80.5 -9t63 -28.5t41.5 -50.5t15 -76
q0 -29 -10.5 -62t-33 -63.5t-59 -55t-87.5 -34.5l49.5 -111l49.5 -110q11 -26 28 -43.5t44 -29.5l-4 -35q-10 -3 -19 -3.5t-17 -0.5q-29 0 -54.5 15.5t-43.5 53.5zM377 640q-22 0 -44 -2t-42 -7l-32 -267q23 -5 46.5 -6.5t34.5 -1.5q66 0 107 15.5t64 39.5t31 53t8 55
q0 67 -46 94t-127 27z" />
    <glyph glyph-name="S" unicode="S" horiz-adv-x="571" 
d="M351 704q18 0 42.5 -2t51.5 -7t54.5 -13.5t51.5 -21.5l-20 -170l-31 -5l-11 50q-11 52 -47.5 83t-107.5 31q-26 0 -49.5 -7t-41.5 -21t-28.5 -34.5t-10.5 -47.5q0 -24 13 -42.5t33.5 -34.5t45.5 -28.5l48 -24.5q42 -21 77 -41.5t60.5 -44.5t40 -53.5t14.5 -68.5
q0 -47 -18.5 -86.5t-53.5 -68t-85 -45t-113 -16.5q-60 0 -114 14t-93 37l10 185l29 7l19 -76q9 -37 24 -60t36 -36t48 -17.5t61 -4.5q36 0 67 12t54 32t36 47.5t13 58.5q0 28 -11.5 50t-31.5 40.5t-48.5 35t-61.5 33.5q-38 19 -70.5 37.5t-57.5 40.5t-39 48t-14 61
q0 34 12.5 65.5t40 55.5t71 38.5t105.5 14.5z" />
    <glyph glyph-name="T" unicode="T" horiz-adv-x="624" 
d="M347 633h-117q-32 0 -48 -15.5t-32 -58.5l-25 -64l-34 5l27 184l11 6q34 -1 64.5 -2t61 -1.5t63.5 -0.5h74q71 0 133 1t131 3q2 -2 4 -2.5t4 -2.5q-4 -47 -8.5 -92.5t-8.5 -92.5l-37 -5l-9 66q-3 22 -7.5 36.5t-12 22t-18.5 10.5t-28 3h-112l-66 -531q-3 -26 5.5 -37.5
t33.5 -17.5l44 -11l-4 -36h-252l4 31l41 13q13 4 22 9t15 12t9.5 16.5t5.5 23.5z" />
    <glyph glyph-name="V" unicode="V" horiz-adv-x="699" 
d="M381 106l91 211l58.5 134l58.5 134q10 23 6 35.5t-33 21.5l-35 11l5 35h208l-5 -35q-42 -20 -69 -60.5t-56 -101.5l-116.5 -248.5l-116.5 -248.5q-13 -2 -25 -5t-26 -5l-146 606q-2 9 -6 17.5t-12.5 16.5t-22 15.5t-34.5 14.5l5 34h150q-2 -24 1.5 -54.5t10.5 -59.5
l55 -250l46 -218h8z" />
    <glyph glyph-name="W" unicode="W" horiz-adv-x="1007" 
d="M559 446l-97 -216l-52 -118l-52 -118q-16 -2 -30.5 -5t-31.5 -5l-126 605q-3 14 -6 23.5t-8 16t-13 10.5t-20 9l-24 9l7 31h146q-2 -23 2.5 -53.5t9.5 -60.5l36 -212l44 -265h9l99 227l80 184l-19 90q-6 25 -14 33.5t-27 15.5l-28 10l7 31h153q-2 -21 1.5 -47t8.5 -52
l52 -270l39 -221h9l85 239l91 247q9 25 4 38t-31 20l-42 11l5 35h225l-5 -35q-43 -20 -70.5 -60.5t-55.5 -101.5l-88 -221l-55 -138.5l-55 -137.5q-17 -2 -33 -5t-34 -5l-52 257l-38 205h-6z" />
    <glyph glyph-name="X" unicode="X" horiz-adv-x="646" 
d="M497 591q18 28 17 39t-23 17l-30 8l6 35h203l-5 -36q-25 -8 -47 -22t-41.5 -32.5t-36 -39l-31.5 -40.5l-109 -153l111 -251q14 -30 27 -46.5t41 -25.5l25 -8l-4 -36h-230l4 35l31 8q22 6 30 19.5t-5 40.5l-84 195l-135 -206q-13 -20 -8 -32.5t23 -17.5l25 -6l-5 -36h-216
l4 36q58 13 96.5 49t73.5 85l120 169l-110 254q-13 28 -24 37t-30 15l-33 10l11 33h144q0 -17 4 -35t9 -35t10.5 -32t9.5 -24l65 -152z" />
    <glyph glyph-name="Y" unicode="Y" horiz-adv-x="605" 
d="M356 102q-3 -26 6 -37.5t34 -17.5l44 -11l-4 -36h-252l4 31l41 13q13 4 22 9t15 12t9.5 16.5t5.5 23.5l21 166l-131 324q-5 12 -8.5 19t-8 12.5t-11.5 9t-18 7.5l-31 11l5 34h141q-3 -45 19 -101l93 -235h9l142 234q11 18 7.5 33.5t-32.5 23.5l-31 8l5 36q51 0 102 0.5
t102 0.5l-5 -36q-18 -8 -32.5 -19t-29 -27t-30.5 -37.5l-35 -49.5l-143 -215z" />
    <glyph glyph-name="Z" unicode="Z" horiz-adv-x="583" 
d="M507 0q-58 1 -115.5 1h-116.5h-116.5t-115.5 -1l-8 46l464 586l-212 -2q-20 0 -34 -4.5t-24 -13.5t-17 -22t-14 -31l-25 -64l-33 5q7 47 14.5 92t14.5 92l8 6q54 -2 105 -2h103h103.5t103.5 1l8 -49l-463 -584q62 1 131.5 1.5t129.5 2.5q30 1 50.5 12t37.5 42l50 94
l27 -8q-11 -49 -23.5 -96t-23.5 -96z" />
    <glyph glyph-name="bracketleft" unicode="[" horiz-adv-x="265" 
d="M153 690h157l-4 -34h-92l-95 -781h91q-1 -9 -2.5 -16.5t-2.5 -15.5h-157z" />
    <glyph glyph-name="backslash" unicode="\" horiz-adv-x="299" 
d="M91 721h38l81 -381.5l82 -381.5h-39z" />
    <glyph glyph-name="bracketright" unicode="]" horiz-adv-x="265" 
d="M177 -157h-158q1 9 2.5 16.5t2.5 15.5h92l95 781h-91l4 34h158z" />
    <glyph glyph-name="asciicircum" unicode="^" horiz-adv-x="466" 
d="M419 367l-110 270l-86 -135l-87 -135h-53l211 323h45l133 -323h-53z" />
    <glyph glyph-name="underscore" unicode="_" horiz-adv-x="475" 
d="M-14 -129l6 47h472l-6 -47h-472z" />
    <glyph glyph-name="grave" unicode="`" horiz-adv-x="477" 
d="M365 564q-9 -7 -16 -13t-16 -13l-61 75l-62 75l60 48z" />
    <glyph glyph-name="a" unicode="a" horiz-adv-x="534" 
d="M289 480q28 0 59 -2t71 -10q10 14 16.5 20.5t14.5 6.5q5 0 13 -1.5t16 -4t14 -6.5t6 -10q0 -5 -1 -8q-14 -44 -25 -97t-19.5 -108.5t-13 -109.5t-5.5 -99q26 2 47 9.5t46 21.5l14 -16q-10 -12 -25.5 -25t-34 -24.5t-37.5 -19t-35 -7.5q-26 0 -39 10.5t-13 45.5
q0 14 1 35.5t3.5 46.5t6 51t8.5 49l-4 1q-66 -123 -122.5 -180t-104.5 -57q-32 0 -55.5 35.5t-23.5 116.5q0 18 1.5 36.5t4.5 35.5q9 48 33 95t55 84.5t65 61t63 23.5zM296 429q-37 0 -65 -24t-46.5 -61.5t-28 -82.5t-9.5 -87q0 -53 11.5 -77t32.5 -24t49 25t56 62t53 79.5
t39 77.5l14 74q-21 20 -53 29t-53 9z" />
    <glyph glyph-name="b" unicode="b" horiz-adv-x="492" 
d="M407 478q32 0 55.5 -34.5t23.5 -114.5q0 -39 -6 -76q-8 -48 -32 -95t-55.5 -84.5t-66 -60.5t-63.5 -23q-15 0 -36.5 2t-47 7t-53 14t-52.5 23q-3 3 -3 8q28 157 51 310.5l47 317.5l-88 15q0 7 1 12t1 12q13 4 30 8t35 7t35 5t31 2q19 0 26 -9t7 -23q0 -6 -4 -37.5
t-10.5 -77t-15 -98.5l-16.5 -102l-15 -88.5t-11 -56.5h4q69 123 124 180t104 57zM258 40q37 0 64.5 24.5t46 62t28 82.5t9.5 87q0 54 -11.5 77t-34.5 23q-21 0 -48.5 -25t-55.5 -61.5t-52.5 -79t-38.5 -77.5l-14 -75q22 -22 53.5 -30t53.5 -8z" />
    <glyph glyph-name="c" unicode="c" horiz-adv-x="409" 
d="M326 485q28 0 48 -7t33 -17.5t18.5 -23t4.5 -22.5q-1 -15 -16.5 -29t-45.5 -22q-7 37 -24 51t-40 14q-26 0 -43 -8.5t-36 -26.5q-15 -15 -29 -40t-24.5 -54.5t-16 -61t-4.5 -60.5q2 -65 25.5 -101t71.5 -36q28 0 65.5 18.5t72.5 55.5l18 -17q-16 -21 -38.5 -41t-48.5 -35
t-53.5 -24.5t-51.5 -9.5q-71 0 -104 47.5t-36 129.5q-2 40 7.5 78.5t28 73.5t44.5 66t59 56q32 23 60 34.5t55 11.5z" />
    <glyph glyph-name="d" unicode="d" horiz-adv-x="516" 
d="M61 129q-2 45 6 87q8 48 31.5 95t54.5 84.5t65 61t64 23.5q28 0 58 -2t70 -10q8 54 16 102.5t15 101.5q-21 4 -44.5 7t-44.5 7l3 25q13 4 30 8t35 7t35 5t31 2q20 0 27 -12.5t5 -29.5q-8 -55 -17.5 -112.5l-19.5 -114.5l-20 -118t-17.5 -111.5t-12 -100t-4.5 -83.5
q26 2 47.5 10t46.5 22l13 -17q-10 -12 -25.5 -25t-34 -24.5t-37.5 -19t-35 -7.5q-28 0 -39 10.5t-13 45.5q0 14 1.5 35.5t4.5 46.5t7.5 51t9.5 49h-4q-66 -122 -123 -179t-105 -57q-32 0 -55 32t-25 105zM289 429q-39 0 -67.5 -26t-47 -65.5t-27 -87t-7.5 -89.5
q2 -46 13 -67t31 -21q21 0 49 25t56 62t53 79.5t39 77.5l14 74q-21 20 -53 29t-53 9z" />
    <glyph glyph-name="e" unicode="e" horiz-adv-x="408" 
d="M314 486q44 0 69.5 -31.5t27.5 -77.5q1 -35 -18.5 -62.5t-54.5 -50t-83 -40.5t-105 -34q-2 -12 -2.5 -22t0.5 -20q2 -48 20.5 -78t54.5 -30q41 0 80.5 22t73.5 55l18 -17q-14 -18 -34 -37.5t-46 -36t-56.5 -27t-64.5 -10.5q-123 0 -127 160q-2 46 10 97.5t33 94.5
q14 23 37.5 48.5t51 47t57.5 35.5t58 14zM157 225q31 6 63.5 19t59 32t43.5 43.5t16 54.5q-2 32 -18.5 51.5t-34.5 19.5q-20 0 -40 -15t-38 -43.5t-32 -69t-21 -90.5z" />
    <glyph glyph-name="f" unicode="f" horiz-adv-x="350" 
d="M375 439l-8 -43h-136l-43 -302q-8 -53 -21 -112t-38.5 -109t-67.5 -82.5t-109 -32.5q-43 0 -67 14.5t-25 38.5q-2 29 29 48q64 -42 108 -42q46 0 69.5 42t33.5 113l57 424h-97l4 26l101 23l6 39.5t12.5 59t22.5 66.5t37 62t56 46t79 18q43 0 67 -14.5t25 -38.5
q1 -14 -5.5 -26t-23.5 -22q-27 17 -54 29.5t-48 12.5q-24 0 -39 -11.5t-25 -32.5t-16 -49.5t-11 -61.5l-11 -83h138z" />
    <glyph glyph-name="g" unicode="g" horiz-adv-x="497" 
d="M289 480q28 0 58 -2t69 -10q10 14 16 20.5t15 6.5q5 0 13.5 -1.5t16 -4.5t13.5 -8t6 -11q0 -2 -0.5 -3t-0.5 -2q-16 -65 -29 -134.5t-24.5 -141l-22 -142.5l-20.5 -139q-5 -27 -24 -54.5t-47 -49.5t-63 -35.5t-73 -13.5q-41 0 -70.5 7.5t-49 18.5t-29 23t-9.5 22
q-1 14 14.5 34t47.5 28q11 -38 46 -59.5t77 -21.5q24 0 42 7t30 19t19 28.5t11 35.5q14 81 26.5 165.5t31.5 165.5h-4q-67 -122 -123.5 -179t-105.5 -57q-32 0 -54 32t-25 105q-2 46 6 87q9 48 33.5 95t55 84.5t64.5 61t63 23.5zM296 429q-38 0 -67 -26t-47.5 -65.5
t-27.5 -87t-7 -89.5q2 -46 13 -67t32 -21t48.5 25t56 62t53 79.5t39.5 77.5l13 74q-10 10 -24 17.5t-28.5 12t-29 6.5t-24.5 2z" />
    <glyph glyph-name="h" unicode="h" horiz-adv-x="520" 
d="M174 281q20 29 46 63.5t56 64.5t64 50.5t71 20.5q26 0 41.5 -17.5t17.5 -45.5q0 -30 -6.5 -76t-16.5 -96.5l-20 -101.5t-17 -92q26 2 47.5 10t46.5 22l14 -17q-10 -12 -25.5 -25t-33.5 -24.5t-36.5 -19t-34.5 -7.5q-35 0 -44.5 13.5t-9.5 36.5q0 22 9 66.5l19.5 94.5
l19.5 96.5t8 72.5q-2 39 -28 39q-17 0 -35 -11.5t-34 -25.5q-29 -28 -58 -65t-48 -67q-9 -14 -17.5 -30t-13.5 -27q-3 -5 -6.5 -24.5l-7.5 -43.5t-7 -49l-5 -42q-1 -9 -3 -12t-11 -5q-14 -4 -29 -7t-29 -7q-7 2 -8 7l15 87.5l14 79.5l19.5 112t18.5 115l18.5 127.5
t19.5 150.5q-21 4 -44 7t-44 7l3 22q13 4 30 8.5t34.5 8t35 5.5t31.5 2q20 0 27 -13.5t5 -30.5q-16 -128 -33 -230t-31 -177h5z" />
    <glyph glyph-name="i" unicode="i" horiz-adv-x="289" 
d="M157 -10q-33 0 -45.5 13.5t-12.5 36.5q0 15 6 52.5t15.5 89.5l21.5 114.5l24 127.5q-20 -1 -42.5 -8.5t-48.5 -20.5l-14 18q11 12 25.5 25t31 23.5t34 17.5t34.5 7q30 0 42 -16.5t12 -43.5q0 -9 -4.5 -36.5t-11.5 -65l-15.5 -80t-15.5 -81l-13 -69t-7 -43.5q24 2 48 10
t50 22l12 -16q-10 -12 -25 -25.5t-32 -25t-35 -19t-34 -7.5zM218 707q19 0 32.5 -13.5t13.5 -36.5q0 -26 -15.5 -42t-35.5 -16q-19 0 -33 13.5t-14 34.5q0 24 13 42t39 18z" />
    <glyph glyph-name="j" unicode="j" horiz-adv-x="260" 
d="M184 486q32 0 43.5 -14t11.5 -37q0 -14 -5 -45l-14 -83.5l-22 -128l-30 -176.5q-42 -253 -205 -247q-32 1 -53 8t-33 17t-16.5 21.5t-2.5 21.5q2 14 15.5 24.5t43.5 17.5q8 -32 33.5 -48.5t48.5 -16.5q29 0 45.5 23.5t27.5 65.5q2 8 8 41.5l14.5 82l18.5 106l20 114
t18 107t14 84.5q-22 -1 -44 -8.5t-47 -20.5l-15 18q11 12 25 25t30 23.5t33.5 17.5t36.5 7zM170 647q-1 23 13.5 41.5t38.5 18.5q26 0 39.5 -13.5t14.5 -36.5q-2 -26 -16 -42t-34 -16q-26 0 -40.5 13.5t-15.5 34.5z" />
    <glyph glyph-name="k" unicode="k" horiz-adv-x="477" 
d="M56 0q25 169 52 334.5t48 337.5l-87 15l1 21q13 4 30 8.5t35 8t35.5 5.5t31.5 2q19 0 27 -9.5t8 -24.5q0 -11 -6 -53t-15.5 -101.5l-21.5 -129.5l-23 -135l3 -1q21 36 50.5 72.5t62.5 66.5t65.5 49t59.5 19q31 0 49 -13.5t19 -38.5q0 -11 -6.5 -25t-28.5 -25
q-10 18 -25 25.5t-30 7.5q-20 0 -38.5 -8.5t-36 -22.5t-33.5 -31.5l-32 -36.5q13 -38 37 -82.5t48.5 -84t46.5 -68t32 -33.5q20 7 36.5 17t32.5 23l14 -14q-35 -53 -66 -70t-49 -17q-15 0 -32.5 15.5t-38.5 47.5t-47 82.5t-59 121.5l-13 -16q-8 -10 -13 -17t-9 -15
t-7.5 -17.5t-7.5 -23.5l-3.5 -27.5l-5.5 -42t-5 -42.5l-3 -30q-1 -9 -3 -12t-11 -5l-60 -14q-6 2 -8 7z" />
    <glyph glyph-name="l" unicode="l" horiz-adv-x="286" 
d="M225 732q19 0 27 -9.5t8 -25.5q0 -9 -5.5 -49t-14.5 -98l-20.5 -128l-22.5 -138.5l-21.5 -130t-16.5 -102.5q48 3 98 31l12 -16q-10 -12 -25 -25t-32 -24.5t-35 -19t-34 -7.5q-34 0 -46 14t-12 37q0 15 3 33q2 13 9.5 57.5l17.5 104.5l21 128.5l20.5 130.5l17 110t9.5 67
l-88 15l1 21q13 4 30 8.5t34.5 8t34 5.5t30.5 2z" />
    <glyph glyph-name="m" unicode="m" horiz-adv-x="806" 
d="M189 486q33 0 44 -14t11 -37q0 -29 -6 -72t-14 -85h3l37 60t49.5 67t60 55t68.5 23q26 0 39 -19.5t14 -47.5q1 -26 -3 -61t-12 -77h3l37 60.5t49.5 68t60 55.5t68.5 23q26 0 39 -19.5t14 -47.5q2 -57 -15.5 -149.5t-38.5 -217.5q23 2 45.5 9.5t48.5 21.5l14 -15
q-9 -12 -23.5 -25.5t-32 -25t-36.5 -19t-36 -7.5q-23 0 -35 7t-16.5 19t-4 27.5t3.5 32.5q7 43 16 87t16.5 84.5t12 74.5t3.5 56q-1 18 -6 29t-16 11q-17 0 -36.5 -15t-33.5 -32q-34 -43 -64 -93t-52 -95q-2 -5 -6.5 -26t-9.5 -47t-8.5 -50t-4.5 -34q-2 -11 -3.5 -14
t-11.5 -5q-14 -4 -28 -6.5t-28 -7.5q-8 2 -10 9l35 187q11 57 18.5 108t6.5 81q-1 18 -6 29t-16 11q-18 0 -36 -15t-32 -32q-34 -43 -64 -93t-52 -95q-2 -5 -6.5 -26t-9.5 -47t-8.5 -50t-4.5 -34q-2 -11 -3.5 -14t-11.5 -5q-14 -4 -28 -6.5t-28 -7.5q-8 2 -10 9l22 115
l19 104.5t16.5 100t13.5 102.5q-38 -1 -90 -29l-18 18q11 12 25 25t30.5 23.5t34.5 17.5t37 7z" />
    <glyph glyph-name="n" unicode="n" horiz-adv-x="575" 
d="M227 278l46.5 63.5t55.5 66t63.5 51.5t70.5 21q26 0 42 -18t17 -46t-4 -65.5t-14 -83.5l-20.5 -100t-21.5 -116q23 2 45.5 9.5t48.5 21.5l14 -15q-9 -12 -23.5 -25.5t-32 -25t-36.5 -19t-36 -7.5q-23 0 -35 7t-16.5 19t-4 27.5t3.5 32.5q7 43 16.5 86l17.5 82.5
t13.5 72.5t4.5 55q-1 18 -9 27.5t-19 9.5q-18 0 -35.5 -11.5t-33.5 -26.5q-31 -29 -58 -64t-47 -67q-10 -16 -17.5 -30.5l-13.5 -26.5q-2 -5 -6.5 -26t-9.5 -47t-8.5 -50t-4.5 -34q-2 -11 -3.5 -14t-11.5 -5q-14 -4 -28 -6.5t-28 -7.5q-8 2 -10 9l22 115l19 104.5t16.5 100
t13.5 102.5q-38 -1 -90 -29l-18 18q11 12 25 25t30.5 23.5t34.5 17.5t37 7q33 0 44 -14t11 -37q0 -29 -6 -72t-14 -85h3z" />
    <glyph glyph-name="o" unicode="o" horiz-adv-x="494" 
d="M336 486q37 0 65 -13.5t47.5 -37.5t29.5 -57t10 -72q0 -69 -20.5 -127t-56 -100t-84.5 -65.5t-106 -23.5q-71 0 -113 50t-42 135q0 71 22.5 128.5t60 98t86 62.5t101.5 22zM302 444q-33 0 -61 -21t-48 -56t-31 -80t-11 -92q0 -35 6 -65t18 -52t31.5 -35t46.5 -13
q39 0 67.5 25t47.5 63.5t28 84.5t9 88q0 66 -25.5 109.5t-77.5 43.5z" />
    <glyph glyph-name="p" unicode="p" horiz-adv-x="536" 
d="M157 4q-8 -57 -15 -116t-15 -110q-16 -10 -29.5 -15t-35.5 -10l-7 7l50 311q16 95 26.5 181.5t19.5 173.5q-26 -2 -48.5 -11t-47.5 -23l-13 18q10 12 26 25.5t34.5 25t37.5 19t36 7.5q24 0 38 -10t10 -46q-4 -41 -11.5 -90.5t-15.5 -91.5l4 -1q66 123 122 180t104 57
q32 0 55.5 -31.5t25.5 -104.5q1 -22 -0.5 -45t-4.5 -43q-9 -48 -33.5 -95.5t-55.5 -85.5t-65 -62t-63 -24q-26 0 -57.5 2t-69.5 10zM281 44q39 0 67.5 27t47 67.5t26.5 88.5t7 90q-2 45 -13 66t-32 21t-49 -25t-55.5 -61.5t-52 -79t-38.5 -77.5l-13 -79q22 -21 52.5 -29.5
t52.5 -8.5z" />
    <glyph glyph-name="q" unicode="q" horiz-adv-x="487" 
d="M284 480q28 0 59 -2t70 -10q11 16 17.5 22t15.5 5q6 0 14 -2t15 -5.5t11 -9t2 -12.5q-26 -103 -46 -227.5t-34 -257.5q-2 -11 -4 -33.5l-4.5 -51.5t-5 -61.5t-4.5 -61.5q-15 -8 -33 -13t-35 -7l-9 7l3 27q12 114 25.5 224t33.5 217l-4 1q-69 -123 -125 -180t-105 -57
q-32 0 -54 32t-25 105q-2 46 6 87q9 48 33.5 95t55 84.5t64.5 61t63 23.5zM291 429q-38 0 -67 -26t-47.5 -65.5t-27.5 -87t-7 -89.5q2 -46 13 -67t31 -21q21 0 49 25t56.5 62t53 79.5t39.5 77.5l13 74q-10 10 -24 17.5t-28.5 12t-29 6.5t-24.5 2z" />
    <glyph glyph-name="r" unicode="r" horiz-adv-x="387" 
d="M225 296q6 11 12.5 24.5t17.5 34.5q21 40 38.5 65.5t32 40t26.5 20t22 5.5q26 0 39.5 -11.5t13.5 -31.5q1 -14 -8.5 -30t-32.5 -33q-15 21 -40 21q-11 0 -22 -6t-23 -23q-17 -24 -33.5 -55.5t-31 -65t-25.5 -67.5t-16 -63q-14 -66 -17 -95q-2 -13 -6 -16t-18 -6l-23 -5
t-23 -6q-8 2 -10 9l19 99.5t17.5 97t17 104.5t17.5 121q-39 -1 -93 -29l-17 18q11 12 25 25t30 23.5t34 17.5t37 7q22 0 34 -6.5t17 -18t4.5 -27.5t-2.5 -35q-1 -7 -2.5 -20.5t-4 -28.5t-4.5 -29.5t-4 -23.5z" />
    <glyph glyph-name="s" unicode="s" horiz-adv-x="395" 
d="M291 485q16 0 33.5 -3t33 -10.5t26 -19.5t12.5 -30q0 -26 -15 -35.5t-41 -13.5q-15 37 -40 51.5t-50 14.5q-33 0 -58 -15.5t-27 -43.5q1 -17 7 -30t17.5 -25t27.5 -24t38 -26q49 -32 82.5 -62.5t35.5 -66.5q0 -36 -14.5 -65t-41.5 -50t-64.5 -32.5t-83.5 -11.5
q-19 0 -39.5 3t-37.5 10.5t-29 20t-13 30.5q0 25 15 35.5t41 15.5q16 -38 45 -52.5t67 -14.5q36 0 60.5 17.5t24.5 51.5q0 29 -21.5 50.5t-66.5 50.5l-47 31t-36 28t-23 29.5t-9 36.5q0 33 16 61.5t42.5 49.5t61 32.5t71.5 11.5z" />
    <glyph glyph-name="t" unicode="t" horiz-adv-x="343" 
d="M226 599h38l-23 -125h112l-4 -21l-4 -22h-110l-34 -192.5t-28 -191.5q38 0 72.5 13.5t63.5 30.5l15 -19q-16 -17 -36 -32t-42 -26.5t-45.5 -18.5t-47.5 -7q-35 0 -48 15t-13 41q0 14 3 32q14 94 30 180l34 175h-92q1 9 2 14t2 13l101 25z" />
    <glyph glyph-name="u" unicode="u" horiz-adv-x="576" 
d="M406 198l-46.5 -64t-55.5 -65.5t-63.5 -51.5t-70.5 -21q-26 0 -42 18t-17 46t4 65.5t14 83.5l20 100t22 116q-23 -2 -45.5 -9.5t-48.5 -21.5l-14 15q9 12 23.5 25.5t32 25t36.5 19t36 7.5q23 0 35 -7.5t16.5 -19.5t4 -27.5t-3.5 -31.5q-8 -43 -17 -86l-17 -82.5
t-13.5 -72.5t-4.5 -55q1 -18 9 -27.5t19 -9.5q21 0 46 18.5t49 44.5t44.5 55.5l34.5 50.5q10 16 17.5 30.5l13.5 26.5q2 4 6.5 25.5l9.5 47.5t8.5 50t4.5 34q2 11 3.5 14t11.5 5q14 4 28 6.5t28 7.5q8 -2 10 -9l-22 -115.5l-19 -104t-16.5 -100t-13.5 -102.5q38 1 90 29
l18 -18q-11 -12 -25 -25t-30.5 -23.5t-34.5 -17.5t-37 -7q-33 0 -44 14t-11 37q0 29 6 72t14 85h-3z" />
    <glyph glyph-name="v" unicode="v" horiz-adv-x="473" 
d="M249 85q36 39 64 83t47 84.5t28.5 73t9.5 50.5q-1 23 -13.5 32t-24.5 12q1 22 17.5 43t41.5 21q26 0 44 -17t19 -52q3 -47 -24 -105t-67.5 -117.5t-87 -113.5t-83.5 -91l-39 8q-1 51 -5 111.5t-10.5 119t-15 109.5t-18.5 83q-20 -7 -36.5 -16t-37.5 -24l-15 19
q9 13 21 28t26 27t30 20t32 8q32 0 44.5 -20.5t18.5 -50.5q4 -20 9 -59t8.5 -85t6.5 -94t4 -87h6z" />
    <glyph glyph-name="w" unicode="w" horiz-adv-x="704" 
d="M392 243q-20 -38 -43.5 -74.5t-48 -69.5t-48 -61.5t-44.5 -49.5l-39 8q-1 51 -3.5 111.5t-6.5 119t-10.5 109.5t-16.5 83q-21 -7 -36.5 -16t-36.5 -24l-17 20q9 13 21 27.5t26 26.5t30 20t33 8q31 0 43.5 -20.5t18.5 -50.5q4 -21 8 -60t6.5 -85t3 -93.5t-0.5 -85.5h7
q36 40 61.5 80.5t42.5 75.5t26.5 62.5t12.5 40.5q-4 23 -9 45.5t-13 42.5q-5 17 -1 23q7 11 17.5 15t22.5 5q23 3 36 -24q9 -19 16 -58.5t12.5 -90t8.5 -107.5t4 -110h6q36 40 62.5 83.5t44.5 83.5t26.5 72.5t8.5 50.5q-1 22 -13.5 31.5t-23.5 12.5q0 11 4.5 22.5t12.5 20.5
t19 15t24 6q26 0 43.5 -17t18.5 -52q3 -48 -22.5 -106.5t-65 -117t-85.5 -112t-84 -91.5l-39 8q-2 53 -5.5 117.5t-11.5 129.5h-3z" />
    <glyph glyph-name="x" unicode="x" horiz-adv-x="514" 
d="M186 480q27 0 42.5 -21t25.5 -48l40 -117l64 86l72 100q6 8 9 8t13 -6q10 -7 15.5 -10.5t9 -6l7.5 -5.5t10 -8q2 -3 2 -7.5t-2 -6.5l-44.5 -45l-49.5 -51.5l-48.5 -52l-41.5 -45.5q17 -51 38.5 -103t44.5 -90q18 8 37 22.5t38 31.5l21 -17q-8 -15 -20.5 -32.5
t-28.5 -32.5t-33.5 -25t-35.5 -10q-27 0 -42 19.5t-25 46.5q-11 27 -22.5 60l-23.5 68l-69 -92l-76 -107q-5 -8 -8.5 -7.5t-13.5 5.5q-11 7 -16 11t-8.5 6.5t-6.5 5.5t-10 8q-3 2 -3 7t3 7l47 48l52.5 55.5l51 55.5l41.5 46q-18 50 -37.5 98t-41.5 85q-36 -17 -75 -51
l-18 19q7 15 19.5 32t28 32t33 24.5t35.5 9.5z" />
    <glyph glyph-name="y" unicode="y" horiz-adv-x="521" 
d="M157 -4q-26 0 -43 17.5t-17 45.5q0 54 19 146.5t42 217.5q-44 -3 -94 -31l-14 16q9 12 23.5 25.5t32 25t35.5 19t34 7.5q23 0 35.5 -6.5t18 -17.5t5 -26.5t-3.5 -34.5q-8 -43 -17 -86.5l-17 -83t-13.5 -72.5t-4.5 -55q1 -18 8.5 -28t18.5 -10q18 0 35 11t33 26
q13 12 28 29t29 35t26.5 36.5l22.5 34.5q11 15 18.5 29.5t12.5 27.5q3 4 8 25.5t9.5 47t8 49.5t4.5 33q2 11 4 14t13 6q14 3 27 5.5t27 7.5q3 -1 6 -3t4 -6l-42 -201l-20 -93t-30 -111t-42.5 -113t-56 -100.5t-71 -71.5t-88.5 -27q-27 0 -44.5 6t-27.5 14.5t-14 17.5t-4 16
q0 17 8.5 29t35.5 26q7 -16 25.5 -29t40.5 -13q36 0 64.5 25.5t50 60.5t36.5 73.5t24 65.5q13 38 25 82.5t21 83.5l-4 1q-18 -30 -46 -67.5t-61 -71.5t-70 -57t-74 -23z" />
    <glyph glyph-name="z" unicode="z" horiz-adv-x="464" 
d="M155 410l-51 -77l-23 9l32 119q6 17 17 20.5t40 1.5q58 -3 92 -4.5t63 -1.5t58 1.5t72 4.5l9 -23q-16 -22 -43.5 -55.5l-57.5 -71.5l-57.5 -70.5l-57.5 -72l-52.5 -68.5l-42.5 -59l229 2l51 81l24 -9l-33 -125q-5 -17 -18 -19.5t-37 -0.5q-45 4 -89 6.5t-86 2.5
q-32 0 -64.5 -1t-66.5 -4l-7 23l41 52.5l55 68.5l58 71l58.5 73l53.5 69t43 59z" />
    <glyph glyph-name="braceleft" unicode="{" horiz-adv-x="283" 
d="M121 129q2 14 3 25t1 22q0 28 -10.5 49t-37.5 39l3 26q39 17 56 53t23 83l18 152q10 57 40 84.5t77 27.5h55l-4 -34h-32q-38 0 -52 -22t-19 -63l-19 -160q-6 -48 -24.5 -81.5t-56.5 -47.5v-5q31 -14 41.5 -34t10.5 -49q0 -22 -3 -47l-23 -185q-2 -15 -2.5 -31t3.5 -28.5
t15 -20t33 -5.5h32l-5 -34h-54q-17 0 -34 6t-30.5 19t-21 34.5t-4.5 52.5z" />
    <glyph glyph-name="bar" unicode="|" horiz-adv-x="262" 
d="M151 -190h-41v896h41v-896z" />
    <glyph glyph-name="braceright" unicode="}" horiz-adv-x="299" 
d="M181 -45q-4 -35 -16.5 -56.5t-29 -34t-35.5 -17t-36 -4.5h-55q1 9 2.5 17t2.5 17h32q38 0 51.5 23t18.5 62q5 45 11.5 92t11.5 93q6 48 22 80.5t60 49.5v8q-20 5 -31 18.5t-16 31t-5 37.5t2 39l19 160q4 36 -4.5 60.5t-43.5 24.5h-32l4 34h54q22 0 40 -5.5t30.5 -18.5
t18 -34.5t1.5 -53.5l-18 -152q-2 -19 -3 -39.5t3 -39.5t14 -34t30 -23l-3 -25q-22 -12 -36 -26t-22.5 -30.5t-13 -36t-7.5 -43.5z" />
    <glyph glyph-name="dagger" unicode="&#x2020;" horiz-adv-x="426" 
d="M93 529h157l22 183h56l-23 -183h156l-8 -55h-156l-34 -273l-34 -273h-56l69 546h-157z" />
    <glyph glyph-name="bullet" unicode="&#x2022;" horiz-adv-x="393" 
d="M233 375q41 0 70.5 -28t29.5 -70q0 -24 -7.5 -45t-21.5 -36.5t-33.5 -25t-44.5 -9.5q-20 0 -38.5 7.5t-32 21t-21.5 32t-8 39.5q0 24 8 44.5t22.5 36t34 24.5t42.5 9z" />
    <glyph glyph-name="germandbls" unicode="&#xdf;" horiz-adv-x="489" 
d="M371 713q22 0 42.5 -6.5t36.5 -19.5t25.5 -33t9.5 -46q0 -20 -6 -36t-16 -29.5t-23 -25.5l-27 -24l-28 -25t-25 -29t-18 -35t-7 -43q0 -27 21.5 -60.5t47.5 -68t47.5 -67.5t21.5 -60q0 -33 -15 -56t-38 -38t-52.5 -22t-57.5 -7q-35 0 -58 7t-36.5 17.5t-19 21.5t-5.5 20
q0 14 12.5 31.5t38.5 25.5q4 -18 14.5 -33t25 -26t31 -17t33.5 -6t33.5 10.5t16.5 31.5q0 18 -9.5 40t-24 45t-31.5 47t-31.5 47t-24 43.5t-9.5 37.5q0 45 22.5 79.5t49.5 63l49.5 54.5t22.5 55q0 42 -21 65.5t-56 23.5q-50 0 -83 -39.5t-55 -103t-36.5 -144.5t-26.5 -163
q-9 -59 -16.5 -115.5t-18.5 -107.5t-26.5 -94.5t-40 -75t-59.5 -49t-85 -17.5q-13 0 -29 2.5t-30.5 9t-24 17t-9.5 26.5q0 13 7.5 26t21.5 21q27 -29 53 -41t59 -12q29 0 46.5 18t28 50t16.5 77.5l13 101.5q18 165 44.5 285t55.5 192q14 30 34 62.5t47.5 59t65 44t86.5 17.5
z" />
    <glyph glyph-name="ellipsis" unicode="&#x2026;" horiz-adv-x="581" 
d="M112 98q20 0 32.5 -13.5t12.5 -33.5q0 -26 -18 -44t-41 -18q-20 0 -32 13t-12 33q0 26 17.5 44.5t40.5 18.5zM494 98q20 0 32.5 -13.5t12.5 -33.5q0 -26 -18 -44t-41 -18q-20 0 -32 13t-12 33q0 26 17.5 44.5t40.5 18.5zM303 98q20 0 32.5 -13.5t12.5 -33.5
q0 -26 -18 -44t-41 -18q-20 0 -32 13t-12 33q0 26 17.5 44.5t40.5 18.5z" />
    <glyph glyph-name="endash" unicode="&#x2013;" horiz-adv-x="475" 
d="M57 226l7 53h416l-7 -53h-416z" />
    <glyph glyph-name="emdash" unicode="&#x2014;" horiz-adv-x="950" 
d="M55 226l7 53h895l-7 -53h-895z" />
    <glyph glyph-name="quotedblleft" unicode="&#x201c;" horiz-adv-x="385" 
d="M185 503q-23 0 -36 13.5t-13 36.5q0 21 9.5 44.5t26 45.5t38.5 41t48 31q4 -5 7 -9.5t6 -9.5q-23 -20 -37.5 -39.5t-22.5 -54.5q15 -4 23.5 -15.5t8.5 -25.5q0 -24 -17.5 -41t-40.5 -17zM314 503q-22 0 -35 13.5t-13 36.5q0 21 9 44.5t25.5 45.5t39 41t48.5 31
q4 -5 7 -9.5t6 -9.5q-23 -20 -38 -39.5t-23 -54.5q16 -4 24.5 -15.5t8.5 -25.5q0 -24 -18 -41t-41 -17z" />
    <glyph glyph-name="quotedblright" unicode="&#x201d;" horiz-adv-x="385" 
d="M349 716q23 0 36.5 -13.5t13.5 -38.5q0 -21 -9.5 -44t-26.5 -45t-39.5 -40.5t-47.5 -30.5q-3 5 -6.5 9t-5.5 9q23 20 38 40.5t21 55.5q-31 10 -31 41q0 24 17.5 40.5t39.5 16.5zM220 716q22 0 35.5 -13.5t13.5 -38.5q0 -21 -9.5 -44t-26.5 -45t-39.5 -40.5t-47.5 -30.5
q-4 5 -7 9.5t-6 9.5q24 21 39.5 40.5t21.5 54.5q-32 10 -32 41q0 24 18 40.5t40 16.5z" />
    <glyph glyph-name="quoteleft" unicode="&#x2018;" horiz-adv-x="256" 
d="M185 503q-22 0 -35 13.5t-13 36.5q0 21 9 44.5t25.5 45.5t38.5 41t48 31q4 -5 7 -9.5t6 -9.5q-23 -20 -37.5 -39.5t-22.5 -54.5q15 -4 23.5 -15.5t8.5 -25.5q0 -24 -17.5 -41t-40.5 -17z" />
    <glyph glyph-name="quoteright" unicode="&#x2019;" horiz-adv-x="256" 
d="M220 716q22 0 35.5 -13.5t13.5 -38.5q0 -21 -9.5 -44t-26 -45t-39 -40.5t-47.5 -30.5q-4 5 -7 9.5t-6 9.5q24 21 39 40.5t21 54.5q-31 10 -31 41q0 24 17.5 40.5t39.5 16.5z" />
    <glyph glyph-name="paragraph" unicode="&#xb6;" horiz-adv-x="602" 
d="M142 474q0 46 15.5 86t46.5 69.5t77.5 46t108.5 16.5q38 -1 85 -2t94 -1h46l-3 -39l-34 -5q-18 -3 -30.5 -12t-21 -27.5t-13.5 -49t-9 -76.5l-12 -144t-15.5 -142.5t-25 -127t-39.5 -97.5q-35 -56 -91 -87.5t-131 -31.5q-47 0 -76.5 10t-47 24.5t-24.5 31.5t-7 31
q0 10 2 20.5t9 19.5t20 16t34 10q2 -55 25.5 -83t65.5 -28q36 0 60.5 24t41 71.5t27.5 119.5t20 168q-39 0 -75 12t-63 36t-43.5 59.5t-16.5 81.5zM413 639q-4 -42 -9.5 -105.5l-11.5 -130l-11.5 -126.5l-8.5 -94q-8 -62 -19.5 -110.5t-27.5 -84.5t-37.5 -61t-49.5 -40l1 -5
q68 20 105.5 59.5t58.5 92.5q9 23 16 56t13 71.5t10.5 80l8.5 80.5q2 15 4.5 44l5.5 64l6 71.5l5.5 67l4 50t1.5 20.5h-65z" />
    <glyph glyph-name="ampersand" unicode="&#x26;" horiz-adv-x="820" 
d="M358 549q26 0 45 -9.5t31.5 -23.5t18.5 -30.5t6 -30.5q0 -39 -20.5 -68.5t-49.5 -51.5l1 -1q21 5 40.5 5.5t36.5 0.5q48 0 90 -10.5t92 -19.5q16 42 25 87t9 93q0 60 -18 104t-51 73t-78.5 43t-99.5 14q-48 0 -86 -12t-66.5 -31.5t-48 -44t-32 -49t-18 -46.5t-4.5 -36
h-12.5t-10.5 2q-37 8 -37 49q0 34 26 70.5t71.5 67t107.5 50t134 19.5q69 0 123.5 -16.5t92.5 -49t58.5 -81.5t20.5 -114q0 -51 -12.5 -101.5t-35.5 -98.5q14 -1 28.5 -1.5t30.5 -0.5q28 0 59 8t61 26l15 -18q-45 -40 -98.5 -57.5t-103.5 -17.5h-13t-12 1q-34 -54 -78 -99.5
t-94.5 -79t-105.5 -52.5t-109 -19q-84 0 -124 52.5t-40 136.5q0 91 26.5 159.5t64 115t77.5 70t67 23.5zM410 295q-17 0 -31.5 -1t-30.5 -3.5t-34 -7l-41 -10.5h-1q-2 0 -4 3.5t-2 20.5q0 7 3 9q15 6 36 15.5t40 23.5t32 32.5t13 42.5q0 13 -5.5 27t-14.5 25t-21.5 18
t-27.5 7q-12 0 -33 -19t-41.5 -56.5t-35.5 -93.5t-15 -130q0 -33 6 -61t22 -48.5t45 -32t74 -11.5q39 0 78.5 15t75.5 42.5t68 65.5t56 83q-23 6 -45 13.5t-46.5 14t-53.5 11.5t-66 5z" />
    <glyph glyph-name="J" unicode="J" horiz-adv-x="387" 
d="M249 107q-10 -68 -29 -120t-50 -89.5t-75.5 -62t-105.5 -37.5q-2 10 -5 17.5t-5 17.5q53 20 87.5 45.5t56 57t32 68.5t15.5 80l61 503q4 28 -4 37.5t-32 17.5l-40 14l4 31h252l-5 -35l-39 -10q-36 -9 -46.5 -22.5t-13.5 -37.5z" />
    <glyph glyph-name="K" unicode="K" horiz-adv-x="646" 
d="M390 687q-1 -10 -2.5 -18t-2.5 -17l-39 -10q-18 -5 -29 -10t-17 -12.5t-9 -16.5t-5 -21l-59 -480q-2 -22 6 -35.5t33 -19.5l44 -11l-4 -36h-253l4 31l41 13q29 9 39.5 21.5t13.5 39.5l59 482q3 22 -6 34.5t-30 20.5l-40 14l4 31h252zM287 358l229 240q5 5 8 12t3 13
q0 13 -15 18l-30 11l5 37h210l-5 -38q-48 -18 -82 -45t-76 -66l-177 -172l188 -284q13 -20 31 -35t44 -26l-6 -39q-9 -2 -17 -2.5t-17 -0.5q-35 0 -63.5 18t-49.5 52l-182 294z" />
    <glyph glyph-name="Q" unicode="Q" horiz-adv-x="695" 
d="M424 -39q34 -32 57 -51t42.5 -30.5t39 -18t45.5 -13.5q0 -8 -1 -17t-1 -17q-10 -3 -19 -4t-20 -1q-45 0 -100 26.5t-108 83.5l-63 67q-44 5 -81 26t-63.5 55.5t-42 81t-16.5 102.5q0 104 28 187.5t77 142.5t116 90.5t144 31.5q52 0 93 -19t70 -53.5t45 -82.5t17 -105
q0 -89 -19.5 -165t-56.5 -135t-91 -98.5t-123 -53.5zM424 655q-51 0 -95.5 -31t-78 -82t-53 -116.5t-19.5 -134.5q0 -60 10 -108t32 -81.5t56.5 -51.5t83.5 -18q59 0 104 35t76 90t46.5 122.5t15.5 132.5q0 51 -10.5 95.5t-32 77t-55.5 51.5t-80 19z" />
    <glyph glyph-name="U" unicode="U" horiz-adv-x="724" 
d="M617 209q-14 -110 -80 -168.5t-181 -58.5q-103 0 -155 46t-52 135q0 20 3 41l48 383q4 28 -5 37.5t-32 17.5l-40 14l4 31h253q-1 -10 -2.5 -18t-2.5 -17l-40 -10q-36 -9 -46.5 -22.5t-13.5 -37.5l-41 -338q-2 -17 -3.5 -34.5t-1.5 -32.5q0 -30 6.5 -56t23 -44.5t45 -29
t73.5 -10.5q55 0 89.5 17.5t54.5 47t29 66.5t14 76l42 343q2 14 1 23t-5.5 15t-12.5 9.5t-19 7.5l-40 14l4 31h228l-5 -37l-33 -8q-37 -9 -47.5 -22.5t-13.5 -37.5z" />
    <glyph glyph-name="dollar" unicode="$" horiz-adv-x="532" 
d="M389 768h42l-12 -97q26 -5 57.5 -20t51.5 -34q-6 -29 -12.5 -56t-12.5 -55h-30l-3 43q-2 22 -8 35t-14 19.5t-17.5 9.5t-18.5 5l-30 -243q53 -29 85.5 -70.5t32.5 -103.5q0 -32 -10.5 -61.5t-31 -54t-51 -43.5t-70.5 -29q-3 -29 -7 -58t-7 -58h-42zM232 -103h-44l14 113
q-13 3 -30 8t-34.5 12.5t-34 16.5t-28.5 20l14 60l14 59h29l3 -41q2 -33 16.5 -52t57.5 -30l37 302q-45 26 -72.5 64.5t-27.5 80.5q0 61 35.5 102t102.5 58l12 98h43zM344 68q49 19 71 53t22 72q0 32 -15.5 60.5t-50.5 47.5zM215 518q0 -23 11 -43.5t30 -35.5l20 175
q-26 -13 -43.5 -37t-17.5 -59z" />
    <glyph glyph-name="percent" unicode="%" horiz-adv-x="840" 
d="M268 -39h-39l355 759h38zM255 699q37 0 61.5 -13t38.5 -34t19.5 -48.5t5.5 -56.5q0 -32 -8 -79t-29 -91t-58 -75t-95 -31q-38 0 -62 13.5t-38.5 35t-20 50t-5.5 58.5q0 36 8.5 83t30 88.5t58.5 70.5t94 29zM244 659q-27 0 -46.5 -13.5t-33 -35.5t-21 -49t-12 -54
t-5.5 -51.5t-1 -40.5q0 -21 3.5 -40t12 -33t23 -22.5t36.5 -8.5q39 0 62.5 25.5t36.5 63t17.5 78.5t4.5 73q0 22 -3.5 41.5t-12 34.5t-23.5 23.5t-38 8.5zM672 419q37 0 61.5 -13t38.5 -34t19.5 -48.5t5.5 -56.5q0 -32 -8 -79t-29 -91t-58 -75t-95 -31q-38 0 -62 13.5
t-38.5 35t-20 50t-5.5 58.5q0 36 8.5 83t30 88.5t58.5 70.5t94 29zM661 379q-27 0 -46.5 -13.5t-33 -35.5t-21 -49t-12 -54t-5.5 -51.5t-1 -40.5q0 -21 3.5 -40t12 -33t23 -22.5t36.5 -8.5q39 0 62.5 25.5t36.5 63t17.5 78.5t4.5 73q0 22 -3.5 41.5t-12 34.5t-23.5 23.5
t-38 8.5z" />
    <glyph glyph-name="quotesinglbase" unicode="&#x201a;" horiz-adv-x="211" 
d="M118 98q23 0 36.5 -18.5t10.5 -47.5q-4 -21 -15 -44.5t-26.5 -45.5t-36 -40.5t-44.5 -30.5q-4 5 -7 10l-6 10q24 23 39 44.5t22 56.5q-17 5 -25 19t-6 32q3 23 20 39t38 16z" />
    <glyph glyph-name="quotedblbase" unicode="&#x201e;" horiz-adv-x="346" 
d="M118 98q22 0 35 -14.5t13 -39.5q0 -23 -9.5 -48t-26 -48.5t-39 -43.5t-49.5 -33q-4 5 -7 10l-6 10q24 23 39.5 44.5t22.5 56.5q-16 5 -24 16.5t-8 27.5q0 25 18 43.5t41 18.5zM254 98q22 0 35 -14.5t13 -39.5q0 -23 -9.5 -48t-26 -48.5t-39.5 -43.5t-49 -33q-4 5 -7 10
l-6 10q24 23 39 44.5t22 56.5q-15 5 -23 16.5t-8 27.5q0 25 18 43.5t41 18.5z" />
    <glyph glyph-name="daggerdbl" unicode="&#x2021;" horiz-adv-x="426" 
d="M203 166l39 308h-157l8 55h157l22 183h56l-23 -183h156l-8 -55h-156l-39 -308h158l-7 -55h-158l-22 -183h-55l22 183h-155l7 55h155z" />
    <glyph glyph-name="circumflex" unicode="&#x2c6;" horiz-adv-x="534" 
d="M314 660l-84.5 -55l-86.5 -55q-3 5 -7.5 11t-7.5 11l86 76l86 76h44l69 -74.5l69 -76.5l-22 -24z" />
    <glyph glyph-name="Euro" unicode="&#x20ac;" horiz-adv-x="532" 
d="M64 370l5 46h45q12 54 37.5 103t64 86.5t89.5 60t114 22.5q16 0 37 -2t44 -9t47 -19.5t47 -33.5q-6 -33 -13.5 -66.5t-13.5 -65.5h-31l-3 51q-2 28 -11.5 46t-25 28.5t-36.5 14.5t-46 4q-45 0 -83 -19t-66.5 -49.5t-47.5 -70t-26 -81.5h248l-6 -46h-369zM426 304l-6 -47
h-246q-3 -41 3.5 -79.5t27 -69.5t56 -49.5t90.5 -18.5q10 0 27.5 1t40 3.5t47 7.5t47.5 13l13 -37q-24 -13 -51 -21.5t-53.5 -13.5t-50 -7t-39.5 -2q-59 0 -104.5 18t-76 52.5t-44.5 85.5t-9 117h-50l5 47h373z" />
    <glyph glyph-name="florin" unicode="&#x192;" horiz-adv-x="532" 
d="M327 319q-28 -131 -51 -223t-50.5 -150t-64 -85t-90.5 -27q-41 0 -66.5 17.5t-25.5 43.5q0 20 12 36t26 24q24 -44 43.5 -61t36.5 -17q11 0 20 6t16 14.5t12 18t8 16.5q10 21 21 52t23.5 77.5t26.5 110t30 147.5h-109v36h117q16 82 35 144t45.5 103t61 62t81.5 21
q18 0 35 -4.5t30.5 -13t22 -20t8.5 -24.5q0 -16 -13.5 -34t-30.5 -26q-22 35 -43.5 52.5t-41.5 17.5q-26 0 -44.5 -29.5t-32 -72t-23.5 -91l-18 -85.5h138v-36h-145z" />
    <glyph glyph-name="guilsinglleft" unicode="&#x2039;" horiz-adv-x="280" 
d="M143 214l81 -177q-5 -5 -11.5 -8.5t-11.5 -7.5l-59.5 86l-60.5 86l6 43l162 172l20 -15z" />
    <glyph glyph-name="tilde" unicode="&#x2dc;" horiz-adv-x="534" 
d="M466 669q-11 -36 -35 -63t-65 -27q-22 0 -38 6t-30 13.5t-28 13.5t-30 6q-20 0 -36 -7t-33 -36l-23 9q4 14 12 30.5t20.5 30.5t29.5 23.5t39 9.5q16 0 32.5 -6.5t32.5 -14.5t31.5 -14.5t30.5 -6.5q12 0 20.5 1.5t16.5 6t16 12t17 20.5z" />
    <glyph glyph-name="trademark" unicode="&#x2122;" horiz-adv-x="838" 
d="M707 617l-17 -45l-17 -45l-31 -82t-30 -78h-23l-98 244h-3l-12 -203q-1 -16 3.5 -21.5t17.5 -8.5l26 -6v-19h-134v19l26 7q12 3 17 8t7 24l17 222q2 17 -3 24t-19 12l-22 7l4 16q47 -1 95 0q3 -20 7 -30l92 -223l49 123l25.5 66.5t25.5 63.5q46 -2 93 0q0 -5 0.5 -9
t0.5 -9l-20 -6q-19 -6 -22 -13t-2 -21l15 -222q2 -20 6.5 -25.5t19.5 -9.5l20 -5v-19h-136v17l22 7q13 4 15.5 10.5t1.5 18.5l-14 211h-3zM269 400q0 -12 4 -17.5t15 -7.5l27 -6v-18h-134v17l22 7q11 4 15 9t4 23v244h-57q-17 0 -22 -3.5t-9 -18.5l-11 -44l-18 2q0 22 1 51
t1 50l4 2q34 -2 64.5 -2h70.5q35 0 68.5 0.5t65.5 2.5l4 -2q0 -26 1 -51t1 -51l-17 -2l-12 45q-4 13 -9.5 17t-22.5 4h-56v-251z" />
    <glyph glyph-name="guilsinglright" unicode="&#x203a;" horiz-adv-x="280" 
d="M106 394l27 16l120 -173l-6 -44l-162 -173l-23 18l126 177z" />
    <glyph glyph-name="currency" unicode="&#xa4;" horiz-adv-x="532" 
d="M271 131q-28 0 -52.5 8.5t-50.5 25.5l-55 -58l-29 31l55 57q-18 26 -26 53t-8 56q0 26 8 52t25 49l-27 28l-27 29l32 34l53 -55q26 16 51 24.5t51 8.5q27 0 52 -6.5t48 -22.5l52 51l31 -32l-50 -54q15 -25 23.5 -52t8.5 -54q0 -29 -8.5 -55.5t-24.5 -51.5l52 -56l-31 -33
l-54 58q-50 -35 -99 -35zM271 425q-24 0 -45.5 -9.5t-37.5 -25.5t-25.5 -38.5t-9.5 -47.5q0 -26 9.5 -48.5t25.5 -39.5t37.5 -27t45.5 -10t45.5 10t37.5 27t25.5 39.5t9.5 48.5q0 25 -9.5 47t-25.5 38.5t-37.5 26t-45.5 9.5z" />
    <glyph glyph-name="exclamdown" unicode="&#xa1;" horiz-adv-x="258" 
d="M176 299l-21 -466q0 -9 -3 -20t-9.5 -20t-17 -15.5t-26.5 -6.5q-25 0 -34.5 14t-9.5 31v10t2 8l91 465h28zM173 382q-20 0 -32.5 13t-12.5 33q0 26 18 44.5t41 18.5q19 0 32 -13.5t13 -33.5q0 -26 -18 -44t-41 -18z" />
    <glyph glyph-name="questiondown" unicode="&#xbf;" horiz-adv-x="426" 
d="M252 299q38 -20 61 -53.5t23 -69.5q0 -21 -12 -43.5t-31 -45t-42.5 -45l-46.5 -43.5l-37 -34t-32.5 -33t-23 -30.5t-8.5 -26.5q0 -24 20 -40.5t52 -16.5t72.5 20.5t84.5 68.5q14 -8 25 -21t11 -33q0 -43 -44.5 -65.5t-122.5 -22.5q-83 0 -129.5 28.5t-46.5 82.5
q0 22 10.5 42.5t28 40t39.5 39l45 38.5l43.5 37.5t38 37.5t26.5 38.5t10 39.5q0 18 -11.5 43t-25.5 42zM281 382q-20 0 -33 13t-13 33q0 26 18.5 44.5t42.5 18.5q19 0 31.5 -13.5t12.5 -33.5q0 -26 -18 -44t-41 -18z" />
    <glyph glyph-name="brokenbar" unicode="&#xa6;" horiz-adv-x="262" 
d="M147 227v-417h-35v417h35zM112 319v387h35v-387h-35z" />
    <glyph glyph-name="guillemotleft" unicode="&#xab;" horiz-adv-x="415" 
d="M278 214l41 -88.5l41 -88.5l-23 -16l-60.5 86l-59.5 86l6 43l161 172l20 -15zM142 214l41.5 -88.5l40.5 -88.5q-5 -5 -11.5 -8.5t-11.5 -7.5l-120 172l6 43l162 172q5 -3 9.5 -7.5t9.5 -7.5z" />
    <glyph glyph-name="guillemotright" unicode="&#xbb;" horiz-adv-x="415" 
d="M244 393l11.5 8t11.5 6l60.5 -85.5l59.5 -86.5l-6 -43l-160 -171q-5 5 -10.5 8t-10.5 8l126 177zM108 393l11.5 8t11.5 6l61 -85.5l59 -86.5l-6 -43l-79.5 -85.5l-80.5 -85.5q-5 4 -10.5 7.5t-10.5 7.5l127 178z" />
    <glyph glyph-name="periodcentered" unicode="&#xb7;" horiz-adv-x="201" 
d="M138 329q20 0 32.5 -13t12.5 -33q0 -26 -18 -44.5t-41 -18.5q-20 0 -32 14t-12 35q0 25 17.5 42.5t40.5 17.5z" />
    <glyph glyph-name="logicalnot" unicode="&#xac;" horiz-adv-x="532" 
d="M472 52h-51l24 196h-369l7 53h420z" />
    <glyph glyph-name="sfthyphen" unicode="&#xad;" horiz-adv-x="321" 
d="M308 284q-2 -17 -4 -31.5t-4 -31.5h-224q2 17 4 31.5t4 31.5h224z" />
    <glyph glyph-name="copyright" unicode="&#xa9;" horiz-adv-x="827" 
d="M415 -25q-83 0 -149.5 29t-113 79t-71.5 118t-25 145t27 144.5t75 118t113.5 79.5t143.5 29q77 0 143 -29t114 -79.5t75 -118t27 -144.5t-27 -145t-75 -118t-114 -79t-143 -29zM415 13q70 0 128.5 26t100 71t64.5 105.5t23 130.5t-23.5 130.5t-65.5 105.5t-100 71
t-127 26q-70 0 -128.5 -26t-100.5 -71t-65 -105.5t-23 -130.5t23 -130.5t64.5 -105.5t100 -71t129.5 -26zM217 332q0 39 10.5 81.5t33.5 77.5t59.5 58t89.5 23q29 0 63.5 -6.5t69.5 -26.5l3 -98l-25 -5l-11 35q-12 34 -42 46.5t-62 12.5q-39 0 -64 -18t-39.5 -45.5
t-20 -61.5t-5.5 -67q0 -31 5 -65.5t20 -63t43.5 -47.5t76.5 -19q12 0 44.5 4.5t67.5 15.5q2 -9 5.5 -16.5t5.5 -16.5q-35 -17 -71.5 -24t-60.5 -7q-93 0 -144.5 60.5t-51.5 172.5z" />
    <glyph glyph-name="registered" unicode="&#xae;" horiz-adv-x="536" 
d="M192 621q11 -1 24.5 -1h37.5l53 1q40 0 65.5 -17t25.5 -59q0 -26 -15 -47.5t-44 -31.5l34 -72q6 -13 12 -18t19 -7l21 -2v-21l-59 -11l-7 5l-55 119q-9 0 -20.5 0.5t-23.5 2.5v-70q0 -12 5 -16.5t12 -6.5l18 -4v-23h-107v20l15 5q11 4 14.5 8.5t3.5 13.5v180q0 14 -3 20
t-17 9l-12 3zM359 541q0 29 -19.5 40.5t-51.5 11.5q-15 0 -28 -3v-98q8 -2 15.5 -2h12.5q21 0 35 4.5t22 12t11 16.5t3 18zM299 233q-53 0 -95.5 18.5t-72.5 51t-46 75.5t-16 92q0 50 17 93.5t48 76t73 51t92 18.5t92.5 -18.5t73.5 -51t48.5 -76t17.5 -93.5q0 -49 -17.5 -92
t-48.5 -75.5t-73.5 -51t-92.5 -18.5zM299 260q46 0 83.5 16.5t64 45t40.5 66.5t14 82t-14.5 82.5t-41 67t-63.5 45t-83 16.5q-45 0 -82 -16.5t-64 -45t-41.5 -67t-14.5 -82.5t14 -82t40 -66.5t63.5 -45t84.5 -16.5z" />
    <glyph glyph-name="cedilla" unicode="&#xb8;" horiz-adv-x="485" 
d="M251 -73q41 -2 70 -19.5t29 -52.5q0 -23 -14 -42t-38.5 -33t-58.5 -22.5t-74 -8.5l2 29q20 2 41.5 6.5t39 12.5t29 19.5t11.5 26.5q0 14 -9 22.5t-21.5 13t-27 6.5t-26.5 3l-7 16l52.5 63l52.5 62l22 -15z" />
    <glyph glyph-name="macron" unicode="&#xaf;" horiz-adv-x="534" 
d="M472 651l-7 -56h-295l7 56h295z" />
    <glyph glyph-name="degree" unicode="&#xb0;" horiz-adv-x="404" 
d="M212 711q61 0 96 -36t35 -88q0 -25 -10 -47.5t-28 -39.5t-42 -27t-51 -10q-29 0 -53 10t-41 27t-26 39.5t-9 47.5q0 26 9.5 48.5t27 39.5t41 26.5t51.5 9.5zM212 676q-45 0 -67.5 -25.5t-22.5 -63.5q0 -37 23 -63t67 -26q45 0 67.5 26t22.5 63q0 38 -22.5 63.5
t-67.5 25.5z" />
    <glyph glyph-name="plusminus" unicode="&#xb1;" horiz-adv-x="532" 
d="M314 261l-10 -85l-10 -85h-52l20 170h-185l7 54h185l24 190h52l-24 -190h183l-7 -54h-183zM46 1l6 52h422l-6 -52h-422z" />
    <glyph glyph-name="ccedilla" unicode="&#xe7;" horiz-adv-x="409" 
d="M326 485q28 0 48 -7t33 -17.5t18.5 -23t4.5 -22.5q-1 -15 -16.5 -29t-45.5 -22q-7 37 -24 51t-40 14q-26 0 -43 -8.5t-36 -26.5q-15 -15 -29 -40t-24.5 -54.5t-16 -61t-4.5 -60.5q2 -65 25.5 -101t71.5 -36q28 0 65.5 18.5t72.5 55.5l18 -17q-14 -19 -34 -37t-43 -32.5
t-47.5 -25t-47.5 -13.5l-52 -63q41 -2 70 -19.5t29 -52.5q0 -23 -14 -42t-38.5 -33t-58.5 -22.5t-74 -8.5l2 29q20 2 41.5 6.5t39 12.5t29 19.5t11.5 26.5q0 14 -9 22.5t-21.5 13t-27 6.5t-26.5 3l-7 16l35 42.5l35 42.5q-63 5 -92 51.5t-32 124.5q-2 40 7.5 78.5t28 73.5
t44.5 66t59 56q32 23 60 34.5t55 11.5z" />
    <glyph glyph-name="divide" unicode="&#xf7;" horiz-adv-x="532" 
d="M76 245l7 53h421l-7 -53h-421zM276 146q20 0 32 -13t12 -32q0 -26 -18 -43.5t-41 -17.5q-18 0 -30 12.5t-12 32.5q0 25 17 43t40 18zM319 501q20 0 32 -13t12 -32q0 -26 -17 -43.5t-40 -17.5q-19 0 -31 13.5t-12 33.5q0 24 17.5 41.5t38.5 17.5z" />
    <glyph glyph-name="section" unicode="&#xa7;" horiz-adv-x="474" 
d="M390 720q42 0 62.5 -15.5t20.5 -36.5q0 -20 -15 -35.5t-30 -22.5q-26 26 -51.5 41.5t-40.5 15.5q-14 0 -24.5 -7t-17 -17.5t-9.5 -23t-3 -23.5q0 -39 19 -79.5t45 -78.5q16 -23 32 -48.5t28.5 -54t20 -60t7.5 -66.5q0 -31 -8 -68t-24 -74.5t-39 -72.5t-53 -62t-66 -43
t-78 -16q-41 0 -62 15.5t-21 36.5q0 20 14.5 35.5t30.5 22.5q30 -29 54.5 -42.5t39.5 -13.5q14 0 23 7t14.5 17t8 21.5t2.5 21.5q1 43 -17.5 84t-45.5 81q-15 23 -30 49t-27 54.5t-19.5 60t-7.5 64.5q0 48 18 106.5t52.5 108.5t84 84t112.5 34zM182 418q0 -31 7 -57.5
t18.5 -50t25 -44.5l27.5 -41q25 -35 44 -69t19 -74q0 -6 -0.5 -22t-2.5 -37q26 33 39 73t13 85q0 28 -5.5 51.5t-15 44t-21.5 38l-25 35.5l-24.5 37.5t-22.5 42t-16 48t-6 56.5v13.5t2 24.5q-29 -35 -42.5 -76.5t-13.5 -77.5z" />
    <glyph glyph-name="cent" unicode="&#xa2;" horiz-adv-x="532" 
d="M277 20h-2q-68 0 -99.5 43.5t-34.5 117.5q-3 75 33.5 139.5t99.5 110.5q29 20 55 30l13 113l30 -1l-12 -102q6 1 12 1.5t12 0.5q27 0 46.5 -6.5t31.5 -16t17.5 -21t4.5 -20.5q-1 -14 -15.5 -26t-43.5 -20q-7 33 -23.5 46t-38.5 13h-9l-42 -354q26 1 62 18t68 50l17 -16
q-26 -32 -68 -59.5t-84 -37.5l-15 -127l-29 1zM217 193q1 -50 17.5 -81.5t48.5 -40.5l40 344q-9 -4 -17.5 -10.5t-17.5 -14.5q-15 -14 -28.5 -36.5t-23 -49.5t-15 -56t-4.5 -55z" />
    <glyph glyph-name="sterling" unicode="&#xa3;" horiz-adv-x="532" 
d="M455 361v-35h-196q-11 -64 -28 -133t-53 -130q41 -1 95 0.5t105 3.5q23 1 38 3.5t26 9.5t20 19.5t20 32.5l27 49l23 -7l-34 -164l-11 -10q-34 1 -56 1.5l-42.5 1t-44.5 0.5h-62h-56t-63.5 -0.5l-65 -1t-60.5 -1.5q0 8 -0.5 20t-0.5 20l39 14q24 9 42.5 39t32.5 70
t23.5 83.5t15.5 79.5h-86v35h93q10 70 29.5 130.5t52 105t79 70t109.5 25.5q60 0 91 -21t31 -47q0 -22 -16 -40.5t-37 -23.5q-6 33 -31.5 57t-64.5 24q-47 0 -76 -17t-47 -51.5t-29 -87t-22 -124.5h190z" />
    <glyph glyph-name="yen" unicode="&#xa5;" horiz-adv-x="532" 
d="M91 303l7 49h151l-92 229q-5 11 -8.5 18t-8 12t-11 9t-17.5 8l-29 11l5 33h131q-2 -23 3 -48t15 -51l89 -223h8l130 222q9 17 6.5 32.5t-30.5 23.5l-30 8l5 35q49 0 97 0.5t97 0.5l-6 -35q-17 -8 -31 -19t-28 -26.5t-29 -36.5l-34 -49l-98 -154h163l-7 -49h-448zM533 247
l-6 -48h-191l-12 -99q-2 -26 6.5 -37t32.5 -17l43 -11l-4 -35h-245l4 30l40 13q14 4 23 9t14.5 11.5t8.5 16t5 23.5l12 96h-185l6 48h448z" />
    <glyph glyph-name="AE" unicode="&#xc6;" horiz-adv-x="963" 
d="M481 45q28 9 37 22.5t13 42.5l12 132h-243l-103 -146q-12 -16 -12 -28q0 -10 9 -16t23 -9l37 -8l-3 -35h-230l3 33l30 8q24 7 39 21t31 37l184 253.5l185 252.5q7 10 7.5 17.5t-2 12t-8 7t-10.5 4.5l-27 8l7 34q24 -1 66 -1.5t86.5 -0.5h83.5h57q33 0 58.5 0.5l49 1l47 1
t53.5 1.5l10 -5q-2 -47 -5.5 -92.5t-6.5 -92.5l-29 -5l-12 71q-3 21 -7.5 34t-13 20t-21.5 9.5t-33 2.5q-29 1 -73 1.5t-115 0.5l-24 -277l130 4l130 4l-7 -62l-258 8l-18 -204q-2 -18 -0.5 -28.5t7.5 -16t17 -7t29 -1.5q43 0 78.5 1t62.5 2q17 0 31 2.5t26 9t22.5 18.5
t20.5 33l41 82l28 -7q-11 -47 -20.5 -92.5l-19.5 -92.5q-2 -2 -5.5 -5t-5.5 -5q-35 0 -61.5 0.5l-52 1l-53.5 1t-67 0.5h-55.5t-63.5 -0.5l-65 -1t-60 -1.5q0 9 -0.5 16t-0.5 16zM573 628l-238 -335h213l29 335h-4z" />
    <glyph glyph-name="primemod" unicode="&#x2b9;" horiz-adv-x="237" 
d="M65 406l74.5 148l74.5 148l61 -31l-88.5 -141.5l-88.5 -141.5z" />
    <glyph glyph-name="caron" unicode="&#x2c7;" horiz-adv-x="534" 
d="M469 723q5 -5 8 -11.5t7 -11.5l-172 -151h-43l-138 151q5 5 10 11l10 12l73 -54.5l74 -54.5z" />
    <glyph glyph-name="breve" unicode="&#x2d8;" horiz-adv-x="534" 
d="M280 558q-23 0 -43.5 9.5t-37.5 24.5t-30 33t-21 35l57 33q17 -34 42 -58.5t45 -24.5q8 0 19.5 2.5t27.5 10.5t35.5 22.5t44.5 37.5l22 -21q-44 -57 -86 -80.5t-75 -23.5z" />
    <glyph glyph-name="dotaccent" unicode="&#x2d9;" horiz-adv-x="534" 
d="M307 697q20 0 32.5 -14t12.5 -34q0 -25 -17 -43t-40 -18q-20 0 -32.5 14t-12.5 35q0 25 17 42.5t40 17.5z" />
    <glyph glyph-name="ring" unicode="&#x2da;" horiz-adv-x="534" 
d="M316 749q37 0 61 -25.5t24 -61.5q0 -23 -9 -42.5t-23.5 -33.5t-33.5 -22.5t-39 -8.5q-37 0 -61 24.5t-24 61.5q0 21 8.5 40.5t22.5 34.5t33.5 24t40.5 9zM312 714q-26 0 -45 -20.5t-19 -46.5q0 -22 14.5 -39t37.5 -17q12 0 23 6t20 15.5t14 21.5t5 24q0 22 -14.5 39
t-35.5 17z" />
    <glyph glyph-name="ogonek" unicode="&#x2db;" horiz-adv-x="534" 
d="M392 29q-35 -33 -53 -69.5t-18 -65.5q0 -16 6.5 -26.5t17 -16.5t23.5 -8t27 -2t29.5 2.5t27.5 5.5l2 -23q-25 -12 -53 -19t-57 -7q-44 0 -64.5 19t-20.5 45q0 14 6 35t20 44.5t38 48.5t59 48z" />
    <glyph glyph-name="hungarumlaut" unicode="&#x2dd;" horiz-adv-x="534" 
d="M313 736l50 -48l-79.5 -75.5l-80.5 -75.5l-27 26zM442 736l50 -48l-160 -151l-27 26z" />
    <glyph glyph-name="tonos" unicode="&#x384;" horiz-adv-x="534" 
d="M393 736q25 -26 51 -48l-80 -75.5l-79 -75.5l-28 26z" />
    <glyph glyph-name="dieresistonos" unicode="&#x385;" horiz-adv-x="534" 
d="M344 740l59 -36l-67 -87.5l-66 -87.5l-30 19zM208 666q17 0 28.5 -12t11.5 -29q0 -23 -14.5 -38.5t-35.5 -15.5q-18 0 -29 12.5t-11 31.5q0 21 15.5 36t34.5 15zM422 666q17 0 28 -12t11 -29q0 -23 -14.5 -38.5t-34.5 -15.5q-19 0 -30 12.5t-11 31.5q0 21 16 36t35 15z
" />
    <glyph glyph-name="ae" unicode="&#xe6;" horiz-adv-x="692" 
d="M599 486q43 0 69 -26.5t28 -72.5q0 -70 -68.5 -110t-190.5 -55q-1 -9 -2.5 -31.5t-1.5 -37.5q0 -49 19 -81t56 -32q41 0 80 22t73 55l19 -17q-14 -18 -34.5 -37.5t-46.5 -36t-56.5 -27t-64.5 -10.5q-82 0 -112 74q-33 -23 -64 -37.5t-57.5 -23t-47.5 -12t-35 -3.5
q-45 0 -69.5 20t-24.5 72q0 10 3 26t13 34t29 37t52 34.5t81 26t116 12.5q5 24 9.5 48.5t4.5 45.5q0 51 -25 70.5t-65 19.5q-29 0 -61 -7.5t-66 -19.5l-10 27q32 20 76.5 34t87.5 14q44 0 79 -17.5t47 -61.5q32 35 75.5 59.5t84.5 24.5zM357 96q-2 15 -3.5 31t-1.5 33
q0 29 3 55q-76 -4 -119 -19.5t-64 -35t-25.5 -38t-4.5 -28.5q0 -20 11 -36.5t34 -16.5q46 0 88 16t81 37zM444 257q31 6 63 15.5t57.5 24t42 35t16.5 50.5q0 33 -17 48t-35 15q-20 0 -40 -10t-37.5 -32.5t-31 -58t-20.5 -85.5z" />
    <glyph glyph-name="asciitilde" unicode="~" horiz-adv-x="532" 
d="M507 288q-8 -18 -19 -35t-26 -30t-35 -21t-47 -8q-30 0 -53 7t-42.5 15.5t-38.5 15.5t-41 7q-26 0 -55 -10t-50 -40l-26 9q5 15 15.5 33t27.5 34t41 27t55 11q23 0 46 -7.5t45.5 -16l44 -16t41.5 -7.5q26 0 47.5 8t45.5 36z" />
    <glyph glyph-name="acute" unicode="&#xb4;" horiz-adv-x="477" 
d="M393 736q25 -26 51 -48l-80 -75.5l-79 -75.5l-28 26z" />
    <glyph glyph-name="OE" unicode="&#x152;" horiz-adv-x="873" 
d="M861 195l-46 -187l-9 -8q-35 0 -58.5 0.5l-45 1t-47.5 1t-65 0.5q-31 0 -66 -2.5t-70 -5.5t-70 -5.5t-66 -2.5q-50 0 -91 18.5t-71 53t-46.5 83.5t-16.5 109q0 97 23.5 179.5t69 142.5t112.5 94t153 34q20 0 36.5 -2l34.5 -4q25 -3 58.5 -6t90.5 -3q33 0 57 0.5t45.5 1
l43.5 1t52 1.5q2 -2 4 -2.5t4 -2.5q-4 -47 -8.5 -92.5t-8.5 -92.5l-32 -5l-12 91q-3 23 -14.5 34.5t-42.5 11.5q-29 0 -69 1t-109 1l-31 -252l120 4l120 4q-2 -17 -4 -31t-4 -31l-238 8l-28 -230q-3 -32 7.5 -42t39.5 -10q33 0 72 1t70 2q16 0 27 3t19.5 9t16 16t15.5 25
l50 92zM359 32q30 0 51.5 9.5t26.5 44.5l33.5 254l33.5 254q1 20 -5.5 32t-18 18.5t-26.5 8.5t-30 2q-60 0 -107 -32.5t-79.5 -87t-50 -125t-17.5 -145.5q0 -110 44 -171.5t145 -61.5z" />
    <glyph glyph-name="oe" unicode="&#x153;" horiz-adv-x="735" 
d="M477 188q-1 -11 -1.5 -20.5t0.5 -19.5q2 -48 20.5 -78t54.5 -30q41 0 80 22t74 55l18 -17q-14 -18 -34 -37.5t-46 -36t-56.5 -27t-64.5 -10.5q-89 0 -116 84q-37 -40 -84.5 -61.5t-101.5 -21.5q-71 0 -113 50t-42 135q0 71 22.5 128.5t60 98t86.5 62.5t102 22
q50 0 84.5 -25t51.5 -69q35 38 80 66t90 28q44 0 69.5 -31.5t27.5 -77.5q1 -35 -18.5 -62.5t-54.5 -50t-83 -40.5t-105 -34zM301 444q-33 0 -61 -21t-47.5 -56t-30.5 -80t-11 -92q0 -35 6 -65t18 -52t31 -35t46 -13q39 0 68 25t47.5 63.5t27.5 84.5t9 88q0 66 -25.5 109.5
t-77.5 43.5zM484 225q31 6 64 19t59.5 32t43.5 43.5t16 54.5q-2 32 -18.5 51.5t-34.5 19.5q-20 0 -40 -15t-38 -43.5t-32.5 -69t-21.5 -90.5z" />
    <glyph glyph-name="Circumflex" unicode="&#xf6c0;" horiz-adv-x="658" 
d="M419 833l-169 -110q-3 5 -7.5 11t-7.5 11l85 76l85 76h43l70.5 -75l70.5 -76l-22 -24z" />
    <glyph glyph-name="commaaccent" unicode="&#xf6c3;" horiz-adv-x="666" 
d="M357 -49q22 0 35.5 -15t13.5 -42q0 -38 -30 -77.5t-82 -65.5l-8 19q23 17 33 35t18 38q-17 3 -27.5 16t-10.5 30q0 26 17.5 44t40.5 18z" />
    <glyph glyph-name="Acute" unicode="&#xf6c9;" horiz-adv-x="658" 
d="M547 884l15.5 -32l15.5 -32l-95.5 -45.5l-94.5 -45.5l-18 33z" />
    <glyph glyph-name="Caron" unicode="&#xf6ca;" horiz-adv-x="658" 
d="M581 905q5 -5 8 -11.5t7 -11.5l-172 -151h-43l-138 151l21 23q35 -24 73 -53l73 -56z" />
    <glyph glyph-name="Dieresis" unicode="&#xf6cb;" horiz-adv-x="658" 
d="M318 845q18 0 29 -12t11 -29q0 -23 -14.5 -38.5t-35.5 -15.5q-17 0 -28.5 12t-11.5 31q0 21 15 36.5t35 15.5zM504 845q17 0 28.5 -12t11.5 -29q0 -23 -15 -38.5t-35 -15.5q-17 0 -28.5 12t-11.5 31q0 21 15 36.5t35 15.5z" />
    <glyph glyph-name="DieresisAcute" unicode="&#xf6cc;" horiz-adv-x="658" 
d="M503 938l23 -26.5t22 -26.5l-85.5 -66.5l-84.5 -67.5q-6 8 -12.5 14t-12.5 14zM296 845q17 0 29 -12t12 -29q0 -23 -15.5 -38.5t-35.5 -15.5q-17 0 -28.5 12t-11.5 31q0 21 15 36.5t35 15.5zM558 845q17 0 28.5 -12t11.5 -29q0 -23 -15 -38.5t-35 -15.5q-17 0 -28.5 12
t-11.5 31q0 21 15.5 36.5t34.5 15.5z" />
    <glyph glyph-name="DieresisGrave" unicode="&#xf6cd;" horiz-adv-x="658" 
d="M487 779l-30 -29l-71.5 67.5l-72.5 66.5q14 14 28.5 27t28.5 27zM296 845q17 0 29 -12t12 -29q0 -23 -15.5 -38.5t-35.5 -15.5q-17 0 -28.5 12t-11.5 31q0 21 15 36.5t35 15.5zM558 845q17 0 28.5 -12t11.5 -29q0 -23 -15 -38.5t-35 -15.5q-17 0 -28.5 12t-11.5 31
q0 21 15.5 36.5t34.5 15.5z" />
    <glyph glyph-name="Grave" unicode="&#xf6ce;" horiz-adv-x="658" 
d="M470 762l-24 -33l-85.5 45.5l-86.5 45.5l22.5 32l22.5 32z" />
    <glyph glyph-name="Hungarumlaut" unicode="&#xf6cf;" horiz-adv-x="658" 
d="M604 891q10 -15 18 -29.5t18 -29.5l-182 -111l-21 31zM464 891q10 -15 18 -29.5t18 -29.5l-182 -111l-20 31z" />
    <glyph glyph-name="Macron" unicode="&#xf6d0;" horiz-adv-x="658" 
d="M569 819l-6 -62h-295l6 62h295z" />
    <glyph glyph-name="cyrBreve" unicode="&#xf6d1;" horiz-adv-x="658" 
d="M277 853l26 15l25 15q17 -35 42.5 -58.5t45.5 -23.5q8 0 19.5 2.5t27 10t35 22t44.5 37.5l11.5 -11l11.5 -11q-45 -58 -86.5 -80.5t-74.5 -22.5q-21 0 -40.5 8.5t-36 22t-30 30t-22.5 32.5z" />
    <glyph glyph-name="cyrbreve" unicode="&#xf6d4;" horiz-adv-x="534" 
d="M152 662l51 30q17 -34 42 -58.5t45 -24.5q8 0 19.5 2.5t27.5 10.5t35.5 22.5t44.5 37.5l22 -21q-45 -57 -86.5 -80.5t-74.5 -23.5q-21 0 -40.5 8.5t-36 22t-29 30t-21.5 32.5z" />
    <glyph glyph-name="uniF6D9" unicode="&#xf6d9;" horiz-adv-x="869" 
d="M737 -10q-33 0 -44 14t-11 37q0 17 7.5 65l17.5 108l21 123.5t18 112.5q2 11 3.5 14t11.5 5q14 4 27 6.5t27 7.5q8 -2 10 -9l-21.5 -115t-17.5 -103l-15.5 -100t-14.5 -104q38 1 90 29l18 -18q-11 -12 -25 -25t-30.5 -23.5t-34.5 -17.5t-37 -7z" />
    <glyph glyph-name="uniF6DA" unicode="&#xf6da;" horiz-adv-x="547" 
d="M387 562l-15 -11l-15 -11l-76.5 95.5t-77.5 95.5l30.5 23.5l29.5 23.5z" />
    <glyph glyph-name="uniF6DB" unicode="&#xf6db;" horiz-adv-x="547" 
d="M459 778l56 -54l-99 -94l-98 -94q-8 7 -14 13t-14 13z" />
    <glyph glyph-name="uniF6DC" unicode="&#xf6dc;" horiz-adv-x="532" 
d="M503 653q-17 -35 -43.5 -59.5t-66.5 -24.5q-25 0 -43.5 4.5t-34 10t-31 10t-34.5 4.5q-22 0 -45 -8t-43 -37l-20 8q6 15 17 32t26 32t34 24.5t43 9.5q19 0 36.5 -5t34.5 -11t33.5 -11t33.5 -5q23 0 42.5 6t39.5 32z" />
    <glyph glyph-name="upwards.wideheaded.arrow" unicode="&#xe378;" horiz-adv-x="632" 
d="M606 256l-236 236v-492h-107v491l-235 -236v149l288 288l288 -289z" />
    <glyph glyph-name="downwards.wideheaded.arrow" unicode="&#xe379;" horiz-adv-x="632" 
d="M604 289l-288 -289l-288 288v149l235 -236v491h107v-492l236 236z" />
    <glyph glyph-name="leftwards.wideheaded.arrow" unicode="&#xe37a;" horiz-adv-x="736" 
d="M310 59l-289 288l288 288h149l-236 -235h491v-107h-492l236 -236z" />
    <glyph glyph-name="forwardright.wideheaded.arrow" unicode="&#xe37b;" horiz-adv-x="588" 
d="M480 92v344l-357 -359l-79 79l359 356h-345l109 109h419v-420z" />
    <glyph glyph-name="forwardleft.wideheadedarrow" unicode="&#xe37c;" horiz-adv-x="588" 
d="M44 201v420h419l109 -109h-345l359 -356l-79 -79l-357 359v-344z" />
    <glyph glyph-name="reverse" unicode="&#xe37d;" horiz-adv-x="898" 
d="M811 -2l-350 351l350 351v-702zM432 -2l-351 351l351 351v-702z" />
    <glyph glyph-name="fastforward" unicode="&#xe37e;" horiz-adv-x="898" 
d="M121 701l350 -351l-350 -351v702zM501 701l350 -351l-350 -351v702z" />
    <glyph glyph-name="one.back" unicode="&#xe37f;" horiz-adv-x="1000" 
d="M890 -3l-348 351l348 351v-702zM513 -3l-349 351l349 351v-702zM149 -3h-70v702h70v-702z" />
    <glyph glyph-name="one.forward" unicode="&#xe380;" horiz-adv-x="1000" 
d="M908 -4h-69v702h69v-702zM825 347l-351 -351v702zM447 347l-351 -351v702z" />
    <glyph glyph-name="pause" unicode="&#xe381;" horiz-adv-x="742" 
d="M580 0h-140v702h140v-702zM298 0h-139v702h139v-702z" />
    <glyph glyph-name="mute" unicode="&#xe382;" horiz-adv-x="506" 
d="M417 -3l-230 228h-123v241h123l230 228v-697z" />
    <glyph glyph-name="lowervolume" unicode="&#xe383;" horiz-adv-x="713" 
d="M586 582q45 -43 67 -106t22 -129q0 -67 -23 -128t-71 -103q-10 -8 -19 -8q-13 0 -23 11t-10 25q0 13 12 22q35 26 51.5 75t16.5 104q0 56 -17 108.5t-49 81.5q-11 10 -11 23t10 23.5t23 10.5q11 0 21 -10zM187 225h-123v240h123l229 227v-695z" />
    <glyph glyph-name="volume" unicode="&#xe384;" horiz-adv-x="926" 
d="M569 591q51 -48 76.5 -114t25.5 -137q0 -69 -26 -132.5t-80 -107.5q-11 -9 -23 -9q-15 0 -26 11.5t-11 26.5q0 14 14 24q40 27 58.5 79.5t18.5 110.5q0 29 -4.5 58t-14 55t-24 47.5t-34.5 36.5q-11 10 -11 23q0 14 11.5 26t26.5 12q13 0 23 -10zM186 225h-122v240h122
l230 229v-697zM693 694q73 -68 111 -163t38 -195q0 -50 -9.5 -98t-29 -92t-48 -83t-67.5 -69q-11 -9 -22 -9q-14 0 -25.5 10.5t-11.5 24.5q0 15 14 26q31 23 54.5 55t39.5 70t23.5 81t7.5 88q0 44 -7.5 87.5t-23 84t-39 75t-55.5 60.5q-6 5 -8.5 11.5t-2.5 12.5q0 14 11 24
t26 10q13 0 24 -11z" />
    <glyph glyph-name="increasevolume" unicode="&#xe385;" horiz-adv-x="1092" 
d="M608 607q51 -51 76.5 -122t25.5 -146q0 -74 -26 -142t-80 -115q-11 -9 -22 -9q-15 0 -26 12.5t-11 26.5q0 16 14 26q19 15 33.5 37t24.5 48.5t14.5 57t4.5 61.5t-4.5 62t-14.5 58.5t-24.5 51t-33.5 39.5q-11 10 -11 25t11.5 27t26.5 12q12 0 22 -10zM186 225h-122v240
h122l230 229v-697zM732 718q37 -37 64.5 -81.5t46 -94t28 -102t9.5 -105.5t-9.5 -104.5t-28.5 -99t-47.5 -89t-67.5 -74.5q-11 -9 -22 -9q-14 0 -25 12t-11 26q0 15 13 27q31 24 54.5 58.5t39 75.5t23.5 87t8 94q0 47 -7.5 93.5t-23.5 89t-39.5 80t-54.5 65.5q-11 10 -11 25
q0 14 11 25.5t26 11.5q13 0 24 -11zM855 824q48 -47 84 -104t60.5 -121t36.5 -132t12 -136t-12 -135t-37 -128t-62 -114t-86 -95q-11 -9 -21 -9q-14 0 -25 12.5t-11 28.5q0 15 11 26q42 33 73.5 79t53 101t32 115.5t10.5 123.5q0 61 -10.5 122.5t-31.5 118.5t-53 106.5
t-74 88.5q-11 13 -11 25q0 15 11.5 26.5t25.5 11.5t24 -11z" />
    <glyph glyph-name="power" unicode="&#xe386;" horiz-adv-x="836" 
d="M789 361q0 -76 -29 -143t-79 -116.5t-116.5 -78.5t-142.5 -29q-77 0 -144 29t-116.5 78.5t-78.5 116.5t-29 143q0 45 10.5 84t27.5 71t37 56t40 39q13 9 31 10.5t31 -9.5q14 -14 16 -31.5t-12 -31.5l-28 -28t-29.5 -38.5t-23 -51.5t-9.5 -67q0 -60 21.5 -112t59 -90.5
t88 -61t108.5 -22.5q57 0 107.5 22.5t87.5 61t58.5 90.5t21.5 112q0 33 -6.5 59t-17 47.5t-23 38l-23.5 30.5l-7 9q-12 15 -12 31q0 18 15 33q14 13 30.5 11t30.5 -12q18 -16 37 -39t34 -54.5t24.5 -70.5t9.5 -86zM425 760q18 0 31 -13t13 -31v-318q0 -18 -13 -31t-31 -13
q-19 0 -31.5 12.5t-12.5 31.5v318q0 18 12.5 31t31.5 13z" />
    <glyph glyph-name="telephoneline" unicode="&#xe387;" horiz-adv-x="802" 
d="M753 570l-116 115l23 23l115 -115zM655 533q0 -22 -15 -37t-36 -15q-22 0 -37 15t-15 37q0 21 15 36t37 15q21 0 36 -15t15 -36zM548 359l-115 114l23 24l116 -115zM446 323q0 -21 -14.5 -36t-36.5 -15q-21 0 -36 15t-15 36q0 22 15 37t36 15q22 0 36.5 -15t14.5 -37z
M661 131q-2 -14 -11.5 -35t-26 -42t-40.5 -40t-55 -29q-63 17 -121.5 51.5t-110 77.5t-94.5 90.5t-74.5 92t-51 81t-22.5 58.5q10 31 28.5 55.5t39.5 41.5t41 26t35 11q11 -6 27.5 -20.5t32.5 -34t28.5 -44.5t15.5 -52q-14 -21 -36 -35t-40 -22q3 -9 26.5 -39t57.5 -64.5
t72 -64.5t70 -38q8 19 21.5 40.5t35.5 36.5q21 -1 45.5 -11.5t46 -26t38 -32.5t22.5 -32z" />
    <glyph glyph-name="networkline" unicode="&#xe388;" horiz-adv-x="1035" 
d="M766 252q0 -28 -20 -47t-47 -19q-26 0 -46 19t-20 47t20 47t46 19q27 0 47 -19t20 -47zM583 252q0 -28 -19 -47t-47 -19t-47.5 19t-19.5 47t19.5 47t47.5 19t47 -19t19 -47zM400 252q0 -28 -19.5 -47t-47.5 -19t-47 19t-19 47t19 47t47 19t47.5 -19t19.5 -47zM757 0
l-52 52l202 201l-196 194l52 52l247 -246zM278 0l-253 253l247 246l52 -52l-195 -194l201 -201z" />
    <glyph glyph-name="information" unicode="&#xe389;" horiz-adv-x="854" 
d="M784 352q0 -75 -28.5 -140t-77.5 -114t-114.5 -77t-138.5 -28t-138.5 28t-114.5 77t-77.5 114t-28.5 140t28.5 140t77.5 114t114.5 77t138.5 28t138.5 -28t114.5 -77t77.5 -114t28.5 -140zM724 352q0 61 -23.5 116t-64 96t-95 65t-116.5 24t-116.5 -24t-95.5 -65t-65 -96
t-24 -116q0 -62 24 -116.5t65 -96t95.5 -65.5t116.5 -24q61 0 115.5 24t95.5 65t64.5 96t23.5 117zM499 537q0 -29 -22.5 -49t-51.5 -20q-30 0 -52 20t-22 49t22 49t52 20q29 0 51.5 -20t22.5 -49zM485 84h-120v343h120v-343z" />
    <glyph glyph-name="cursor.arrow.upright" unicode="&#xe38a;" horiz-adv-x="870" 
d="M800 599l-46 -16l12 -41l-46 -16l12 -42l-46 -16l12 -41l-46 -17l13 -42l-46 -16l12 -41l-46 -17l12 -41l-47 -16l13 -42l-46 -17l12 -41l-46 -16l13 -42l-43 -15l-46 154l-46 -17l13 -42l-88 -30l12 -42l-89 -31l13 -42l-93 -33l-11 42l-39 -14l-30 100l39 14l-13 41
l88 31l-11 42l88 31l-13 42l89 31l-11 37l-46 -16l-13 41l-46 -16l-12 41l-38 -13l-14 46l680 242l13 -46l-42 -15z" />
    <glyph glyph-name="cursor.arrow.upleft" unicode="&#xe38b;" horiz-adv-x="870" 
d="M91 642l-42 15l13 46l680 -242l-14 -46l-38 13l-12 -41l-46 16l-13 -41l-46 16l-11 -37l89 -31l-13 -42l88 -31l-11 -42l88 -31l-13 -41l39 -14l-30 -100l-39 14l-11 -42l-93 33l13 42l-89 31l12 42l-88 30l13 42l-46 17l-46 -154l-43 15l13 42l-46 16l12 41l-46 17
l13 42l-47 16l12 41l-46 17l12 41l-46 16l13 42l-46 17l12 41l-46 16l12 42l-46 16l12 41l-46 16z" />
    <glyph glyph-name="cursoroutline.arrow.upright" unicode="&#xe38c;" horiz-adv-x="870" 
d="M800 597l-46 -16l12 -41l-46 -16l12 -42l-46 -16l12 -41l-46 -17l13 -42l-46 -16l12 -41l-46 -17l12 -41l-47 -16l13 -42l-46 -17l12 -41l-46 -16l13 -42l-43 -15l-46 154l-46 -17l13 -42l-88 -30l12 -42l-89 -31l13 -42l-93 -33l-11 42l-39 -14l-30 100l39 14l-13 41
l88 31l-11 42l88 31l-13 42l89 31l-11 37l-46 -16l-13 41l-46 -16l-12 41l-38 -13l-14 46l680 242l13 -46l-42 -15zM238 444l11 -37l46 17l12 -42l46 17l14 -46l-46 -17l13 -41l-89 -31l12 -42l-88 -31l12 -42l-88 -31l27 -91l84 30l-12 41l88 31l-12 42l88 31l-12 42l92 32
l33 -111l43 15l-13 41l46 16l-12 42l46 16l-12 41l46 17l-12 41l46 16l-12 42l46 17l-13 41l46 16l-11 42l45 16l-11 39z" />
    <glyph glyph-name="cursoroutline.arrow.upleft" unicode="&#xe38d;" horiz-adv-x="870" 
d="M91 640l-42 15l13 46l680 -242l-14 -46l-38 13l-12 -41l-46 16l-13 -41l-46 16l-11 -37l89 -31l-13 -42l88 -31l-11 -42l88 -31l-13 -41l39 -14l-30 -100l-39 14l-11 -42l-93 33l13 42l-89 31l12 42l-88 30l13 42l-46 17l-46 -154l-43 15l13 42l-46 16l12 41l-46 17
l13 42l-47 16l12 41l-46 17l12 41l-46 16l13 42l-46 17l12 41l-46 16l12 42l-46 16l12 41l-46 16zM141 623l-11 -39l45 -16l-11 -42l46 -16l-13 -41l46 -17l-12 -42l46 -16l-12 -41l46 -17l-12 -41l46 -16l-12 -42l46 -16l-13 -41l43 -15l33 111l92 -32l-12 -42l88 -31
l-12 -42l88 -31l-12 -41l84 -30l27 91l-88 31l12 42l-88 31l12 42l-89 31l13 41l-46 17l14 46l46 -17l12 42l46 -17l11 37z" />
    <glyph glyph-name="ship" unicode="&#xe38e;" horiz-adv-x="770" 
d="M434 7q-24 -11 -47 -11q-12 0 -25 3.5t-25.5 7.5l-24.5 7.5t-21 3.5t-19.5 -4l-21.5 -8.5t-22.5 -8t-22.5 -3.5t-23.5 3.5t-25 7.5t-25 7.5t-22.5 3.5q-15 0 -24.5 -3.5t-18.5 -7.5t-19 -7.5t-24 -3.5v69q21 0 33 5q6 3 10 6q19 12 41 12q10 0 21 -4l22.5 -8.5t23.5 -8
t26 -3.5q27 0 49.5 11t41.5 11q9 0 19.5 -3.5l22.5 -7.5t25 -7.5t25 -3.5q26 0 50 11t43 11t41.5 -11t48.5 -11q14 0 27 3.5t24.5 8l22 8.5t20.5 4q21 0 41 -12q4 -3 10 -6q12 -5 33 -5v-69q-15 0 -25 3.5t-19 7.5t-18.5 7.5t-23.5 3.5q-10 0 -22 -3.5l-24.5 -7.5
l-24.5 -7.5t-22 -3.5q-12 0 -23.5 3.5t-23 8l-22 8.5t-19.5 4q-8 0 -18.5 -3t-24.5 -8zM434 108q-14 -7 -26 -9.5t-23 -2.5t-21 3.5t-20.5 8t-23 8t-28.5 3.5q-11 0 -21.5 -3.5t-22 -8t-23 -8t-23.5 -3.5q-11 0 -23 3.5t-24 7.5t-24.5 7.5t-22.5 3.5q-15 0 -25 -3t-19 -7
t-18.5 -7.5t-22.5 -4.5v67q10 0 18.5 1t13.5 3q6 2 11 4q14 8 25.5 10.5t21.5 2.5q23 0 44.5 -8.5t38.5 -8.5v159l-45 112q-2 5 -3 9t-1 8q0 16 15 21l35 14v97h47v52h90v68h99v-68h91v-52h47v-97l34 -14q16 -7 16 -21q0 -4 -1 -8t-3 -9l-45 -112v-159q17 0 38.5 9.5
t44.5 9.5q10 0 21 -2.5t25 -10.5q5 -2 11 -4q5 -2 13 -3.5t19 -2.5v-67q-14 1 -23 4.5t-18 7.5t-19 7t-25 3q-11 0 -22.5 -3.5l-24 -7.5l-24.5 -7.5t-23 -3.5q-12 0 -23.5 3.5t-23 8t-22.5 8t-21 3.5q-20 0 -41 -11zM287 598v-49h-47v-40l144 59l144 -59v40h-47v49h-194z
" />
    <glyph glyph-name="train" unicode="&#xe38f;" horiz-adv-x="628" 
d="M233 107l-72 -107h-62l107 156q-29 5 -51 28.5t-22 58.5v322q0 36 25.5 63t64.5 27h225q39 0 65 -27t26 -63v-322q0 -17 -6 -32t-16 -26t-22.5 -18.5t-25.5 -10.5l104 -156h-58l-77 107h-205zM302 666q-10 0 -17 6.5t-7 17.5t7 17.5t17 6.5q11 0 18 -6.5t7 -17.5
t-7 -17.5t-18 -6.5zM372 666q-13 0 -20.5 6.5t-7.5 17.5t7.5 17.5t20.5 6.5q10 0 17 -6.5t7 -17.5t-7 -17.5t-17 -6.5zM448 205q19 0 30 11t11 27t-11 29t-30 13q-16 0 -26.5 -13t-10.5 -29t10.5 -27t26.5 -11zM445 413q44 0 44 45v59q0 18 -10.5 31.5t-33.5 13.5h-218
q-22 0 -33.5 -13.5t-11.5 -31.5v-59q0 -22 13.5 -33.5t31.5 -11.5h218zM382 579q6 0 10 6t4 11v25q0 5 -4 9t-10 4h-90q-5 0 -9.5 -4t-4.5 -9v-25q0 -5 4.5 -11t9.5 -6h90zM223 205q16 0 29 11t13 27t-13 29t-29 13q-15 0 -26.5 -13t-11.5 -29t11.5 -27t26.5 -11z" />
    <glyph glyph-name="bus" unicode="&#xe390;" horiz-adv-x="674" 
d="M343 660q49 0 91 -6.5t74 -18.5t51.5 -30t22.5 -41l28 -202v-277h-45v-41q0 -21 -12.5 -31.5t-26.5 -10.5q-16 0 -28.5 10.5t-12.5 31.5v41h-291v-41q0 -21 -12.5 -31.5t-27.5 -10.5t-27.5 10.5t-12.5 31.5v41h-45v277l28 202q3 23 23.5 41t53 30t76 18.5t93.5 6.5z
M523 172q16 0 27.5 11t11.5 27t-11.5 27.5t-27.5 11.5q-13 0 -24 -11.5t-11 -27.5t11 -27t24 -11zM156 172q13 0 24 11t11 27t-11 27.5t-24 11.5q-16 0 -27 -11.5t-11 -27.5t11 -27t27 -11zM450 578q8 0 12 5.5t4 11.5q0 7 -4 12t-12 5h-221q-8 0 -11.5 -5t-3.5 -12
q0 -6 3.5 -11.5t11.5 -5.5h221zM170 546q-17 0 -23 -9t-8 -21l-21 -146q0 -11 4 -19.5t17 -8.5h402q13 0 17 8.5t4 19.5l-21 146q-2 12 -8.5 21t-23.5 9h-339z" />
    <glyph glyph-name="taxi" unicode="&#xe391;" horiz-adv-x="701" 
d="M177 92v-48q0 -23 -13 -34.5t-29 -11.5q-17 0 -30.5 11.5t-13.5 34.5v48h-48v157q0 16 5.5 28.5t14 21t17.5 13t15 6.5l48 121q8 18 24 31.5t42 13.5h69v32q0 20 21 20h80q17 0 17 -20v-32h69q26 0 42 -13.5t21 -31.5l48 -121q8 -2 17.5 -6.5t18 -13t14.5 -21t6 -28.5
v-157h-48v-48q0 -23 -13.5 -34.5t-29.5 -11.5q-17 0 -30.5 11.5t-13.5 34.5v48h-320zM528 321l-31 94q-9 24 -32 24h-256q-13 0 -18 -6.5t-9 -17.5l-35 -94h381zM137 189q16 0 26.5 12t10.5 30t-10.5 30t-26.5 12q-19 0 -30.5 -12t-11.5 -30t11.5 -30t30.5 -12zM539 189
q18 0 29.5 12t11.5 30t-11.5 30t-29.5 12q-16 0 -29 -12t-13 -30t13 -30t29 -12z" />
    <glyph glyph-name="baggage" unicode="&#xe392;" horiz-adv-x="790" 
d="M237 429h84v63q0 19 13 28.5t33 9.5h93q15 0 28 -9.5t13 -28.5v-63h87v-429h-351v429zM203 0h-44q-26 0 -46 17t-20 49v302q0 26 20 43.5t46 17.5h44v-429zM471 429v67h-119v-67h119zM619 429h49q26 0 44 -17.5t18 -43.5v-302q0 -32 -19.5 -49t-42.5 -17h-49v429z" />
    <glyph glyph-name="restaurant" unicode="&#xe393;" horiz-adv-x="592" 
d="M299 482q0 -16 -14 -32t-34 -16v-392q0 -21 -12 -31.5t-27 -10.5q-14 0 -26 10.5t-12 31.5v392q-18 0 -33 14t-15 37v219q0 6 4 9t9 3q14 0 14 -16v-159h21v163q0 7 4.5 9.5t9.5 2.5t10 -2.5t5 -9.5v-163h24v163q0 12 11 12q5 0 9 -3.5t4 -12.5v-159h24v163q0 12 12 12
q4 0 8 -3.5t4 -12.5v-218zM504 42q0 -20 -12 -30.5t-26 -10.5t-26.5 10.5t-12.5 30.5v243h-42v366q0 33 19 49t41 16q23 0 41 -16t18 -49v-609z" />
    <glyph glyph-name="coffeeshop" unicode="&#xe394;" horiz-adv-x="880" 
d="M838 86q0 -41 -24 -63.5t-54 -22.5h-638q-14 0 -28.5 5.5t-26.5 16t-19.5 27t-7.5 37.5h798zM682 494q35 0 61 -11.5t43.5 -31t26 -46t8.5 -55.5q0 -28 -11 -54t-31 -46.5t-48 -32.5t-62 -12v-24q0 -27 -20 -50.5t-54 -23.5h-308q-29 0 -52 21.5t-23 52.5v313h470z
M768 350q0 11 -4 26t-14 28.5t-25.5 23t-38.5 9.5h-17v-169h10q45 0 67 24.5t22 57.5z" />
    <glyph glyph-name="drink" unicode="&#xe395;" horiz-adv-x="720" 
d="M39 633h630l-275 -339v-215h151q20 0 29.5 -11.5t9.5 -27.5q0 -14 -9.5 -27t-29.5 -13h-377q-20 0 -29.5 13t-9.5 27q0 16 9.5 27.5t29.5 11.5h150v215zM400 377q17 0 32 15.5t15 32.5q0 21 -15 36t-32 15q-22 0 -37.5 -15t-15.5 -36q0 -17 15.5 -32.5t37.5 -15.5z" />
    <glyph glyph-name="toilets" unicode="&#xe396;" horiz-adv-x="880" 
d="M504 689v-689h-64v689h64zM235 584q-23 0 -39.5 16t-16.5 40t16.5 40t39.5 16q25 0 41.5 -16t16.5 -40t-16.5 -40t-41.5 -16zM228 224v-200q0 -13 -8 -19.5t-18 -6.5t-18 6.5t-8 19.5v200h-74l77 264h-12l-44 -151q-2 -11 -9 -15t-15 -4q-9 0 -17 7t-8 19q0 2 0.5 4
t0.5 4l53 164q2 6 5.5 15t11.5 17.5t21.5 14.5t35.5 6h66q22 0 36 -6t22.5 -14.5t12 -17.5t4.5 -15l52 -164q1 -3 1 -8q0 -12 -6.5 -19t-17.5 -7q-7 0 -13.5 4t-10.5 15l-44 151h-11l74 -264h-71v-200q0 -13 -8 -19.5t-17 -6.5q-11 0 -19 6.5t-8 19.5v200h-16zM750 569
q25 0 41 -7t25 -18t12.5 -24.5t3.5 -27.5v-175q0 -13 -7 -18.5t-18 -5.5q-9 0 -16.5 5.5t-7.5 18.5v160h-11v-446q0 -16 -10 -24t-22 -8t-22 8t-10 24v269h-12v-269q0 -16 -10.5 -24t-23.5 -8q-12 0 -23 8t-11 24v446h-8v-160q0 -13 -8.5 -18.5t-16.5 -5.5q-11 0 -19 5.5
t-8 18.5v175q0 30 19 53.5t63 23.5h100zM700 584q-23 0 -39 16t-16 40t16 40t39 16q25 0 40.5 -16t15.5 -40t-15.5 -40t-40.5 -16z" />
    <glyph glyph-name="fire.extinguisher" unicode="&#xe397;" horiz-adv-x="543" 
d="M191 580q-27 -2 -48.5 -12.5t-36.5 -27t-24.5 -37t-13.5 -41.5l-32 8q12 57 44.5 90.5t67.5 42.5q-6 4 -11.5 13.5t-5.5 21.5q0 25 17 39.5t37 14.5q22 0 35.5 -14t13.5 -28h22v-30h83v20l156 39v-151l-156 33v17h-83v-29q9 -1 23 -8.5t27.5 -21.5t23 -34.5t9.5 -47.5
v-409q0 -8 -5 -18t-21 -10h-182q-14 0 -19 10t-5 18v409q0 27 10 47.5t23.5 34.5t28 21.5t22.5 8.5v31z" />
    <glyph glyph-name="nosmoking" unicode="&#xe398;" horiz-adv-x="842" 
d="M415 721q75 0 142 -29t116.5 -78.5t78.5 -116t29 -141.5q0 -76 -29 -142.5t-78.5 -116t-116.5 -78t-142 -28.5q-76 0 -142.5 28.5t-116 78t-78.5 116t-29 142.5q0 75 29 141.5t78.5 116t116 78.5t142.5 29zM122 356q0 -61 23 -114.5t62.5 -93t93 -62.5t114.5 -23
q50 0 96 16t84 47l-410 411q-63 -80 -63 -181zM709 356q0 61 -23 114.5t-63 93.5t-93.5 63.5t-114.5 23.5q-48 0 -93 -16.5t-83 -44.5l411 -409q26 37 42.5 82.5t16.5 92.5zM565 285l-66 65h87v-65h-21zM352 350l65 -65h-240v65h175zM428 583q-7 -13 -7.5 -26.5t4 -24.5
t13 -18t20.5 -7q22 0 22 -9q0 -5 -4 -9.5t-4 -16.5q0 -11 7 -21t22 -10h60q27 0 43 -14.5t16 -39.5v-27h-22v27q0 20 -12 26.5t-25 6.5h-60q-23 0 -36.5 15t-13.5 34v8.5t1 8.5q-19 2 -34.5 14t-24.5 28.5t-10.5 34.5t6.5 32zM531 525q0 21 -15 37.5t-38 16.5v21
q33 0 54 -21.5t21 -53.5q0 -7 -2.5 -16t-7.5 -16h20q42 0 66 -27.5t24 -69.5v-36h-21v36q0 29 -17.5 52.5t-51.5 23.5h-36q-11 0 -11 9q0 7 7.5 15.5t7.5 28.5zM598 351h22v-66h-22v66zM633 351h20v-66h-20v66z" />
    <glyph glyph-name="escalator.up" unicode="&#xe399;" horiz-adv-x="983" 
d="M848 630q19 0 38 -8t33.5 -22.5t23.5 -35.5t9 -46t-10 -46.5t-25 -38t-33 -26t-33 -9.5h-86q-10 0 -15 -1t-10 -6l-353 -351q-23 -23 -47 -30.5t-45 -7.5h-124q-27 0 -48 11t-35 28t-21.5 37.5t-7.5 40.5q0 19 7.5 39t21 36.5t33.5 26.5t46 10h56q33 0 44 12l101 99v152
q0 31 18 46t40 15q20 0 38 -15t18 -46v-37l142 139q16 17 41.5 25.5t46.5 8.5h136zM719 572q-20 0 -32 -2t-24 -14l-364 -366q-9 -9 -21 -14t-30 -5h-81q-18 0 -34.5 -12.5t-16.5 -39.5q0 -23 17 -42t38 -19h121q18 0 30.5 6t24.5 14l356 361q16 12 28 16t37 4h77
q13 0 22 6.5t14.5 16t8 19.5t2.5 17t-2.5 16.5t-8 18t-14.5 14t-22 5.5h-126zM729 27v98l-131 -131l-38 38l132 130h-98l52 51h133v-134zM363 630q0 25 17.5 43t42.5 18t43 -18t18 -43t-18 -43t-43 -18t-42.5 18t-17.5 43z" />
    <glyph glyph-name="escalator.down" unicode="&#xe39a;" horiz-adv-x="983" 
d="M835 630q20 0 39 -8t34 -22.5t24 -35.5t9 -46t-10.5 -46.5t-25.5 -38t-33 -26t-33 -9.5h-87q-9 0 -14 -1t-10 -6l-354 -351q-23 -23 -46 -30.5t-45 -7.5h-123q-27 0 -48 11t-35.5 28t-22 37.5t-7.5 40.5q0 19 7.5 39t21.5 36.5t34 26.5t45 10h56q32 0 44 12l103 101v152
q0 31 18 46t41 15q21 0 39 -15t18 -46v-37l137 137q15 17 41.5 25.5t47.5 8.5h135zM703 572q-19 0 -30 -2t-22 -14l-364 -366q-9 -9 -21 -14t-31 -5h-80q-18 0 -35.5 -12.5t-17.5 -39.5q0 -12 5 -23t13 -19.5t18.5 -13.5t21.5 -5h119q19 0 31.5 6t25.5 14l356 361
q15 12 27 16t37 4h76q13 0 22.5 6.5t14.5 16t7.5 19.5t2.5 17t-3.5 16.5t-10 18t-15 14t-18.5 5.5h-129zM600 184v-98l131 131l38 -38l-132 -130h98l-52 -51h-133v134zM355 630q0 25 17.5 43t42.5 18t43 -18t18 -43t-18 -43t-43 -18t-42.5 18t-17.5 43z" />
    <glyph glyph-name="stairs.up" unicode="&#xe39b;" horiz-adv-x="874" 
d="M55 74h145v139h137v146h144v144h141v138h206v-70h-139v-145h-140v-141h-140v-143h-141v-141h-213v73zM661 32v98l-131 -131l-38 38l132 130h-98l52 51h133v-134z" />
    <glyph glyph-name="stairs.down" unicode="&#xe39c;" horiz-adv-x="869" 
d="M55 74h145v139h137v146h144v144h141v138h206v-70h-139v-145h-140v-141h-140v-143h-141v-141h-213v73zM544 184v-98l131 131l38 -38l-132 -130h98l-52 -51h-133v134z" />
    <glyph glyph-name="wheelchair" unicode="&#xe39d;" horiz-adv-x="715" 
d="M507 114q-31 -55 -85.5 -88.5t-121.5 -33.5q-50 0 -93.5 18.5t-75.5 50.5t-50.5 75t-18.5 93q0 72 38 129t100 86l8 -61q-42 -24 -65 -65t-23 -89q0 -37 14.5 -69.5t39 -57t57 -38.5t69.5 -14q30 0 58 10t51 27.5t40 41.5t26 53zM480 362q26 0 36 -8t19 -23l59 -142l15 6
q11 5 22 3t18 -15q5 -9 4 -20.5t-18 -18.5l-58 -23q-14 -5 -27 -4t-21 20l-57 130h-163q-34 0 -48.5 20t-20.5 61l-18 142q-2 16 2.5 28t12 20t17 12t18.5 5q25 2 42 -10t21 -38l7 -55h116q19 0 25 -10.5t6 -12.5q0 -11 -6.5 -21.5t-28.5 -10.5h-105l5 -35h126zM207 630
q0 26 17 44t43 18t44 -18t18 -44t-18 -44t-44 -18t-43 18t-17 44z" />
    <glyph glyph-name="fragile" unicode="&#xe39e;" horiz-adv-x="769" 
d="M506 695l-74 -100l34 -63l-65 -116l131 116l-28 59l101 104h140q-1 -65 -23.5 -123t-62 -103t-93 -75.5t-114.5 -40.5v-272l183 -54v-27h-471v27l187 54v271q-63 9 -117 38.5t-94 75t-62.5 104t-22.5 125.5h451z" />
    <glyph glyph-name="thissideup" unicode="&#xe39f;" horiz-adv-x="660" 
d="M212 108h-81v400h-95l137 202l126 -202h-87v-400zM522 108h-81v400h-95l135 202l126 -202h-85v-400zM33 74h575v-74h-575v74z" />
    <glyph glyph-name="greendot" unicode="&#xe3a0;" horiz-adv-x="822" 
d="M46 357q0 70 28.5 134t77 113.5t112 79t132.5 29.5q76 0 143 -26.5t117.5 -74t80 -114t29.5 -145.5q0 -80 -29.5 -146.5t-79.5 -114t-116.5 -74t-140.5 -26.5q-77 0 -142 30t-112 80.5t-73.5 116.5t-26.5 138zM228 218q14 45 37 76t49.5 51t52 30.5t43.5 14.5
q-1 -5 -1.5 -11t-0.5 -14q0 -13 1.5 -27.5t5.5 -27.5q35 15 66 39t55 49.5t40.5 50.5t21.5 42q-12 30 -32 59.5t-45.5 53t-54.5 39t-59 17.5q3 -12 3 -34q0 -11 -0.5 -21.5t-2.5 -23.5q-83 -6 -147 -39q-27 -14 -53.5 -35t-47 -51.5t-33 -71t-12.5 -92.5q0 -77 26.5 -131.5
t68 -89t92.5 -51t99 -16.5q70 0 133.5 26t112 72t77.5 108.5t29 136.5q0 58 -17 112t-47.5 98.5t-74 77t-96.5 49.5q66 -26 103.5 -64.5t56.5 -78t24 -74t5 -52.5q0 -56 -13 -99t-34.5 -75t-51 -55t-62 -38t-67.5 -24t-68 -13q-2 -9 -3 -18.5t-1 -18.5q0 -12 1 -21.5
t3 -15.5q-54 18 -89 46.5t-55 57t-28.5 50.5t-9.5 27z" />
    <glyph glyph-name="flammable" unicode="&#xe3a1;" horiz-adv-x="834" 
d="M66 0v698h706v-698h-706zM384 580q0 -16 -2.5 -30.5t-6.5 -14.5q-3 0 -8 4.5t-9.5 9.5l-8.5 9.5t-6 4.5q-5 0 -13 -2q5 -11 6.5 -23t1.5 -20q0 -22 -3 -37t-6 -25.5t-6 -17.5t-3 -13q-5 -1 -6.5 3.5t-2.5 10.5t-3.5 11.5t-9.5 5.5q-3 0 -9 -3q0 -18 -6.5 -36.5
t-6.5 -39.5q0 -11 -0.5 -22t-4.5 -19q-5 0 -9.5 2.5t-8.5 2.5q0 -9 -2.5 -14.5t-2.5 -9.5v-85q0 -52 30.5 -88.5t82.5 -53.5h110q21 9 34.5 16t28.5 18q32 24 48.5 58.5t16.5 72.5q0 8 -1 17t-5 18q-2 -3 -7.5 -6.5t-6.5 -5.5q4 24 7 56t-1 54q0 2 -3 11.5t-7.5 20.5
t-9.5 19.5t-9 8.5q-3 -2 -4 -16.5t-15 -26.5q0 20 -4 41t-14 37q-5 21 -15 39.5t-18 26.5q-5 -11 -10 -15.5t-7 -14.5q-6 10 -7.5 14.5t-6.5 15.5q-4 8 -13.5 25t-20 34t-19.5 29.5t-12 12.5q-6 -2 -7.5 -17t-1.5 -33q0 -5 1.5 -10t1.5 -10zM438 377q8 -13 19.5 -36.5
t11.5 -42.5q0 -5 -1 -9.5t-1 -8.5t2 -7.5t3 -3.5q2 0 5.5 4.5t7 10.5l7 12t6.5 9q4 -8 3.5 -18.5t-0.5 -19.5t2 -15.5t10 -6.5q0 -22 -8 -47.5t-34 -48.5l-5.5 -4l-11.5 -8.5l-11 -8t-5 -4.5h-6q0 -2 1.5 -5.5t1.5 -8.5q0 -8 -5.5 -8.5t-9.5 -0.5q-19 0 -38 11t-34.5 28
t-25 38.5t-9.5 42.5q0 3 1 12t4 20t7 21.5t10 18.5q4 -4 8 -19l8.5 -31.5t10.5 -29.5t14 -13q5 0 8 11q0 8 -3 15t-3 12q0 17 -1.5 22.5t-1.5 13.5t1.5 13.5t1.5 10.5q1 0 5 -4.5t8.5 -11.5t8.5 -15t6 -15q0 1 2.5 1t5.5 1t5 3t0 7q7 4 10.5 16.5t5.5 29t2.5 34.5t0.5 33z
M282 49h269v28h-269v-28z" />
    <glyph glyph-name="recyclable.aluminum" unicode="&#xe3a2;" horiz-adv-x="851" 
d="M611 243v27q-8 -14 -23.5 -23.5t-32.5 -9.5q-22 0 -35.5 6t-21 16.5t-10 23.5t-2.5 27v115h51v-119q0 -15 6.5 -25t23.5 -10q14 0 27 14t13 42v98h48v-182h-44zM405 493h50v-250h-50v250zM330 328q-34 -2 -52 -10t-18 -27q0 -8 5 -14.5t22 -6.5q7 0 14.5 1.5t14 7
t10.5 15t4 25.5v9zM298 426q27 0 43 -5t24.5 -14t11.5 -21.5t3 -27.5v-58v-30t2 -27h-48q-1 2 -1 5q-1 3 -1 15q-12 -14 -27 -20t-32 -6q-29 0 -45 14.5t-16 38.5q0 18 9.5 30.5t26 20t38 11.5t44.5 5v7q0 17 -9 23t-23 6q-11 0 -19.5 -4.5t-13.5 -21.5h-51q3 25 22 42
t62 17zM749 544q59 -89 59 -200q0 -77 -26.5 -144.5t-74.5 -117t-115 -78t-148 -28.5q-54 0 -105.5 14t-94.5 43l2 -53l-67 -9l-14 176l173 17l6 -69l-66 -9q35 -21 75.5 -34t85.5 -13q63 0 118.5 24.5t96.5 66t64.5 97t23.5 117.5q0 44 -10.5 84.5t-32.5 72.5zM135 344
q0 -47 13 -87.5t34 -73.5l-50 -40q-28 45 -44 94.5t-16 106.5q0 76 29 143t79.5 117t117 79t141.5 29q57 0 107 -15.5t93 -43.5l-4 56l67 5l14 -172l-173 -17l-6 69l68 6q-35 21 -77 34t-89 13q-62 0 -117.5 -24t-97 -65t-65.5 -96t-24 -118z" />
    <glyph glyph-name="litter.disposal" unicode="&#xe3a3;" horiz-adv-x="680" 
d="M443 582q-24 0 -41 16.5t-17 39.5q0 25 17 42t41 17q23 0 40 -17t17 -42q0 -23 -17 -39.5t-40 -16.5zM328 418q-7 -11 -24 -11h-104q-13 0 -19.5 8t-6.5 17q0 10 7 18t21 8h89l54 77q21 30 56 30h102q29 0 50.5 -19.5t21.5 -54.5v-173q0 -14 -8 -21t-17 -7q-10 0 -18 7
t-8 21v158h-13v-444q0 -16 -10 -24t-21 -8q-13 0 -23 8.5t-10 25.5v258h-13v-258q0 -17 -10 -25.5t-23 -8.5q-12 0 -22 8t-10 24v443zM157 204v42h42v-42h-42zM191 267l-31 31l31 31l30 -31zM161 326l-30 30l30 31l31 -31zM116 0l-53 292h40l47 -251h71l49 251h42l-55 -292
h-141z" />
    <glyph glyph-name="tidyman" unicode="&#xe3a4;" horiz-adv-x="670" 
d="M319 384l-55 -367h-158l-50 367h263zM458 370l150 -17l-33 -357l-53 249l-137 -253zM458 384q-4 20 -8 38q-4 16 -9 33t-13 28q-5 7 -21.5 18.5t-39 25l-48 27.5l-47.5 25.5l-37 19.5t-17 9l315 -40q20 -35 36 -67q14 -27 25.5 -54.5t13.5 -42.5zM472 595q-23 0 -39.5 17
t-16.5 37q0 26 16.5 43t39.5 17q25 0 41.5 -17t16.5 -43q0 -20 -16.5 -37t-41.5 -17zM281 503q-4 -3 -12.5 -11t-16.5 -18t-13 -20t-2 -16q-13 9 -27 9q-11 0 -20 -2.5t-15 -2.5q-4 0 -11.5 3t-15 6.5t-13 6.5l-5.5 3q16 7 33 28t22 42q3 -2 8 -4q4 -2 10 -4.5t14 -4.5
q7 1 23.5 5t30.5 10z" />
    <glyph glyph-name="ozonefriendly" unicode="&#xe3a5;" horiz-adv-x="879" 
d="M449 721q76 0 144 -29t119 -79.5t81 -118t30 -144.5q0 -78 -30 -146.5t-81 -119t-119 -79.5t-144 -29q-77 0 -145 29t-118.5 79.5t-80 119t-29.5 146.5q0 77 29.5 144.5t80 118t118.5 79.5t145 29zM449 711q-75 0 -141 -28.5t-114.5 -78t-77 -115t-28.5 -139.5
q0 -76 28.5 -142.5t77 -116t114.5 -78t141 -28.5t141 28.5t115.5 78t78 116t28.5 142.5q0 74 -28.5 139.5t-78 115t-115.5 78t-141 28.5zM449 594q51 0 95.5 -19.5t78 -52.5t53 -77.5t19.5 -94.5q0 -51 -19.5 -96t-53 -78.5t-78 -53t-95.5 -19.5t-96 19.5t-78 53t-52 78.5
t-19 96q0 50 19 94.5t52 77.5t78 52.5t96 19.5zM449 578q-48 0 -89.5 -18t-72.5 -48.5t-49 -72t-18 -89.5t18 -90.5t49 -74t72.5 -49.5t89.5 -18q49 0 91 18t73 49.5t48.5 74t17.5 90.5t-18 89.5t-49.5 72t-73 48.5t-89.5 18zM584 386q0 4 -4 5.5t-8 2.5t-6.5 2.5t0.5 4.5
q-3 11 2 11q2 0 3 -1t7 -5v-2h6l6 -8q24 1 35 -7q6 -6 6 -17l-1 -16q0 -11 9 -11q2 0 3.5 1t3.5 1v-7h10l6 3q-2 -45 -19 -83.5t-45 -66.5t-66 -44t-83 -16t-84 18t-67.5 48.5t-44.5 70.5t-16 83v13q5 3 6.5 3.5t5.5 0.5q2 0 2 -2t13 -2q2 -2 3 -1.5t3 0.5q5 0 9 -6.5
t9 -6.5q-5 14 -10.5 17.5t-19.5 3.5v4q0 1 1 1q0 3 -1.5 4.5t-1.5 3.5t5 8q0 10 8.5 10.5t10.5 4.5l8 -8q2 -6 3 -5.5t3 0.5v13q3 2 2.5 3.5t-0.5 2.5l2 1l9 12t6 7t7.5 6.5t14.5 9.5q-2 5 -2 7.5v4.5q0 4 3.5 5t8 1.5t8.5 1.5t4 5q0 3 -3.5 5t-8 3.5l-7.5 2.5l-3 1
q-2 0 -3 -0.5t-5 -10.5l-2 -5q3 -7 -3.5 -7t-9.5 2q0 2 -2.5 3.5t-5.5 3l-5 2.5t-1 1v13q7 0 12.5 4t10 9.5t9 9.5t10.5 4q5 0 5 -5t-4 -12q7 0 12.5 3t5.5 14q-6 8 -6 14q0 8 11 8q12 0 16 -5.5t4 -16.5q0 -3 -6 -5q-1 -5 -1 -8q0 -5 4 -9.5t7 -4.5q2 0 8 8t6 10q2 -1 6 0
q3 0 6 1t7 3q7 4 10 8t4.5 7t3 5t5.5 2v7q-6 3 -11 7q-5 3 -8.5 5.5t-5.5 4.5q10 2 20 3t18 1q37 0 70.5 -13.5t50.5 -34.5l-2 -2h-2q-1 0 -2.5 0.5t-2.5 0.5q-5 0 -7.5 -0.5t-4.5 -2l-5.5 -4t-11.5 -6.5l-1 1l-2 -1q-3 3 -3 7.5t3 6.5q-5 2 -11.5 6t-11.5 4q-4 0 -9 -3.5
t-9.5 -7.5t-7.5 -7.5t-3 -2.5q0 -5 1 -8q0 -3 1 -5q-2 -3 -7.5 -10t-7.5 -3q1 1 -3.5 7t-9.5 6q0 -4 -4 -2.5t-3 -3.5q0 -2 5.5 -3t5.5 -9q0 -2 -0.5 -2.5t-0.5 -1.5v-1l1 -2q0 -5 -9 -7.5t-14 -6.5q0 -1 1 -2q0 -1 0.5 -1.5t0.5 -1.5q0 -2 5 -5q14 0 18 8.5t9 8.5q2 0 3 1
q4 -5 6.5 -10t7.5 -5t5.5 4t5.5 4t8.5 -6.5t3.5 -8.5q5 5 9 11.5t14 6.5q5 0 6.5 -2t9.5 -2q0 -9 -3.5 -8t-20.5 -6q5 -7 10 -6.5t5 -4.5q0 -1 -0.5 -2t-3.5 -5q-1 -6 -12 -6q-17 0 -25 3t-12.5 7t-8.5 7t-14 3l-2 2q-2 2 -4 2q-12 0 -18 -5t-9 -10.5t-5 -10.5t-6 -5
q-5 -3 -7.5 -9.5t-2.5 -8.5q0 -8 3.5 -14t7.5 -10q2 -6 4.5 -7t5.5 -1q5 0 10 0.5t7 0.5q11 -2 15 -7t5 -16q2 -6 1.5 -8t3.5 -10q0 -8 -1.5 -17l-3.5 -20q-1 -5 2 -7t3 -5t-0.5 -7.5t1 -8.5t6 -7t15.5 -3q3 0 4.5 3t1.5 5h3.5t5.5 5q3 0 7 6t7.5 13.5l6 13t2.5 4.5
q2 9 3 17.5t3 17.5l3 3l2 5q4 3 5 3.5t1.5 1.5l1.5 3t6 10q-2 4 -9.5 5.5t-7.5 11.5q0 1 0.5 1.5t0.5 1.5q-5 2 -8 10.5t-1 8.5q-5 5 -5 7v8q2 0 2.5 2.5t5.5 0.5q6 -6 6 -8v-5q8 1 7 -1t3 -11v-3q0 -5 3.5 -7t6.5 -2q6 0 12 6t6 8zM147 303q15 0 26.5 9t13.5 26
q4 -53 26 -98.5t57.5 -79t81.5 -52.5t97 -19q53 0 98.5 19t80 52.5t56 79t25.5 98.5q4 -17 16 -26t27 -9q16 0 27.5 8.5t17.5 22.5q-4 -71 -33 -132t-76 -107t-108.5 -72t-130.5 -26t-130.5 26.5t-109 72t-76 107t-29.5 131.5q3 -11 14 -21t29 -10zM312 354q-2 0 -5.5 1.5
t-5.5 -3.5q-6 0 -6 -1t3 -4q0 -5 0.5 -6.5t0.5 -2.5v-2t-1 -5q0 -4 -2 -8t-2 -9q1 -3 2 -5l2 -6h3l10 -10q2 -2 12 -16.5t17 -35.5l-1 -1v-2q0 -2 1.5 -7.5t3.5 -8.5q-1 0 -1 -1v-3q0 -4 5 -6q5 -11 9.5 -17.5t16.5 -6.5q2 0 3.5 3.5t1.5 6.5q0 7 -3.5 14.5t-3.5 17.5l2 2
q0 6 1.5 9t3.5 5.5t3.5 7t1.5 13.5q1 2 2 5q2 6 2 7l3 3q-1 0 -1 1t2.5 1.5t4.5 2.5v8t-0.5 12.5t-2 11.5t-4.5 5q-8 0 -16 5q-4 -1 -10 -1t-5 4t-3 6t-8 2q1 6 -9 11q-8 5 -22 5zM317 106q-10 5 -19.5 1.5t-15.5 -11.5q-7 -11 -7 -21q0 -17 14 -24q6 -3 14 -3q12 0 21 10.5
t9 24.5q0 16 -16 23zM421 46q0 -12 7 -22t20 -10q12 0 20 8t8 22t-6.5 23t-20.5 9q-12 0 -20 -8t-8 -22zM557 664q8 -3 11 -8.5t3 -11.5q0 -15 -9.5 -25.5t-21.5 -10.5q-5 0 -8 1l-23 9l23 55zM284 641q8 5 17.5 0.5t9.5 -14.5q0 -5 -4 -8q11 0 16 -9.5t6 -10.5l-9 -6
l-6.5 10t-11.5 7q-2 0 -6 -2l-8 -6l13 -21l-10 -6l-32 51zM497 679l-10 -59l-12 2l-19 39l-4 -37l-13 1l8 60l11 -1l21 -43l6 41zM531 88l11 -38l-36 32l-11 -4l15 -57l13 5l-13 38l34 -32l12 4l-16 56zM421 636l3 -11l-42 -8l-12 58l41 8l1 -12l-28 -5l3 -12l27 5l2 -11
l-28 -5l2 -12zM597 66l-6 12l23 15l-5 8l-25 -14l-6 11l26 15l-6 9l-36 -23l32 -49l37 23l-6 9zM359 89l-4 -10l32 -9l-41 -28l-3 -9l45 -12l4 11l-32 8l42 28l3 8zM254 544l-9 -7l-39 44l31 27l6 -8l-22 -19l9 -10l21 19l6 -8l-21 -18zM646 566l10 43l11 -10l-10 -29l29 11
l9 -10l-39 -11l-15 -18l-10 10zM312 98q9 -4 9 -15q0 -8 -4.5 -16t-13.5 -8q-17 0 -17 16q0 7 7.5 17t18.5 6zM609 641l10 -8l-27 -37l25 -18l-7 -9l-34 24zM449 65q9 0 12 -6.5t3 -14.5q0 -18 -15 -18q-8 0 -12 6t-4 14q0 7 4 13t12 6zM539 659l-15 -35l12 -5q1 0 1.5 -0.5
t2.5 -0.5q7 0 12.5 8.5t5.5 16.5q0 9 -9 12zM337 666l23 -55l-10 -6l-24 55zM496 490q2 8 6 11.5t7 8.5q5 0 7.5 -10t2.5 -13h-5q0 -3 -5 -3l-5 -4q-7 0 -7.5 4t-0.5 6zM578 428q-2 0 -8.5 4t-6.5 18q0 3 1 4t4 5q8 0 10.5 -10t2.5 -16q-1 -1 -1 -2q-3 -3 -2 -3zM295 463
q7 0 10.5 -3.5t3.5 -7.5q0 -10 -14 -11q-8 0 -8 10q0 5 1.5 8.5t6.5 3.5zM294 618q7 3 7 8t-4 6.5t-9 -1.5l-13 -8l8 -12zM652 352q-2 -1 -4 -1q-4 0 -4 5t3 11t5 7q10 0 10 -6q0 -5 -4 -10.5t-6 -5.5zM307 378q-1 -1 -1 -2q0 -2 2.5 -2.5t3.5 -0.5l-1 11q-8 0 -11.5 3.5
t-7.5 3.5v-2q0 -2 -3 -2q4 -9 18 -9zM595 448q0 -4 -5 -4q-4 4 -4 7l6 5q0 -4 1.5 -2.5t1.5 -5.5zM595 323h3q0 1 0.5 1.5t0.5 1.5q-6 2 -5 6t-2 2l-2 -3v-5z" />
    <glyph glyph-name="machinewash.normal" unicode="&#xe3a6;" horiz-adv-x="918" 
d="M116 571q23 19 57.5 32.5t79.5 13.5q51 0 95.5 -17t82.5 -38q35 -18 73.5 -33t82.5 -15q41 0 74.5 7t60 18t46.5 23.5t34 23.5l26 107l66 -11l-155 -682h-565l-150 685l66 11zM228 65h457l96 435q-21 -12 -41.5 -22t-43.5 -16.5t-50 -10t-60 -3.5q-54 0 -100.5 18.5
t-88.5 39.5q-36 19 -71 32.5t-73 13.5q-24 0 -44 -6.5t-35 -15.5t-25.5 -18.5t-15.5 -15.5z" />
    <glyph glyph-name="machinewash.permanentpress" unicode="&#xe3a7;" horiz-adv-x="918" 
d="M116 571q23 19 57.5 32.5t79.5 13.5q51 0 95.5 -17t82.5 -38q35 -18 73.5 -33t82.5 -15q41 0 74.5 7t60 18t46.5 23.5t34 23.5l26 107l66 -11l-155 -682h-565l-150 685l66 11zM228 65h457l96 435q-21 -12 -41.5 -22t-43.5 -16.5t-50 -10t-60 -3.5q-54 0 -100.5 18.5
t-88.5 39.5q-36 19 -71 32.5t-73 13.5q-24 0 -44 -6.5t-35 -15.5t-25.5 -18.5t-15.5 -15.5zM169 -40h570v-58h-570v58z" />
    <glyph glyph-name="machinewash.delicate" unicode="&#xe3a8;" horiz-adv-x="918" 
d="M116 571q23 19 57.5 32.5t79.5 13.5q51 0 95.5 -17t82.5 -38q35 -18 73.5 -33t82.5 -15q41 0 74.5 7t60 18t46.5 23.5t34 23.5l26 107l66 -11l-155 -682h-565l-150 685l66 11zM228 65h457l96 435q-21 -12 -41.5 -22t-43.5 -16.5t-50 -10t-60 -3.5q-54 0 -100.5 18.5
t-88.5 39.5q-36 19 -71 32.5t-73 13.5q-24 0 -44 -6.5t-35 -15.5t-25.5 -18.5t-15.5 -15.5zM169 -40h570v-58h-570v58zM169 -138h570v-58h-570v58z" />
    <glyph glyph-name="donotwash" unicode="&#xe3a9;" horiz-adv-x="1066" 
d="M832 76l-17 -76h-565l-18 80l-115 -60l-21 39l126 66l-65 300l-150 77l21 39l116 -60l-44 204l66 11l26 -125q23 19 57.5 32.5t79.5 13.5q51 0 95.5 -17t82.5 -38q35 -18 73.5 -33t82.5 -15q41 0 74.5 7t60 18t46.5 23.5t34 23.5l26 107l66 -11l-43 -190l102 54l21 -39
l-136 -71l-72 -315l125 -64l-21 -39zM221 441l305 -157l320 166l11 50q-21 -12 -41.5 -22t-43.5 -16.5t-50 -10t-60 -3.5q-54 0 -100.5 18.5t-88.5 39.5q-36 19 -71 32.5t-73 13.5q-24 0 -44 -6.5t-35 -15.5t-25.5 -18.5t-15.5 -15.5zM761 65l9 43l-243 126l-233 -122
l10 -47h457zM780 153l53 241l-258 -135zM233 385l51 -228l195 102z" />
    <glyph glyph-name="handwash" unicode="&#xe3aa;" horiz-adv-x="918" 
d="M116 571q23 19 57.5 32.5t79.5 13.5q19 0 37 -2.5t36 -7.5q0 7 2.5 14.5t10.5 13.5l237 177l184 -97l-99 -194q51 10 85 29t56 36l26 107l66 -11l-155 -682h-565l-150 685l66 11zM228 65h457l96 435q-35 -21 -70.5 -34t-85.5 -17l-10 -20q-7 -14 -19 -21t-23 -7
q-10 0 -18 5t-12 12q-11 -22 -22.5 -34.5t-31.5 -12.5q-8 0 -17 3t-14 8q-12 -15 -33 -15q-13 0 -27 9t-14 30q0 15 8 27q-16 2 -26.5 13t-10.5 27q0 12 5 21l14 23q-30 15 -59.5 25t-61.5 10q-24 0 -44 -6.5t-35 -15.5t-25.5 -18.5t-15.5 -15.5zM468 623l-36 -62l24 -12
l22 39l26 -11l-22 -40l26 -9l21 37l25 -12l-19 -33q8 -2 14.5 -3t14.5 -2l22 39l26 -13l-15 -27h13.5t13.5 1l49 94.5l49 93.5l-143 76l-222 -166q-3 -3 -3 -7q0 -7 2 -9l9 -3.5l9 -3.5q12 1 29 10t49 32zM424 396q9 0 13 8l38 66q-7 2 -13 5t-12 5l-36 -63q-2 -3 -2 -9
q0 -5 3.5 -8.5t8.5 -3.5zM490 399q8 0 12 7l27 48l-28 7l-24 -43q-2 -4 -2 -6q0 -6 5 -9.5t10 -3.5zM397 460q9 0 14 9l13 23l-24 12l-13 -22q-3 -5 -3 -9q0 -13 13 -13zM590 448h-4q-6 0 -12 0.5t-12 0.5q-1 -2 -1 -6q0 -12 13 -12q8 0 13 9z" />
    <glyph glyph-name="iron.high" unicode="&#xe3ab;" horiz-adv-x="1265" 
d="M1036 400l-38 109q-7 21 -16.5 40.5t-25.5 34.5t-40.5 24t-60.5 9h-521v65h539q30 0 58.5 -7.5t53 -22t43 -36.5t27.5 -51l183 -565h-1212q6 41 18.5 87t34.5 90.5t54 85t76 71t100.5 48.5t128.5 18h598zM1059 332h-621q-74 0 -129 -25t-93.5 -64t-60.5 -86t-31 -91h1020
zM968 197q0 -29 -20.5 -49.5t-50.5 -20.5q-29 0 -49.5 20.5t-20.5 49.5q0 32 20.5 52t49.5 20q30 0 50.5 -20t20.5 -52zM728 197q0 -29 -20 -49.5t-52 -20.5q-29 0 -49.5 20.5t-20.5 49.5q0 32 20.5 52t49.5 20q32 0 52 -20t20 -52zM485 197q0 -29 -21.5 -49.5t-50.5 -20.5
t-49 20.5t-20 49.5q0 32 20 52t49 20t50.5 -20t21.5 -52z" />
    <glyph glyph-name="iron.medium" unicode="&#xe3ac;" horiz-adv-x="1265" 
d="M1036 400l-38 109q-7 21 -16.5 40.5t-25.5 34.5t-40.5 24t-60.5 9h-521v65h539q30 0 58.5 -7.5t53 -22t43 -36.5t27.5 -51l183 -565h-1212q6 41 18.5 87t34.5 90.5t54 85t76 71t100.5 48.5t128.5 18h598zM1059 332h-621q-74 0 -129 -25t-93.5 -64t-60.5 -86t-31 -91h1020
zM843 197q0 -29 -20.5 -49.5t-50.5 -20.5q-29 0 -49.5 20.5t-20.5 49.5q0 32 20.5 52t49.5 20q30 0 50.5 -20t20.5 -52zM603 197q0 -29 -20 -49.5t-52 -20.5q-29 0 -49.5 20.5t-20.5 49.5q0 32 20.5 52t49.5 20q32 0 52 -20t20 -52z" />
    <glyph glyph-name="iron.low" unicode="&#xe3ad;" horiz-adv-x="1265" 
d="M1036 400l-38 109q-7 21 -16.5 40.5t-25.5 34.5t-40.5 24t-60.5 9h-521v65h539q30 0 58.5 -7.5t53 -22t43 -36.5t27.5 -51l183 -565h-1212q6 41 18.5 87t34.5 90.5t54 85t76 71t100.5 48.5t128.5 18h598zM1059 332h-621q-74 0 -129 -25t-93.5 -64t-60.5 -86t-31 -91h1020
zM724 197q0 -29 -20.5 -49.5t-50.5 -20.5q-29 0 -49.5 20.5t-20.5 49.5q0 32 20.5 52t49.5 20q30 0 50.5 -20t20.5 -52z" />
    <glyph glyph-name="donot.iron" unicode="&#xe3ae;" horiz-adv-x="1398" 
d="M1263 0h-1126l-113 -60l-21 39l109 57q12 61 39.5 125.5t75.5 117.5t119.5 87t171.5 34h7l-471 256l21 39l543 -295h182l266 140q-8 16 -18.5 30t-26 24.5t-36.5 16.5t-50 6h-521v65h539q57 0 107 -27t71 -80l228 120l21 -39l-235 -124l165 -507l81 -44l-21 -39zM262 66
h879l-433 235zM766 332l-11 -6l467 -253l-83 259h-373zM518 332q-70 0 -123 -22t-90.5 -57.5t-61 -79t-34.5 -85.5l452 238l-10 6h-133zM1081 498l-186 -98h221z" />
    <glyph glyph-name="no.ironsteam" unicode="&#xe3af;" horiz-adv-x="1142" 
d="M852 -140l20 -34l-56 -29l-45 77l-211 38l-197 -35l-47 -81l-55 30l21 37l-208 -37l-11 47l251 44l20 34l-271 48l10 44l285 -49l39 66h-360q8 58 31.5 123.5t68.5 121t114.5 92t169.5 36.5h493l-36 102q-6 19 -15.5 37t-24.5 32t-37.5 22.5t-55.5 8.5h-421v61h438
q28 0 55 -7t50 -20.5t40.5 -34t26.5 -47.5l171 -527h-369l37 -64l272 47l10 -44l-257 -45l23 -40l234 -41l-11 -47zM935 370h-514q-69 0 -120.5 -23.5t-87 -59.5t-56.5 -80t-29 -85h886zM424 -18l134 -23l149 26l-43 75h-195zM695 -64l45 -8l-8 14zM399 -60l-5 -9l29 5z" />
    <glyph glyph-name="tumbledry.normal" unicode="&#xe3b0;" horiz-adv-x="899" 
d="M205 348q0 51 19.5 96t53.5 78.5t78.5 53t95.5 19.5q50 0 94.5 -19.5t78 -53t53 -78.5t19.5 -96t-19.5 -95.5t-53 -77.5t-78 -52.5t-94.5 -19.5q-51 0 -95.5 19.5t-78.5 52.5t-53.5 77.5t-19.5 95.5zM264 348q0 -38 14.5 -73t40 -61.5t60 -42.5t73.5 -16q38 0 72 16
t59.5 42.5t40.5 61.5t15 73q0 39 -15 74t-40.5 61.5t-59.5 41.5t-72 15q-39 0 -73.5 -15t-60 -41.5t-40 -61.5t-14.5 -74zM106 700h698v-698h-698v698zM161 57h588v588h-588v-588z" />
    <glyph glyph-name="tumbledry.permanentpress" unicode="&#xe3b1;" horiz-adv-x="899" 
d="M205 348q0 51 19.5 96t53.5 78.5t78.5 53t95.5 19.5q50 0 94.5 -19.5t78 -53t53 -78.5t19.5 -96t-19.5 -95.5t-53 -77.5t-78 -52.5t-94.5 -19.5q-51 0 -95.5 19.5t-78.5 52.5t-53.5 77.5t-19.5 95.5zM264 348q0 -38 14.5 -73t40 -61.5t60 -42.5t73.5 -16q38 0 72 16
t59.5 42.5t40.5 61.5t15 73q0 39 -15 74t-40.5 61.5t-59.5 41.5t-72 15q-39 0 -73.5 -15t-60 -41.5t-40 -61.5t-14.5 -74zM106 700h698v-698h-698v698zM161 57h588v588h-588v-588zM104 -40h698v-58h-698v58z" />
    <glyph glyph-name="tumbledry.delicate" unicode="&#xe3b2;" horiz-adv-x="899" 
d="M205 348q0 51 19.5 96t53.5 78.5t78.5 53t95.5 19.5q50 0 94.5 -19.5t78 -53t53 -78.5t19.5 -96t-19.5 -95.5t-53 -77.5t-78 -52.5t-94.5 -19.5q-51 0 -95.5 19.5t-78.5 52.5t-53.5 77.5t-19.5 95.5zM264 348q0 -38 14.5 -73t40 -61.5t60 -42.5t73.5 -16q38 0 72 16
t59.5 42.5t40.5 61.5t15 73q0 39 -15 74t-40.5 61.5t-59.5 41.5t-72 15q-39 0 -73.5 -15t-60 -41.5t-40 -61.5t-14.5 -74zM106 700h698v-698h-698v698zM161 57h588v588h-588v-588zM104 -40h698v-58h-698v58zM104 -138h698v-58h-698v58z" />
    <glyph glyph-name="donot.tumbledry" unicode="&#xe3b3;" horiz-adv-x="973" 
d="M835 133v-131h-698v140l-96 -50l-21 39l117 61v305l-112 59l21 39l91 -48v153h698v-146l93 49l21 -39l-114 -59v-322l118 -61l-21 -39zM192 519l81 -42q33 53 88.5 85.5t121.5 32.5q65 0 120 -32t87 -84l90 46v120h-588v-126zM483 103q-65 0 -119 30t-88 81l-84 -44v-113
h588v105l-94 49q-34 -49 -87 -78.5t-116 -29.5zM483 540q-51 0 -92.5 -24.5t-66.5 -65.5l155 -81l160 83q-26 40 -67 64t-89 24zM483 155q46 0 85.5 23t65.5 60l-156 81l-150 -78q25 -38 65.5 -62t89.5 -24zM728 348q0 -53 -21 -98l73 -38v264l-70 -36q8 -22 13 -45t5 -47z
M236 348q0 46 17 89l-61 32v-249l63 33q-19 46 -19 95zM670 348q0 33 -12 65l-131 -69l129 -67q14 34 14 71zM295 348q0 -35 12 -68l123 64l-125 66q-10 -29 -10 -62z" />
    <glyph glyph-name="anybleach" unicode="&#xe3b4;" horiz-adv-x="788" 
d="M392 700l366 -700h-732zM120 57h544l-272 517z" />
    <glyph glyph-name="nonchlorinebleachonly" unicode="&#xe3b5;" horiz-adv-x="773" 
d="M387 700l366 -700h-732zM544 276l-60 113l-176 -332h121zM488 57h171l-85 163zM454 446l-67 128l-272 -517h135z" />
    <glyph glyph-name="donot.bleach" unicode="&#xe3b6;" horiz-adv-x="900" 
d="M738 134l70 -134h-732l69 133l-114 -60l-21 39l171 90l90 172l-263 136l21 39l263 -136l150 287l148 -284l273 143l21 -39l-273 -143l91 -175l179 -92l-21 -39zM649 179l-209 108l-206 -108l-64 -122h544zM343 387l97 -50l99 52l-97 185zM488 312l126 -65l-54 103z
M323 347l-52 -99l121 64z" />
    <glyph glyph-name="hangtodry" unicode="&#xe3b7;" horiz-adv-x="899" 
d="M106 700h698v-698h-698v698zM749 57v536q-62 -47 -140.5 -71.5t-160.5 -24.5q-78 0 -152.5 24t-134.5 75v-539h588zM172 645q75 -52 142.5 -76t135.5 -24q72 0 145 26t154 74h-577z" />
    <glyph glyph-name="drip.dry" unicode="&#xe3b8;" horiz-adv-x="899" 
d="M106 700h698v-698h-698v698zM161 57h588v588h-588v-588zM296 528h60v-364h-60v364zM425 528h60v-364h-60v364zM561 528h60v-364h-60v364z" />
    <glyph glyph-name="dry.flat" unicode="&#xe3b9;" horiz-adv-x="899" 
d="M106 700h698v-698h-698v698zM161 57h588v588h-588v-588zM277 334v60h364v-60h-364z" />
    <glyph glyph-name="dry.intheshade" unicode="&#xe3ba;" horiz-adv-x="899" 
d="M106 700h698v-698h-698v698zM252 645h-91v-102zM161 311v-254h588v588h-281zM397 645h-73l-163 -176v-80z" />
    <glyph glyph-name="donot.wring" unicode="&#xe3bb;" horiz-adv-x="1204" 
d="M732 188q-35 -21 -81 -37.5t-113 -27.5q-30 -8 -72.5 2t-84.5 31l-220 -171l-35 35l209 163q-17 11 -32 24t-27 27q-18 -18 -38.5 -35.5t-43.5 -31t-48 -22t-53 -8.5q-17 0 -29 8.5t-12 41.5v294h304l-230 179l32 38l278 -217h8q34 27 77 41t96 8q28 -5 51.5 -13.5
l46.5 -17.5q4 -2 7.5 -4t7.5 -4l266 207l32 -38l-244 -190q46 -11 77 -25t45 -31q13 9 25 18.5l26 20.5l52 39.5t63 34.5l19 8l12 -18q27 -34 30 -69t3 -65q-5 -36 0 -66q4 -18 3.5 -41.5t-5 -47.5t-13.5 -46.5t-21 -38.5q-17 -18 -31.5 -24t-26.5 -6q-38 0 -72 9.5
t-66.5 25t-63.5 35l-62 40.5q-2 -2 -3 -2.5t-2 -2.5l255 -198l-35 -35zM1042 168q5 0 16 9q13 18 20 48t7 56q-3 29 -5 43t-2 26q0 18 1.5 34t1.5 33q0 25 -9 49q-23 -12 -43 -26.5l-39 -28.5q-20 -17 -41 -32t-46 -29l-40 -46l-22.5 -22.5l-22.5 -22.5l54.5 -33.5
t55.5 -29.5t56.5 -20.5t57.5 -7.5zM331 372q14 13 26 26.5t26 27.5h-279v-231q23 1 44.5 11t42.5 25t40.5 33.5l39.5 36.5zM763 420q-8 2 -15.5 5t-14.5 5l-116 -90l113 -88q23 18 44.5 40l46.5 49q8 9 16 17l14 13.5l12 11.5q-7 7 -29.5 15t-70.5 22zM317 271
q12 -15 28.5 -28.5t34.5 -24.5l157 122l-92 71q-18 -17 -35.5 -36l-36.5 -41l-28 -31t-28 -32zM528 174q54 10 91.5 22t66.5 28l-109 85l-149 -116q29 -12 55.5 -17.5t44.5 -1.5zM611 475q-38 4 -68.5 -4.5t-58.5 -27.5l93 -72l103 81q-18 8 -35 14.5t-34 8.5z" />
    <glyph glyph-name="dryclean.anysolvent" unicode="&#xe3bc;" horiz-adv-x="822" 
d="M515 169l-29 81h-155l-30 -81h-76l156 372h55l156 -372h-77zM430 399l-22 59l-10 -28.5t-10 -27.5l-36 -95h114zM62 335q0 71 27.5 133.5t74.5 109.5t109.5 74.5t133.5 27.5t133.5 -27.5t109.5 -74.5t74 -109.5t27 -133.5t-27 -133.5t-74 -109.5t-109.5 -74t-133.5 -27
t-133.5 27t-109.5 74t-74.5 109.5t-27.5 133.5zM126 335q0 -57 21.5 -109.5t59.5 -92t89.5 -63.5t110.5 -24q57 0 108 24t89.5 63.5t61 92t22.5 109.5q0 59 -22.5 111.5t-61 91.5t-89.5 62t-108 23q-59 0 -110.5 -23t-89.5 -62t-59.5 -91.5t-21.5 -111.5z" />
    <glyph glyph-name="dryclean.anyexcepttrichloro" unicode="&#xe3bd;" horiz-adv-x="822" 
d="M355 449v-100h176v-58h-176v-156h-69v373h272v-59h-203zM62 335q0 71 27.5 133.5t74.5 109.5t109.5 74.5t133.5 27.5t133.5 -27.5t109.5 -74.5t74 -109.5t27 -133.5t-27 -133.5t-74 -109.5t-109.5 -74t-133.5 -27t-133.5 27t-109.5 74t-74.5 109.5t-27.5 133.5zM126 335
q0 -57 21.5 -109.5t59.5 -92t89.5 -63.5t110.5 -24q57 0 108 24t89.5 63.5t61 92t22.5 109.5q0 59 -22.5 111.5t-61 91.5t-89.5 62t-108 23q-59 0 -110.5 -23t-89.5 -62t-59.5 -91.5t-21.5 -111.5z" />
    <glyph glyph-name="dryclean.petroleumsolventonly" unicode="&#xe3be;" horiz-adv-x="822" 
d="M591 392q0 -20 -9 -41t-26.5 -37.5t-43 -27t-57.5 -10.5h-97v-144h-71v378h160q27 0 53 -6.5t46 -21t32.5 -37t12.5 -53.5zM518 393q0 29 -20 43t-50 14h-90v-113h92q35 0 51.5 18t16.5 38zM62 335q0 71 27.5 133.5t74.5 109.5t109.5 74.5t133.5 27.5t133.5 -27.5
t109.5 -74.5t74 -109.5t27 -133.5t-27 -133.5t-74 -109.5t-109.5 -74t-133.5 -27t-133.5 27t-109.5 74t-74.5 109.5t-27.5 133.5zM126 335q0 -57 21.5 -109.5t59.5 -92t89.5 -63.5t110.5 -24q57 0 108 24t89.5 63.5t61 92t22.5 109.5q0 59 -22.5 111.5t-61 91.5t-89.5 62
t-108 23q-59 0 -110.5 -23t-89.5 -62t-59.5 -91.5t-21.5 -111.5z" />
    <glyph glyph-name="donot.dryclean" unicode="&#xe3bf;" horiz-adv-x="930" 
d="M726 122q-48 -60 -117.5 -95.5t-151.5 -35.5t-152 35t-118 95l-148 -100l-25 39l146 99q-23 39 -35.5 83.5t-12.5 92.5q0 47 12 90.5t35 81.5l-146 100l24 39l148 -101q48 62 118.5 98.5t153.5 36.5t153.5 -36.5t118.5 -98.5l148 101l24 -39l-147 -100q23 -38 35 -81.5
t12 -90.5q0 -48 -13 -92.5t-36 -82.5l148 -100l-25 -39zM457 623q-69 0 -127 -30.5t-96 -81.5l223 -150l221 150q-39 51 -97 81.5t-124 30.5zM457 46q65 0 122 30t96 81l-218 148l-219 -149q38 -50 94.5 -80t124.5 -30zM176 335q0 -38 9.5 -73t26.5 -67l204 138l-206 140
q-34 -63 -34 -138zM738 335q0 37 -9 71.5t-26 65.5l-205 -139l203 -138q17 32 27 67t10 73z" />
    <glyph glyph-name="pao" unicode="&#xe3c0;" horiz-adv-x="892" 
d="M37 483q-2 6 -1 11.5t7 10.5l29 18t56.5 31t99.5 46t159 63l116 43l89.5 31.5t71 23l59.5 17.5q23 5 34 1t17 -18l18 -61q5 -14 -0.5 -22.5t-15.5 -14.5q-19 -11 -47 -25l-60 -29l-66 -30.5l-64.5 -28.5l-54.5 -23t-37 -15q-105 -41 -192 -69.5t-171 -45.5q-24 -4 -29 16
zM120 318q0 5 3 9q3 7 15 12q35 15 81 25t93.5 15.5t91.5 8t74 2.5q33 0 79.5 -3.5t94.5 -10t92.5 -16t73.5 -21.5q6 -2 9.5 -6.5t5.5 -9.5t2 -11v-272q0 -13 -8.5 -22t-16.5 -13q-35 -12 -79 -20.5t-90 -14t-89 -7.5t-74 -2q-36 0 -83 2.5t-94.5 7.5t-90.5 14t-71 23
q-8 4 -11.5 9t-5.5 10t-2 11v280zM77 416q56 12 146 38t217 77q100 40 187 81t147 72l-21 69q-58 -35 -142.5 -72.5l-194.5 -82.5l-113 -43t-94.5 -33t-81 -23t-70.5 -15zM370 633l-152 -60.5t-138 -66.5q47 10 89.5 22.5t82.5 27l78.5 29.5l77.5 31q107 43 182 77t134 64
q-75 -20 -164 -52t-190 -72zM143 33q21 -11 50.5 -19t62.5 -14t66.5 -9t64 -5t54.5 -2.5t37 -0.5q110 0 195 12.5t139 35.5v280q-6 -3 -24.5 -8.5t-57 -11.5t-100 -10t-152.5 -4q-90 0 -152.5 5t-103.5 12q-48 7 -79 17v-278zM478 367q-75 0 -130 -5.5t-92.5 -12.5t-59 -15
t-30.5 -12q7 -2 26 -6.5t55.5 -9t93 -7.5t137.5 -3q85 0 143 4t95 9q43 5 71 13q-11 5 -34.5 12.5t-61.5 15t-91 12.5t-122 5z" />
    <glyph glyph-name="pao.twelve" unicode="&#xe3c1;" horiz-adv-x="892" 
d="M37 481q-2 6 -1 11.5t8 10.5l28.5 18t56.5 31t100 45.5t159 62.5l116 43.5l89.5 32t70.5 23t60 17.5q22 5 33 1t17 -18l18 -61q5 -14 -0.5 -22.5t-15.5 -15.5q-19 -11 -46.5 -25t-60 -29l-66 -30l-64 -28l-55 -23l-37.5 -15q-105 -41 -191.5 -69.5t-170.5 -45.5
q-23 -4 -30 16zM121 316q1 5 3 9q3 8 14 12q35 15 81 24.5t93.5 15.5t91.5 8t74 2q33 0 79.5 -3t95 -9.5t93 -16t73.5 -21.5q6 -2 9 -6.5t5 -9.5t2 -11v-272q0 -13 -8 -22t-17 -13q-34 -12 -78.5 -20.5t-90 -14t-88.5 -7.5t-75 -2q-36 0 -83 2.5t-94 7.5t-90.5 14t-71.5 23
q-8 4 -11 9t-5 10t-2 11v280zM77 414q56 11 146 37.5t218 77.5q99 40 186 80.5t147 71.5l-21 70q-58 -35 -142 -72.5t-195 -82.5l-113 -43t-94.5 -33t-80.5 -23t-71 -15zM370 631l-151.5 -60.5t-138.5 -66.5q95 20 172.5 49l155.5 61q107 43 182.5 77t135.5 64
q-76 -20 -165 -52zM144 30q32 -18 81 -28t99 -14.5t92.5 -5.5t61.5 -1q111 0 195.5 12.5t138.5 35.5v280q-6 -3 -24.5 -8.5t-57 -11.5t-100 -10t-152.5 -4q-89 0 -151.5 5t-103.5 12q-48 7 -79 17v-279zM478 365q-75 0 -129.5 -5.5t-92 -12.5t-59 -15t-30.5 -12
q7 -2 26 -6.5t55.5 -9t92.5 -7.5t137 -3q85 0 143.5 4t95.5 9q43 5 70 13q-11 5 -34 12.5t-61 15t-91 12.5t-123 5zM249 23v184l-33 -23v44l36 25h39v-230h-42zM320 190q5 29 25 46.5t46 17.5q29 0 50 -15.5t21 -47.5q0 -12 -4.5 -24.5t-12.5 -20.5l-71 -83h86v-40h-140v36
l91 108q8 11 8 22q0 9 -5.5 18t-21.5 9q-11 0 -20 -8t-11 -24zM684 23v128l-45 -95h-34l-44 94v-127h-44v230h41l64 -144l63 144h42v-230h-43z" />
    <glyph glyph-name="handle.withcare" unicode="&#xe3c2;" horiz-adv-x="796" 
d="M159 352l227 -155v-197h-161l23 107l-189 232l50 233h50v-220zM640 572h50l51 -233l-189 -232l22 -107h-160v197l226 155v220zM395 490v-258l-207 124v247zM395 718l211 -107l-206 -111l-208 112zM613 603v-247l-207 -124v258z" />
    <glyph glyph-name="Albania" unicode="&#xe40c;" 
d="M1760 366q0 -76 -31.5 -146t-88 -131t-136 -110.5t-175 -84.5t-204 -54.5t-224.5 -19.5q-119 0 -228.5 19.5t-204 54.5t-172 84.5t-132 110.5t-84.5 131t-30 146t30 146t84.5 131t132 110.5t172 85t204 55t228.5 19.5q116 0 224.5 -19.5t204 -55t175 -85t136 -110.5
t88 -131t31.5 -146zM1021 37h387v117h-242v540h-145v-657zM637 298l52 255h7l56 -255h-115zM777 186l36 -149h150l-186 656h-169l-182 -656h151l34 149h166z" />
    <glyph glyph-name="Arab.Emirates" unicode="&#xe40d;" 
d="M1760 366q0 -76 -31.5 -146t-88 -131t-136 -110.5t-175 -84.5t-204 -54.5t-224.5 -19.5q-119 0 -228.5 19.5t-204 54.5t-172 84.5t-132 110.5t-84.5 131t-30 146t30 146t84.5 131t132 110.5t172 85t204 55t228.5 19.5q116 0 224.5 -19.5t204 -55t175 -85t136 -110.5
t88 -131t31.5 -146zM613 298l53 255h7l56 -255h-116zM754 186l35 -149h151l-186 656h-169l-182 -656h151l34 149h166zM977 37h387v117h-241v167h212v115h-212v140h241v118h-387v-657z" />
    <glyph glyph-name="Argentina" unicode="&#xe40e;" 
d="M1760 366q0 -76 -31.5 -146t-88 -131t-136 -110.5t-175 -84.5t-204 -54.5t-224.5 -19.5q-119 0 -228.5 19.5t-204 54.5t-172 84.5t-132 110.5t-84.5 131t-30 146t30 146t84.5 131t132 110.5t172 85t204 55t228.5 19.5q116 0 224.5 -19.5t204 -55t175 -85t136 -110.5
t88 -131t31.5 -146zM607 298l53 255h6l56 -255h-115zM748 186l35 -149h151l-186 656h-170l-181 -656h150l35 149h166zM1412 37l-47 114l-47 115l-63 49q27 8 50.5 22.5t41 37.5t27.5 54.5t10 74.5q0 61 -21 98t-54 57.5t-72 27t-75 6.5h-196v-656h145v264h56l50 -132
l49 -132h146zM1238 500q0 -45 -20 -64.5t-59 -22.5h-48v166h40q17 0 33 -3t28 -12t19 -24.5t7 -39.5z" />
    <glyph glyph-name="Bulgaria" unicode="&#xe40f;" 
d="M1760 366q0 -76 -31.5 -146t-88 -131t-136 -110.5t-175 -84.5t-204 -54.5t-224.5 -19.5q-119 0 -228.5 19.5t-204 54.5t-172 84.5t-132 110.5t-84.5 131t-30 146t30 146t84.5 131t132 110.5t172 85t204 55t228.5 19.5q116 0 224.5 -19.5t204 -55t175 -85t136 -110.5
t88 -131t31.5 -146zM737 389q46 17 67.5 54.5t21.5 79.5q0 43 -15.5 75.5t-42.5 53.5t-62.5 31.5t-75.5 10.5h-231v-657h257q41 0 75.5 14t60 39.5t40 60.5t14.5 77q0 55 -25 97.5t-84 60.5v3zM701 237q0 -26 -7.5 -43.5t-21 -27.5t-31.5 -14t-40 -4h-57v178h57
q41 0 70.5 -21t29.5 -68zM682 516q0 -44 -24 -62.5t-59 -18.5h-55v146h61q13 0 26.5 -3t24.5 -10.5t18.5 -20t7.5 -31.5zM919 372q0 -74 13 -137.5t43 -110.5t80 -73.5t125 -26.5q19 0 44 2t52.5 8t56.5 16.5t58 27.5v322h-191v-84l52 -8v-152q-8 -4 -23 -7.5t-30 -3.5
q-59 0 -91 61t-32 173q0 97 34 153t100 56q29 0 63 -7t58 -18l37 100q-33 18 -76 31t-101 13q-69 0 -120.5 -28t-85 -74.5t-50 -107t-16.5 -125.5z" />
    <glyph glyph-name="Byelorussia" unicode="&#xe410;" 
d="M1760 366q0 -76 -31.5 -146t-88 -131t-136 -110.5t-175 -84.5t-204 -54.5t-224.5 -19.5q-119 0 -228.5 19.5t-204 54.5t-172 84.5t-132 110.5t-84.5 131t-30 146t30 146t84.5 131t132 110.5t172 85t204 55t228.5 19.5q116 0 224.5 -19.5t204 -55t175 -85t136 -110.5
t88 -131t31.5 -146zM781 389q46 17 67.5 54.5t21.5 79.5q0 43 -15.5 75.5t-42.5 53.5t-62.5 31.5t-75.5 10.5h-231v-657h257q41 0 75.5 14t60 39.5t40 60.5t14.5 77q0 55 -25 97.5t-84 60.5v3zM745 237q0 -26 -7.5 -43.5t-21 -27.5t-31.5 -14t-40 -4h-57v178h57
q41 0 70.5 -21t29.5 -68zM726 516q0 -44 -24 -62.5t-59 -18.5h-55v146h61q13 0 26.5 -3t24.5 -10.5t18.5 -20t7.5 -31.5zM1171 425l-36 96l-75 172h-152l191 -404v-252h145v254l195 402h-152l-73 -172l-37 -96h-6z" />
    <glyph glyph-name="Brazil" unicode="&#xe411;" 
d="M1760 366q0 -76 -31.5 -146t-88 -131t-136 -110.5t-175 -84.5t-204 -54.5t-224.5 -19.5q-119 0 -228.5 19.5t-204 54.5t-172 84.5t-132 110.5t-84.5 131t-30 146t30 146t84.5 131t132 110.5t172 85t204 55t228.5 19.5q116 0 224.5 -19.5t204 -55t175 -85t136 -110.5
t88 -131t31.5 -146zM756 389q47 17 68.5 54.5t21.5 79.5q0 43 -16 75.5t-43 53.5t-62.5 31.5t-74.5 10.5h-231v-657h257q41 0 75.5 14t60 39.5t39.5 60.5t14 77q0 55 -25 97.5t-84 60.5v3zM721 237q0 -26 -7.5 -43.5t-21 -27.5t-32 -14t-39.5 -4h-57v178h57q41 0 70.5 -21
t29.5 -68zM701 516q0 -44 -23.5 -62.5t-58.5 -18.5h-55v146h60q13 0 26.5 -3t25 -10.5t18.5 -20t7 -31.5zM1412 37l-47 114l-47 115l-63 49q27 8 50.5 22.5t41 37.5t27.5 54.5t10 74.5q0 61 -21 98t-54 57.5t-72 27t-75 6.5h-196v-656h145v264h56l50 -132l49 -132h146z
M1238 500q0 -45 -20 -64.5t-59 -22.5h-48v166h40q17 0 33 -3t28 -12t19 -24.5t7 -39.5z" />
    <glyph glyph-name="Serbia" unicode="&#xe412;" 
d="M1760 366q0 -76 -31.5 -146t-88 -131t-136 -110.5t-175 -84.5t-204 -54.5t-224.5 -19.5q-119 0 -228.5 19.5t-204 54.5t-172 84.5t-132 110.5t-84.5 131t-30 146t30 146t84.5 131t132 110.5t172 85t204 55t228.5 19.5q116 0 224.5 -19.5t204 -55t175 -85t136 -110.5
t88 -131t31.5 -146zM1128 25q54 0 99.5 11t78.5 35t51.5 62t18.5 92q0 48 -11 81.5t-35.5 58t-63 42.5t-93.5 36q-46 15 -67 30.5t-21 49.5q0 19 7 32t18 20.5t25 10.5t29 3q4 0 19 -0.5t35 -2.5t44 -7t47 -14q1 5 5.5 19.5l9.5 30.5l9.5 30.5t6.5 19.5q-18 10 -39.5 18
t-45 13t-46 7.5t-41.5 2.5q-45 0 -87 -9.5t-74.5 -31.5t-52 -58t-19.5 -88q0 -50 13 -82t38 -54t60.5 -37.5t80.5 -30.5q25 -8 43.5 -15.5t30.5 -17.5t17.5 -24t5.5 -35q0 -45 -25 -62.5t-76 -17.5q-8 0 -23.5 1t-35.5 4t-42.5 8t-44.5 14l-37 -105q19 -11 42.5 -18.5
t49 -12t50.5 -7t46 -2.5zM646 24q62 0 111.5 12.5t91.5 41.5l-39 100q-44 -18 -74 -25.5t-60 -7.5q-54 0 -82.5 60t-28.5 174q0 97 28.5 152.5t92.5 55.5q29 0 59.5 -6.5t58.5 -17.5l37 98q-32 19 -73.5 32t-100.5 13q-69 0 -117.5 -28t-80 -74.5t-46 -107t-14.5 -126.5
q0 -74 11.5 -137t39 -109.5t73 -73t113.5 -26.5z" />
    <glyph glyph-name="Czech.Republic" unicode="&#xe413;" 
d="M1760 366q0 -76 -31.5 -146t-88 -131t-136 -110.5t-175 -84.5t-204 -54.5t-224.5 -19.5q-119 0 -228.5 19.5t-204 54.5t-172 84.5t-132 110.5t-84.5 131t-30 146t30 146t84.5 131t132 110.5t172 85t204 55t228.5 19.5q116 0 224.5 -19.5t204 -55t175 -85t136 -110.5
t88 -131t31.5 -146zM646 24q62 0 111.5 12.5t91.5 41.5l-39 100q-44 -18 -74 -25.5t-60 -7.5q-54 0 -82.5 60t-28.5 174q0 97 28.5 152.5t92.5 55.5q29 0 59.5 -6.5t58.5 -17.5l37 98q-32 19 -73.5 32t-100.5 13q-69 0 -117.5 -28t-80 -74.5t-46 -107t-14.5 -126.5
q0 -74 11.5 -137t39 -109.5t73 -73t113.5 -26.5zM912 37h429v117h-268l256 436v104h-395v-118h231l-253 -431v-108z" />
    <glyph glyph-name="Cyprus" unicode="&#xe414;" 
d="M1760 366q0 -76 -31.5 -146t-88 -131t-136 -110.5t-175 -84.5t-204 -54.5t-224.5 -19.5q-119 0 -228.5 19.5t-204 54.5t-172 84.5t-132 110.5t-84.5 131t-30 146t30 146t84.5 131t132 110.5t172 85t204 55t228.5 19.5q116 0 224.5 -19.5t204 -55t175 -85t136 -110.5
t88 -131t31.5 -146zM675 24q61 0 110.5 12.5t91.5 41.5l-38 100q-44 -18 -74.5 -25.5t-59.5 -7.5q-55 0 -83 60t-28 174q0 97 28.5 152.5t92.5 55.5q29 0 59.5 -6.5t57.5 -17.5l38 98q-32 19 -73.5 32t-100.5 13q-69 0 -118 -28t-80.5 -74.5t-46 -107t-14.5 -126.5
q0 -74 11.5 -137t39.5 -109.5t73.5 -73t113.5 -26.5zM1186 425l-37 96l-75 172h-151l190 -404v-252h145v254l195 402h-152l-73 -172l-37 -96h-5z" />
    <glyph glyph-name="Canada" unicode="&#xe415;" 
d="M1760 366q0 -76 -31.5 -146t-88 -131t-136 -110.5t-175 -84.5t-204 -54.5t-224.5 -19.5q-119 0 -228.5 19.5t-204 54.5t-172 84.5t-132 110.5t-84.5 131t-30 146t30 146t84.5 131t132 110.5t172 85t204 55t228.5 19.5q116 0 224.5 -19.5t204 -55t175 -85t136 -110.5
t88 -131t31.5 -146zM660 24q61 0 110.5 12.5t91.5 41.5l-38 100q-45 -18 -75 -25.5t-60 -7.5q-54 0 -82.5 60t-28.5 174q0 97 29 152.5t92 55.5q29 0 60 -6.5t58 -17.5l37 98q-32 19 -73 32t-100 13q-69 0 -118 -28t-80.5 -74.5t-46 -107t-14.5 -126.5q0 -74 11.5 -137
t39 -109.5t73.5 -73t114 -26.5zM1102 298l53 255h6l56 -255h-115zM1243 186l35 -149h151l-186 656h-170l-181 -656h151l34 149h166z" />
    <glyph glyph-name="China" unicode="&#xe416;" 
d="M1760 366q0 -76 -31.5 -146t-88 -131t-136 -110.5t-175 -84.5t-204 -54.5t-224.5 -19.5q-119 0 -228.5 19.5t-204 54.5t-172 84.5t-132 110.5t-84.5 131t-30 146t30 146t84.5 131t132 110.5t172 85t204 55t228.5 19.5q116 0 224.5 -19.5t204 -55t175 -85t136 -110.5
t88 -131t31.5 -146zM645 24q62 0 111.5 12.5t91.5 41.5l-39 100q-44 -18 -74 -25.5t-60 -7.5q-55 0 -83 60t-28 174q0 97 28.5 152.5t92.5 55.5q29 0 59.5 -6.5t58.5 -17.5l37 98q-32 19 -73.5 32t-100.5 13q-69 0 -117.5 -28t-80 -74.5t-46 -107t-14.5 -126.5
q0 -74 11.5 -137t39 -109.5t73 -73t113.5 -26.5zM1253 312l-186 380h-165v-655h137v407h7l200 -407h152v655h-140v-380h-5z" />
    <glyph glyph-name="Switzerland" unicode="&#xe417;" 
d="M1760 366q0 -76 -31.5 -146t-88 -131t-136 -110.5t-175 -84.5t-204 -54.5t-224.5 -19.5q-119 0 -228.5 19.5t-204 54.5t-172 84.5t-132 110.5t-84.5 131t-30 146t30 146t84.5 131t132 110.5t172 85t204 55t228.5 19.5q116 0 224.5 -19.5t204 -55t175 -85t136 -110.5
t88 -131t31.5 -146zM632 24q62 0 111.5 12.5t91.5 41.5l-39 100q-44 -18 -74.5 -25.5t-59.5 -7.5q-55 0 -83 60t-28 174q0 97 28.5 152.5t92.5 55.5q29 0 59.5 -6.5t57.5 -17.5l38 98q-32 19 -73.5 32t-100.5 13q-69 0 -118 -28t-80 -74.5t-45.5 -107t-14.5 -126.5
q0 -74 11.5 -137t39 -109.5t73 -73t113.5 -26.5zM1245 37h144v657h-144v-260h-184v260h-145v-657h145v284h184v-284z" />
    <glyph glyph-name="Cuba" unicode="&#xe418;" 
d="M1760 366q0 -76 -31.5 -146t-88 -131t-136 -110.5t-175 -84.5t-204 -54.5t-224.5 -19.5q-119 0 -228.5 19.5t-204 54.5t-172 84.5t-132 110.5t-84.5 131t-30 146t30 146t84.5 131t132 110.5t172 85t204 55t228.5 19.5q116 0 224.5 -19.5t204 -55t175 -85t136 -110.5
t88 -131t31.5 -146zM1384 693h-147v-451q0 -45 -22 -72t-70 -27q-46 0 -64 27t-18 72v451h-145v-466q0 -92 55.5 -147.5t171.5 -55.5q58 0 103 14.5t75 41.5t45.5 64.5t15.5 82.5v466zM644 24q62 0 111.5 12.5t91.5 41.5l-39 100q-44 -18 -74 -25.5t-60 -7.5q-55 0 -83 60
t-28 174q0 97 28.5 152.5t92.5 55.5q29 0 59.5 -6.5t58.5 -17.5l37 98q-32 19 -73.5 32t-100.5 13q-69 0 -118 -28t-80 -74.5t-45.5 -107t-14.5 -126.5q0 -74 11.5 -137t39 -109.5t73 -73t113.5 -26.5z" />
    <glyph glyph-name="Germany" unicode="&#xe419;" 
d="M1760 366q0 -76 -31.5 -146t-88 -131t-136 -110.5t-175 -84.5t-204 -54.5t-224.5 -19.5q-119 0 -228.5 19.5t-204 54.5t-172 84.5t-132 110.5t-84.5 131t-30 146t30 146t84.5 131t132 110.5t172 85t204 55t228.5 19.5q116 0 224.5 -19.5t204 -55t175 -85t136 -110.5
t88 -131t31.5 -146zM981 38h387v117h-241v167h213v116h-213v139h241v118h-387v-657zM882 370q0 109 -25 173.5t-65.5 98t-91 43t-102.5 9.5h-179v-657h180q81 0 135 20.5t87 61.5t47 104t14 147zM732 375q0 -52 -4 -93.5t-16.5 -71t-35.5 -45t-61 -15.5h-52v431h39
q31 0 55 -7.5t40.5 -30t25.5 -62.5t9 -106z" />
    <glyph glyph-name="Denmark" unicode="&#xe41a;" 
d="M1760 366q0 -76 -31.5 -146t-88 -131t-136 -110.5t-175 -84.5t-204 -54.5t-224.5 -19.5q-119 0 -228.5 19.5t-204 54.5t-172 84.5t-132 110.5t-84.5 131t-30 146t30 146t84.5 131t132 110.5t172 85t204 55t228.5 19.5q116 0 224.5 -19.5t204 -55t175 -85t136 -110.5
t88 -131t31.5 -146zM882 370q0 109 -25 173.5t-65.5 98t-91 43t-102.5 9.5h-179v-657h180q81 0 135 20.5t87 61.5t47 104t14 147zM732 375q0 -52 -4 -93.5t-16.5 -71t-35.5 -45t-61 -15.5h-52v431h39q31 0 55 -7.5t40.5 -30t25.5 -62.5t9 -106zM1109 334l181 -297h177
l-229 343l227 313h-166l-190 -280h-5v280h-146v-656h146v296z" />
    <glyph glyph-name="Spain" unicode="&#xe41b;" 
d="M1760 366q0 -76 -31.5 -146t-88 -131t-136 -110.5t-175 -84.5t-204 -54.5t-224.5 -19.5q-119 0 -228.5 19.5t-204 54.5t-172 84.5t-132 110.5t-84.5 131t-30 146t30 146t84.5 131t132 110.5t172 85t204 55t228.5 19.5q116 0 224.5 -19.5t204 -55t175 -85t136 -110.5
t88 -131t31.5 -146zM441 37h387v117h-241v167h212v115h-212v140h241v118h-387v-657zM1135 25q54 0 99 11t78 35t51.5 62t18.5 92q0 48 -11 81.5t-35 58t-62.5 42.5t-93.5 36q-47 15 -67.5 30.5t-20.5 49.5q0 19 7 32t18 20.5t25 10.5t28 3q4 0 19 -0.5t35.5 -2.5t44 -7
t46.5 -14q2 5 6.5 19.5l9.5 30.5t9 30.5t6 19.5q-17 10 -39 18t-45 13t-45.5 7.5t-41.5 2.5q-45 0 -87 -9.5t-75 -31.5t-52.5 -58t-19.5 -88q0 -50 13.5 -82t38 -54t60.5 -37.5t81 -30.5q25 -8 43.5 -15.5t30.5 -17.5t17.5 -24t5.5 -35q0 -45 -25.5 -62.5t-76.5 -17.5
q-8 0 -23.5 1t-35 4t-42.5 8t-45 14q-2 -5 -7 -20l-11 -32.5l-11.5 -32.5t-6.5 -20q18 -11 42 -18.5t49 -12t50.5 -7t46.5 -2.5z" />
    <glyph glyph-name="Estonia" unicode="&#xe41c;" 
d="M1760 366q0 -76 -31.5 -146t-88 -131t-136 -110.5t-175 -84.5t-204 -54.5t-224.5 -19.5q-119 0 -228.5 19.5t-204 54.5t-172 84.5t-132 110.5t-84.5 131t-30 146t30 146t84.5 131t132 110.5t172 85t204 55t228.5 19.5q116 0 224.5 -19.5t204 -55t175 -85t136 -110.5
t88 -131t31.5 -146zM474 37h387v117h-241v167h212v115h-212v140h241v118h-387v-657zM973 37h387v117h-240v167h212v115h-212v140h240v118h-387v-657z" />
    <glyph glyph-name="Egypt" unicode="&#xe41d;" 
d="M1760 366q0 -76 -31.5 -146t-88 -131t-136 -110.5t-175 -84.5t-204 -54.5t-224.5 -19.5q-119 0 -228.5 19.5t-204 54.5t-172 84.5t-132 110.5t-84.5 131t-30 146t30 146t84.5 131t132 110.5t172 85t204 55t228.5 19.5q116 0 224.5 -19.5t204 -55t175 -85t136 -110.5
t88 -131t31.5 -146zM450 37h387v117h-241v167h212v115h-212v140h241v118h-387v-657zM916 372q0 -74 13 -137.5t43 -110.5t80 -73.5t125 -26.5q19 0 43.5 2t52 8t57 16.5t58.5 27.5v322h-191v-84l51 -8v-152q-8 -4 -23 -7.5t-30 -3.5q-59 0 -91 61t-32 173q0 97 34 153
t100 56q29 0 63.5 -7t57.5 -18l38 100q-33 18 -76 31t-101 13q-69 0 -120.5 -28t-85 -74.5t-50 -107t-16.5 -125.5z" />
    <glyph glyph-name="France" unicode="&#xe41e;" 
d="M1760 366q0 -76 -31.5 -146t-88 -131t-136 -110.5t-175 -84.5t-204 -54.5t-224.5 -19.5q-119 0 -228.5 19.5t-204 54.5t-172 84.5t-132 110.5t-84.5 131t-30 146t30 146t84.5 131t132 110.5t172 85t204 55t228.5 19.5q116 0 224.5 -19.5t204 -55t175 -85t136 -110.5
t88 -131t31.5 -146zM1406 38l-95 229l-63 49q27 8 50.5 22.5t41 37.5t27.5 54.5t10 74.5q0 61 -21 98.5t-53.5 57.5t-71.5 26.5t-75 6.5h-197v-656h145v264h56l50 -132l49 -132h147zM483 36h146v284h211v115h-211v140h240v118h-386v-657zM1232 501q0 -45 -20.5 -64.5
t-58.5 -22.5h-49v167h41q17 0 32.5 -3.5t27.5 -12.5t19.5 -24.5t7.5 -39.5z" />
    <glyph glyph-name="Finland" unicode="&#xe41f;" 
d="M1760 366q0 -76 -31.5 -146t-88 -131t-136 -110.5t-175 -84.5t-204 -54.5t-224.5 -19.5q-119 0 -228.5 19.5t-204 54.5t-172 84.5t-132 110.5t-84.5 131t-30 146t30 146t84.5 131t132 110.5t172 85t204 55t228.5 19.5q116 0 224.5 -19.5t204 -55t175 -85t136 -110.5
t88 -131t31.5 -146zM556 37h147v284h211v115h-211v140h239v118h-386v-657zM1070 37h145v656h-145v-656z" />
    <glyph glyph-name="United.Kingdom" unicode="&#xe420;" 
d="M1760 366q0 -76 -31.5 -146t-88 -131t-136 -110.5t-175 -84.5t-204 -54.5t-224.5 -19.5q-119 0 -228.5 19.5t-204 54.5t-172 84.5t-132 110.5t-84.5 131t-30 146t30 146t84.5 131t132 110.5t172 85t204 55t228.5 19.5q116 0 224.5 -19.5t204 -55t175 -85t136 -110.5
t88 -131t31.5 -146zM1313 390q48 18 69 55.5t21 80.5t-16 75t-43 53t-62.5 31t-75.5 10h-232v-657h259q41 0 76 14t60.5 39.5t39.5 61t14 78.5q0 54 -25 96.5t-85 61.5v1zM1280 238q0 -26 -8 -43.5t-21.5 -28t-32 -14.5t-39.5 -4h-58v179h58q41 0 71 -21t30 -68zM1259 518
q0 -42 -24 -61t-58 -19h-56v145h60q13 0 26.5 -3t25 -10.5t19 -20t7.5 -31.5zM377 373q0 -74 13 -137.5t43.5 -110.5t81 -74t125.5 -27q18 0 42.5 2t52.5 8t57.5 17t58.5 29v322h-192v-84l51 -9v-153q-7 -4 -22 -7t-31 -3q-58 0 -91 61t-33 173q1 97 35 153.5t100 56.5
q29 0 63.5 -6.5t59.5 -17.5l37 100q-34 20 -77 32.5t-102 12.5q-69 0 -120.5 -28t-85 -74.5t-50 -108t-16.5 -127.5z" />
    <glyph glyph-name="Greece" unicode="&#xe421;" 
d="M1760 366q0 -76 -31.5 -146t-88 -131t-136 -110.5t-175 -84.5t-204 -54.5t-224.5 -19.5q-119 0 -228.5 19.5t-204 54.5t-172 84.5t-132 110.5t-84.5 131t-30 146t30 146t84.5 131t132 110.5t172 85t204 55t228.5 19.5q116 0 224.5 -19.5t204 -55t175 -85t136 -110.5
t88 -131t31.5 -146zM1423 36l-47 114l-47 115l-63 49q27 8 50.5 22.5t41 37t27.5 54.5t10 74q0 61 -21 98.5t-54 58t-72 27t-75 6.5h-196v-656h145v264h56l50 -132l49 -132h146zM1249 499q0 -45 -20 -64.5t-59 -22.5h-48v166h40q17 0 33 -3t28 -12t19 -24.5t7 -39.5z
M379 373q0 -74 13 -137.5t43.5 -110.5t81 -74t125.5 -27q19 0 43.5 2t52 8t57 17t58.5 29v322h-192v-84l51 -9v-153q-6 -4 -21 -7t-31 -3q-58 0 -91.5 61t-33.5 173q1 97 35.5 153.5t100.5 56.5q29 0 63 -6.5t59 -17.5l37 100q-34 20 -77 32.5t-102 12.5q-69 0 -120.5 -28
t-85 -74.5t-50 -108t-16.5 -127.5z" />
    <glyph glyph-name="Georgia" unicode="&#xe422;" 
d="M1760 366q0 -76 -31.5 -146t-88 -131t-136 -110.5t-175 -84.5t-204 -54.5t-224.5 -19.5q-119 0 -228.5 19.5t-204 54.5t-172 84.5t-132 110.5t-84.5 131t-30 146t30 146t84.5 131t132 110.5t172 85t204 55t228.5 19.5q116 0 224.5 -19.5t204 -55t175 -85t136 -110.5
t88 -131t31.5 -146zM425 373q0 -74 13 -137.5t43.5 -110.5t81 -74t125.5 -27q19 0 43.5 2t52 8t57 17t58.5 29v322h-192v-84l52 -9v-153q-7 -4 -22 -7t-31 -3q-58 0 -91 61t-33 173q1 97 35 153.5t100 56.5q29 0 63 -6.5t59 -17.5l37 100q-34 20 -77 32.5t-102 12.5
q-69 0 -120.5 -28t-85 -74.5t-50 -108t-16.5 -127.5zM1002 37h387v117h-241v167h212v115h-212v140h241v118h-387v-657z" />
    <glyph glyph-name="Hungary" unicode="&#xe423;" 
d="M1760 366q0 -76 -31.5 -146t-88 -131t-136 -110.5t-175 -84.5t-204 -54.5t-224.5 -19.5q-119 0 -228.5 19.5t-204 54.5t-172 84.5t-132 110.5t-84.5 131t-30 146t30 146t84.5 131t132 110.5t172 85t204 55t228.5 19.5q116 0 224.5 -19.5t204 -55t175 -85t136 -110.5
t88 -131t31.5 -146zM690 38h145v657h-145v-260h-183v260h-145v-657h145v284h183v-284zM1424 694h-146v-451q0 -45 -22 -72t-70 -27q-46 0 -64 27t-18 72v451h-145v-466q0 -46 13.5 -83.5t41.5 -64t70.5 -41t101.5 -14.5q58 0 102.5 14.5t74.5 41.5t45.5 64.5t15.5 82.5v466z
" />
    <glyph glyph-name="Croatia" unicode="&#xe424;" 
d="M1760 366q0 -76 -31.5 -146t-88 -131t-136 -110.5t-175 -84.5t-204 -54.5t-224.5 -19.5q-119 0 -228.5 19.5t-204 54.5t-172 84.5t-132 110.5t-84.5 131t-30 146t30 146t84.5 131t132 110.5t172 85t204 55t228.5 19.5q116 0 224.5 -19.5t204 -55t175 -85t136 -110.5
t88 -131t31.5 -146zM690 38h145v657h-145v-260h-183v260h-145v-657h145v284h183v-284zM1401 37l-47 114l-47 115l-63 49q27 8 50.5 22.5t41 37.5t27.5 54.5t10 74.5q0 61 -21 98t-54 57.5t-72 27t-75 6.5h-196v-656h145v264h56l50 -132l49 -132h146zM1227 500
q0 -45 -20 -64.5t-59 -22.5h-48v166h40q17 0 33 -3t28 -12t19 -24.5t7 -39.5z" />
    <glyph glyph-name="Hong.Kong" unicode="&#xe425;" 
d="M1760 366q0 -76 -31.5 -146t-88 -131t-136 -110.5t-175 -84.5t-204 -54.5t-224.5 -19.5q-119 0 -228.5 19.5t-204 54.5t-172 84.5t-132 110.5t-84.5 131t-30 146t30 146t84.5 131t132 110.5t172 85t204 55t228.5 19.5q116 0 224.5 -19.5t204 -55t175 -85t136 -110.5
t88 -131t31.5 -146zM722 38h144v657h-144v-260h-183v260h-146v-657h146v284h183v-284zM1138 334l182 -297h177l-229 343l227 313h-166l-191 -280h-4v280h-146v-656h146v296z" />
    <glyph glyph-name="Italy" unicode="&#xe426;" 
d="M1760 366q0 -76 -31.5 -146t-88 -131t-136 -110.5t-175 -84.5t-204 -54.5t-224.5 -19.5q-119 0 -228.5 19.5t-204 54.5t-172 84.5t-132 110.5t-84.5 131t-30 146t30 146t84.5 131t132 110.5t172 85t204 55t228.5 19.5q116 0 224.5 -19.5t204 -55t175 -85t136 -110.5
t88 -131t31.5 -146zM574 37h145v656h-145v-656zM1164 576h145v118h-434v-118h141v-539h148v539z" />
    <glyph glyph-name="Israel" unicode="&#xe427;" 
d="M1760 366q0 -76 -31.5 -146t-88 -131t-136 -110.5t-175 -84.5t-204 -54.5t-224.5 -19.5q-119 0 -228.5 19.5t-204 54.5t-172 84.5t-132 110.5t-84.5 131t-30 146t30 146t84.5 131t132 110.5t172 85t204 55t228.5 19.5q116 0 224.5 -19.5t204 -55t175 -85t136 -110.5
t88 -131t31.5 -146zM615 37h145v656h-145v-656zM947 37h387v117h-242v540h-145v-657z" />
    <glyph glyph-name="Iceland" unicode="&#xe428;" 
d="M1760 366q0 -76 -31.5 -146t-88 -131t-136 -110.5t-175 -84.5t-204 -54.5t-224.5 -19.5q-119 0 -228.5 19.5t-204 54.5t-172 84.5t-132 110.5t-84.5 131t-30 146t30 146t84.5 131t132 110.5t172 85t204 55t228.5 19.5q116 0 224.5 -19.5t204 -55t175 -85t136 -110.5
t88 -131t31.5 -146zM1061 25q54 0 99.5 11t78.5 35t51.5 62t18.5 92q0 48 -11 81.5t-35.5 58t-63 42.5t-93.5 36q-46 15 -67 30.5t-21 49.5q0 19 7 32t18 20.5t25 10.5t28 3q5 0 20 -0.5t35 -2.5t44 -7t47 -14l30 100q-17 10 -39 18t-45 13t-45.5 7.5t-41.5 2.5
q-45 0 -87 -9.5t-74.5 -31.5t-52 -58t-19.5 -88q0 -50 13 -82t38 -54t60.5 -37.5t80.5 -30.5q25 -8 43.5 -15.5t30.5 -17.5t17.5 -24t5.5 -35q0 -45 -25 -62.5t-76 -17.5q-8 0 -23.5 1t-35.5 4t-43 8t-45 14q-2 -5 -7 -20l-11 -32.5l-11.5 -32.5t-6.5 -20q19 -11 42.5 -18.5
t49 -12t50.5 -7t46 -2.5zM584 37h145v656h-145v-656z" />
    <glyph glyph-name="Ireland" unicode="&#xe429;" 
d="M1760 366q0 -76 -31.5 -146t-88 -131t-136 -110.5t-175 -84.5t-204 -54.5t-224.5 -19.5q-119 0 -228.5 19.5t-204 54.5t-172 84.5t-132 110.5t-84.5 131t-30 146t30 146t84.5 131t132 110.5t172 85t204 55t228.5 19.5q116 0 224.5 -19.5t204 -55t175 -85t136 -110.5
t88 -131t31.5 -146zM584 37h145v656h-145v-656zM914 37h387v117h-241v167h212v115h-212v140h241v118h-387v-657z" />
    <glyph glyph-name="India" unicode="&#xe42a;" 
d="M1760 366q0 -76 -31.5 -146t-88 -131t-136 -110.5t-175 -84.5t-204 -54.5t-224.5 -19.5q-119 0 -228.5 19.5t-204 54.5t-172 84.5t-132 110.5t-84.5 131t-30 146t30 146t84.5 131t132 110.5t172 85t204 55t228.5 19.5q116 0 224.5 -19.5t204 -55t175 -85t136 -110.5
t88 -131t31.5 -146zM531 37h145v656h-145v-656zM1199 312l-186 380h-165v-655h137v407h7l200 -407h152v655h-140v-380h-5z" />
    <glyph glyph-name="Indonesia" unicode="&#xe42b;" 
d="M1760 366q0 -76 -31.5 -146t-88 -131t-136 -110.5t-175 -84.5t-204 -54.5t-224.5 -19.5q-119 0 -228.5 19.5t-204 54.5t-172 84.5t-132 110.5t-84.5 131t-30 146t30 146t84.5 131t132 110.5t172 85t204 55t228.5 19.5q116 0 224.5 -19.5t204 -55t175 -85t136 -110.5
t88 -131t31.5 -146zM575 37h145v656h-145v-656zM1362 370q0 109 -25 173.5t-65.5 98t-91.5 43t-102 9.5h-180v-657h181q80 0 134.5 20.5t87.5 61.5t47 104t14 147zM1212 375q0 -52 -4 -93.5t-17 -71t-36 -45t-61 -15.5h-51v431h39q31 0 55 -7.5t40.5 -30t25.5 -62.5t9 -106z
" />
    <glyph glyph-name="Iraq" unicode="&#xe42c;" 
d="M1760 366q0 -76 -31.5 -146t-88 -131t-136 -110.5t-175 -84.5t-204 -54.5t-224.5 -19.5q-119 0 -228.5 19.5t-204 54.5t-172 84.5t-132 110.5t-84.5 131t-30 146t30 146t84.5 131t132 110.5t172 85t204 55t228.5 19.5q116 0 224.5 -19.5t204 -55t175 -85t136 -110.5
t88 -131t31.5 -146zM1080 706q-69 0 -116.5 -24.5t-77.5 -69.5t-43 -107.5t-13 -137.5q0 -67 10 -124.5t33 -102t60 -73t92 -37.5q12 -3 26 -4t29 -1l28 -70l28 -70h122l-41 101l-29.5 24.5l-29.5 23.5q48 13 81 42.5t53.5 73t29 99t8.5 118.5q0 76 -13 138.5t-43 107
t-77.5 69t-116.5 24.5zM542 37h145v656h-145v-656zM1080 586q30 0 48.5 -16.5t28.5 -45.5t13 -69t3 -88q0 -50 -3.5 -91t-13 -70.5t-28 -46t-48.5 -16.5t-49 15.5t-29 45t-13.5 71t-3.5 92.5q0 48 3 88t13 69.5t29 45.5t50 16z" />
    <glyph glyph-name="Iran" unicode="&#xe42d;" 
d="M1760 366q0 -76 -31.5 -146t-88 -131t-136 -110.5t-175 -84.5t-204 -54.5t-224.5 -19.5q-119 0 -228.5 19.5t-204 54.5t-172 84.5t-132 110.5t-84.5 131t-30 146t30 146t84.5 131t132 110.5t172 85t204 55t228.5 19.5q116 0 224.5 -19.5t204 -55t175 -85t136 -110.5
t88 -131t31.5 -146zM1323 37l-95 229l-62 49q27 8 50 22.5t40.5 37.5t27.5 54.5t10 74.5q0 61 -21 98t-53.5 57.5t-71.5 27t-75 6.5h-197v-656h146v264h56l50 -132l49 -132h146zM568 37h146v656h-146v-656zM1149 500q0 -45 -20 -64.5t-59 -22.5h-48v166h40q17 0 32.5 -3
t27.5 -12t19.5 -24.5t7.5 -39.5z" />
    <glyph glyph-name="Japan" unicode="&#xe42e;" 
d="M1760 366q0 -76 -31.5 -146t-88 -131t-136 -110.5t-175 -84.5t-204 -54.5t-224.5 -19.5q-119 0 -228.5 19.5t-204 54.5t-172 84.5t-132 110.5t-84.5 131t-30 146t30 146t84.5 131t132 110.5t172 85t204 55t228.5 19.5q116 0 224.5 -19.5t204 -55t175 -85t136 -110.5
t88 -131t31.5 -146zM429 56q36 -17 72.5 -24.5t78.5 -7.5q64 0 103 17.5t60.5 47.5t29 70.5t7.5 87.5v446h-148v-443q0 -56 -15 -80t-60 -24q-19 0 -42 3t-54 11zM1135 293q40 0 81 8.5t73.5 31.5t53 63t20.5 104q0 67 -23.5 106t-57.5 58.5t-72 24.5t-68 5h-198v-657h146
v256h45zM1134 581q15 0 29.5 -3.5t26 -12.5t19 -25.5t7.5 -43.5q0 -29 -7 -46.5t-19.5 -27t-29.5 -13t-37 -3.5h-33v175h44z" />
    <glyph glyph-name="Jordan" unicode="&#xe42f;" 
d="M1760 366q0 -76 -31.5 -146t-88 -131t-136 -110.5t-175 -84.5t-204 -54.5t-224.5 -19.5q-119 0 -228.5 19.5t-204 54.5t-172 84.5t-132 110.5t-84.5 131t-30 146t30 146t84.5 131t132 110.5t172 85t204 55t228.5 19.5q116 0 224.5 -19.5t204 -55t175 -85t136 -110.5
t88 -131t31.5 -146zM380 56q37 -17 73.5 -24.5t78.5 -7.5q63 0 102 17.5t60.5 47.5t29 70.5t7.5 87.5v446h-147v-443q0 -56 -15.5 -80t-59.5 -24q-19 0 -42 3t-55 11zM1106 24q71 0 119 26t77 71.5t41 108.5t12 137q0 76 -13 138.5t-42.5 107t-77 69t-116.5 24.5
t-116.5 -24.5t-77.5 -69.5t-43.5 -107.5t-13.5 -137.5q0 -74 12.5 -137t41.5 -109t77.5 -71.5t119.5 -25.5zM1106 587q31 0 49 -16.5t28 -46t13 -69.5t3 -88q0 -50 -3 -91t-13 -70t-28.5 -45.5t-48.5 -16.5q-31 0 -49.5 15.5t-28.5 45t-13 70.5t-3 92q0 48 3 88.5t13 69.5
t28.5 45.5t49.5 16.5z" />
    <glyph glyph-name="Kuweit" unicode="&#xe430;" 
d="M1760 366q0 -76 -31.5 -146t-88 -131t-136 -110.5t-175 -84.5t-204 -54.5t-224.5 -19.5q-119 0 -228.5 19.5t-204 54.5t-172 84.5t-132 110.5t-84.5 131t-30 146t30 146t84.5 131t132 110.5t172 85t204 55t228.5 19.5q116 0 224.5 -19.5t204 -55t175 -85t136 -110.5
t88 -131t31.5 -146zM398 334l181 -297h177l-228 343l226 313h-166l-190 -280h-5v280h-146v-656h146v296zM907 37h182l56 311l23 148h3l23 -147l56 -312h181l135 655h-157l-50 -354l-16 -141h-6l-26 150l-61 345h-161l-56 -326l-30 -173h-6l-18 156l-55 343h-155z" />
    <glyph glyph-name="Latvia" unicode="&#xe431;" 
d="M1760 366q0 -76 -31.5 -146t-88 -131t-136 -110.5t-175 -84.5t-204 -54.5t-224.5 -19.5q-119 0 -228.5 19.5t-204 54.5t-172 84.5t-132 110.5t-84.5 131t-30 146t30 146t84.5 131t132 110.5t172 85t204 55t228.5 19.5q116 0 224.5 -19.5t204 -55t175 -85t136 -110.5
t88 -131t31.5 -146zM509 37h387v117h-242v540h-145v-657zM1158 303l-27 -134h-5l-25 128l-88 396h-152l177 -656h177l177 656h-148z" />
    <glyph glyph-name="Lithuania" unicode="&#xe432;" 
d="M1760 366q0 -76 -31.5 -146t-88 -131t-136 -110.5t-175 -84.5t-204 -54.5t-224.5 -19.5q-119 0 -228.5 19.5t-204 54.5t-172 84.5t-132 110.5t-84.5 131t-30 146t30 146t84.5 131t132 110.5t172 85t204 55t228.5 19.5q116 0 224.5 -19.5t204 -55t175 -85t136 -110.5
t88 -131t31.5 -146zM524 37h388v117h-242v540h-146v-657zM1190 576h145v118h-433v-118h141v-539h147v539z" />
    <glyph glyph-name="Lebanon" unicode="&#xe433;" 
d="M1760 366q0 -76 -31.5 -146t-88 -131t-136 -110.5t-175 -84.5t-204 -54.5t-224.5 -19.5q-119 0 -228.5 19.5t-204 54.5t-172 84.5t-132 110.5t-84.5 131t-30 146t30 146t84.5 131t132 110.5t172 85t204 55t228.5 19.5q116 0 224.5 -19.5t204 -55t175 -85t136 -110.5
t88 -131t31.5 -146zM487 37h387v117h-242v540h-145v-657zM1275 389q46 17 67.5 54.5t21.5 79.5q0 43 -15.5 75.5t-42.5 53.5t-62.5 31.5t-75.5 10.5h-231v-657h257q41 0 75.5 14t60 39.5t40 60.5t14.5 77q0 55 -25 97.5t-84 60.5v3zM1239 237q0 -26 -7.5 -43.5t-21 -27.5
t-31.5 -14t-40 -4h-57v178h57q41 0 70.5 -21t29.5 -68zM1220 516q0 -44 -24 -62.5t-59 -18.5h-55v146h61q13 0 26.5 -3t24.5 -10.5t18.5 -20t7.5 -31.5z" />
    <glyph glyph-name="Moldavia" unicode="&#xe434;" 
d="M1760 366q0 -76 -31.5 -146t-88 -131t-136 -110.5t-175 -84.5t-204 -54.5t-224.5 -19.5q-119 0 -228.5 19.5t-204 54.5t-172 84.5t-132 110.5t-84.5 131t-30 146t30 146t84.5 131t132 110.5t172 85t204 55t228.5 19.5q116 0 224.5 -19.5t204 -55t175 -85t136 -110.5
t88 -131t31.5 -146zM649 368l-49 111l-89 213h-163v-655h140v417h7l37 -89l72 -176h92l70 171l40 92h5v-415h139v655h-162l-88 -213l-49 -111h-2zM1494 370q0 109 -25 173.5t-65.5 98t-91.5 43t-102 9.5h-180v-657h181q80 0 134.5 20.5t87.5 61.5t47 104t14 147zM1344 375
q0 -52 -4 -93.5t-17 -71t-36 -45t-61 -15.5h-51v431h39q31 0 55 -7.5t40.5 -30t25.5 -62.5t9 -106z" />
    <glyph glyph-name="Mexico" unicode="&#xe435;" 
d="M1760 366q0 -76 -31.5 -146t-88 -131t-136 -110.5t-175 -84.5t-204 -54.5t-224.5 -19.5q-119 0 -228.5 19.5t-204 54.5t-172 84.5t-132 110.5t-84.5 131t-30 146t30 146t84.5 131t132 110.5t172 85t204 55t228.5 19.5q116 0 224.5 -19.5t204 -55t175 -85t136 -110.5
t88 -131t31.5 -146zM619 368l-48 111l-90 213h-162v-655h139v417h7l37 -89l72 -176h92l71 171l39 92h6v-415h138v655h-161l-88 -213l-50 -111h-2zM1238 259l106 -222h158l-182 339l171 317h-159l-93 -210h-4l-96 210h-158l170 -318l-181 -338h159l106 222h3z" />
    <glyph glyph-name="Malta" unicode="&#xe436;" 
d="M1760 366q0 -76 -31.5 -146t-88 -131t-136 -110.5t-175 -84.5t-204 -54.5t-224.5 -19.5q-119 0 -228.5 19.5t-204 54.5t-172 84.5t-132 110.5t-84.5 131t-30 146t30 146t84.5 131t132 110.5t172 85t204 55t228.5 19.5q116 0 224.5 -19.5t204 -55t175 -85t136 -110.5
t88 -131t31.5 -146zM682 368l-49 111l-89 213h-163v-655h140v417h7l37 -89l72 -176h92l70 171l40 92h5v-415h139v655h-162l-88 -213l-49 -111h-2zM1327 576h146v118h-434v-118h141v-539h147v539z" />
    <glyph glyph-name="Norway" unicode="&#xe437;" 
d="M1760 366q0 -76 -31.5 -146t-88 -131t-136 -110.5t-175 -84.5t-204 -54.5t-224.5 -19.5q-119 0 -228.5 19.5t-204 54.5t-172 84.5t-132 110.5t-84.5 131t-30 146t30 146t84.5 131t132 110.5t172 85t204 55t228.5 19.5q116 0 224.5 -19.5t204 -55t175 -85t136 -110.5
t88 -131t31.5 -146zM747 312l-186 380h-165v-655h137v407h7l200 -407h152v655h-140v-380h-5zM1203 24q71 0 118.5 26t76.5 71.5t41.5 108.5t12.5 137q0 76 -13 138.5t-42.5 107t-77 69t-116.5 24.5t-117 -24.5t-77.5 -69.5t-43 -107.5t-13.5 -137.5q0 -74 12.5 -137
t41.5 -109t77.5 -71.5t119.5 -25.5zM1203 587q31 0 49 -16.5t28 -46t13 -69.5t3 -88q0 -50 -3.5 -91t-13 -70t-28 -45.5t-48.5 -16.5q-31 0 -49.5 15.5t-28.5 45t-13 70.5t-3 92q0 48 3 88.5t13 69.5t28.5 45.5t49.5 16.5z" />
    <glyph glyph-name="Netherlands" unicode="&#xe438;" 
d="M1760 366q0 -76 -31.5 -146t-88 -131t-136 -110.5t-175 -84.5t-204 -54.5t-224.5 -19.5q-119 0 -228.5 19.5t-204 54.5t-172 84.5t-132 110.5t-84.5 131t-30 146t30 146t84.5 131t132 110.5t172 85t204 55t228.5 19.5q116 0 224.5 -19.5t204 -55t175 -85t136 -110.5
t88 -131t31.5 -146zM762 312l-186 380h-165v-655h138v407h6l200 -407h152v655h-140v-380h-5zM1062 37h388v117h-242v540h-146v-657z" />
    <glyph glyph-name="New.Zealand" unicode="&#xe439;" 
d="M1760 366q0 -76 -31.5 -146t-88 -131t-136 -110.5t-175 -84.5t-204 -54.5t-224.5 -19.5q-119 0 -228.5 19.5t-204 54.5t-172 84.5t-132 110.5t-84.5 131t-30 146t30 146t84.5 131t132 110.5t172 85t204 55t228.5 19.5q116 0 224.5 -19.5t204 -55t175 -85t136 -110.5
t88 -131t31.5 -146zM781 312l-186 380h-165v-655h137v407h7l200 -407h152v655h-140v-380h-5zM991 37h429v117h-267l255 436v104h-395v-118h231l-253 -431v-108z" />
    <glyph glyph-name="Portugal" unicode="&#xe43a;" 
d="M1760 366q0 -76 -31.5 -146t-88 -131t-136 -110.5t-175 -84.5t-204 -54.5t-224.5 -19.5q-119 0 -228.5 19.5t-204 54.5t-172 84.5t-132 110.5t-84.5 131t-30 146t30 146t84.5 131t132 110.5t172 85t204 55t228.5 19.5q116 0 224.5 -19.5t204 -55t175 -85t136 -110.5
t88 -131t31.5 -146zM632 294q40 0 81 8.5t73.5 31.5t53 63t20.5 104q0 67 -23.5 106t-57.5 58.5t-72 24.5t-68 5h-198v-657h146v256h45zM631 582q15 0 30 -3.5t26.5 -12.5t19 -25.5t7.5 -43.5q0 -29 -7 -46.5t-19.5 -27t-30 -13t-37.5 -3.5h-33v175h44zM1219 577h145v118
h-434v-118h141v-539h148v539z" />
    <glyph glyph-name="Poland" unicode="&#xe43b;" 
d="M1760 366q0 -76 -31.5 -146t-88 -131t-136 -110.5t-175 -84.5t-204 -54.5t-224.5 -19.5q-119 0 -228.5 19.5t-204 54.5t-172 84.5t-132 110.5t-84.5 131t-30 146t30 146t84.5 131t132 110.5t172 85t204 55t228.5 19.5q116 0 224.5 -19.5t204 -55t175 -85t136 -110.5
t88 -131t31.5 -146zM649 294q40 0 80.5 8.5t73 31.5t53 63t20.5 104q0 67 -23.5 106t-57.5 58.5t-72 24.5t-68 5h-198v-657h147v256h45zM648 582q15 0 29.5 -3.5t26 -12.5t19 -25.5t7.5 -43.5q0 -29 -7 -46.5t-19.5 -27t-29.5 -13t-37 -3.5h-33v175h44zM985 37h388v117h-242
v540h-146v-657z" />
    <glyph glyph-name="Pakistan" unicode="&#xe43c;" 
d="M1760 366q0 -76 -31.5 -146t-88 -131t-136 -110.5t-175 -84.5t-204 -54.5t-224.5 -19.5q-119 0 -228.5 19.5t-204 54.5t-172 84.5t-132 110.5t-84.5 131t-30 146t30 146t84.5 131t132 110.5t172 85t204 55t228.5 19.5q116 0 224.5 -19.5t204 -55t175 -85t136 -110.5
t88 -131t31.5 -146zM632 294q40 0 81 8.5t73.5 31.5t53 63t20.5 104q0 67 -23.5 106t-57.5 58.5t-72 24.5t-68 5h-198v-657h146v256h45zM631 582q15 0 30 -3.5t26.5 -12.5t19 -25.5t7.5 -43.5q0 -29 -7 -46.5t-19.5 -27t-30 -13t-37.5 -3.5h-33v175h44zM1106 334l182 -297
h177l-229 343l227 313h-166l-191 -280h-4v280h-146v-656h146v296z" />
    <glyph glyph-name="Palestine" unicode="&#xe43d;" 
d="M1760 366q0 -76 -31.5 -146t-88 -131t-136 -110.5t-175 -84.5t-204 -54.5t-224.5 -19.5q-119 0 -228.5 19.5t-204 54.5t-172 84.5t-132 110.5t-84.5 131t-30 146t30 146t84.5 131t132 110.5t172 85t204 55t228.5 19.5q116 0 224.5 -19.5t204 -55t175 -85t136 -110.5
t88 -131t31.5 -146zM632 294q40 0 81 8.5t73.5 31.5t53 63t20.5 104q0 67 -23.5 106t-57.5 58.5t-72 24.5t-68 5h-198v-657h146v256h45zM631 582q15 0 30 -3.5t26.5 -12.5t19 -25.5t7.5 -43.5q0 -29 -7 -46.5t-19.5 -27t-30 -13t-37.5 -3.5h-33v175h44zM1136 25
q54 0 99.5 11t78.5 35t51.5 62t18.5 92q0 48 -11 81.5t-35.5 58t-63 42.5t-93.5 36q-46 15 -67 30.5t-21 49.5q0 19 7 32t18 20.5t25 10.5t28 3q4 0 19 -0.5t35.5 -2.5t44 -7t46.5 -14q2 5 6.5 19.5l9.5 30.5t9 30.5t6 19.5q-17 10 -39 18t-45 13t-45.5 7.5t-41.5 2.5
q-45 0 -87 -9.5t-75 -31.5t-52.5 -58t-19.5 -88q0 -50 13.5 -82t38 -54t60.5 -37.5t81 -30.5q25 -8 43.5 -15.5t30.5 -17.5t17.5 -24t5.5 -35q0 -45 -25 -62.5t-76 -17.5q-8 0 -23.5 1t-35.5 4t-43 8t-45 14q-2 -5 -7 -20l-11 -32.5l-11.5 -32.5t-6.5 -20q18 -11 42 -18.5
t49 -12t50.5 -7t46.5 -2.5z" />
    <glyph glyph-name="Philipines" unicode="&#xe43e;" 
d="M1760 366q0 -76 -31.5 -146t-88 -131t-136 -110.5t-175 -84.5t-204 -54.5t-224.5 -19.5q-119 0 -228.5 19.5t-204 54.5t-172 84.5t-132 110.5t-84.5 131t-30 146t30 146t84.5 131t132 110.5t172 85t204 55t228.5 19.5q116 0 224.5 -19.5t204 -55t175 -85t136 -110.5
t88 -131t31.5 -146zM609 294q40 0 81 8.5t73.5 31.5t53 63t20.5 104q0 67 -23.5 106t-57.5 58.5t-72 24.5t-68 5h-198v-657h146v256h45zM608 582q15 0 29.5 -3.5t26.5 -12.5t19 -25.5t7 -43.5q0 -29 -7 -46.5t-19.5 -27t-29.5 -13t-37 -3.5h-33v175h44zM1248 37h144v657
h-144v-260h-183v260h-146v-657h146v284h183v-284z" />
    <glyph glyph-name="Romania" unicode="&#xe43f;" 
d="M1760 366q0 -76 -31.5 -146t-88 -131t-136 -110.5t-175 -84.5t-204 -54.5t-224.5 -19.5q-119 0 -228.5 19.5t-204 54.5t-172 84.5t-132 110.5t-84.5 131t-30 146t30 146t84.5 131t132 110.5t172 85t204 55t228.5 19.5q116 0 224.5 -19.5t204 -55t175 -85t136 -110.5
t88 -131t31.5 -146zM1157 24q71 0 118.5 26t76.5 71.5t41.5 108.5t12.5 137q0 76 -13 138.5t-42.5 107t-77 69t-116.5 24.5t-117 -24.5t-77.5 -69.5t-43 -107.5t-13.5 -137.5q0 -74 12.5 -137t41.5 -109t77.5 -71.5t119.5 -25.5zM873 37l-95 229l-62 49q27 8 50 22.5
t40.5 37.5t27.5 54.5t10 74.5q0 61 -21 98t-53.5 57.5t-71.5 27t-75 6.5h-197v-656h146v264h56l50 -132l49 -132h146zM1157 587q30 0 48.5 -16.5t28 -46t12.5 -69.5t3 -88q0 -50 -3 -91t-13 -70t-28 -45.5t-48 -16.5q-31 0 -50 15.5t-29 45t-13 70.5t-3 92q0 48 3 88.5
t13 69.5t28.5 45.5t50.5 16.5zM699 500q0 -45 -20 -64.5t-59 -22.5h-48v166h40q17 0 32.5 -3t27.5 -12t19.5 -24.5t7.5 -39.5z" />
    <glyph glyph-name="Russia" unicode="&#xe440;" 
d="M1760 366q0 -76 -31.5 -146t-88 -131t-136 -110.5t-175 -84.5t-204 -54.5t-224.5 -19.5q-119 0 -228.5 19.5t-204 54.5t-172 84.5t-132 110.5t-84.5 131t-30 146t30 146t84.5 131t132 110.5t172 85t204 55t228.5 19.5q116 0 224.5 -19.5t204 -55t175 -85t136 -110.5
t88 -131t31.5 -146zM853 37l-94 229l-63 49q27 8 50.5 22.5t41 37.5t27.5 54.5t10 74.5q0 61 -21 98t-53.5 57.5t-71.5 27t-75 6.5h-197v-656h145v264h56l50 -132l49 -132h146zM1406 693h-147v-451q0 -45 -22 -72t-70 -27q-46 0 -64 27t-18 72v451h-145v-466
q0 -92 55.5 -147.5t171.5 -55.5q58 0 103 14.5t75 41.5t45.5 64.5t15.5 82.5v466zM679 500q0 -45 -20 -64.5t-59 -22.5h-48v166h41q17 0 32.5 -3t27.5 -12t19 -24.5t7 -39.5z" />
    <glyph glyph-name="Slovenia" unicode="&#xe441;" 
d="M1760 366q0 -76 -31.5 -146t-88 -131t-136 -110.5t-175 -84.5t-204 -54.5t-224.5 -19.5q-119 0 -228.5 19.5t-204 54.5t-172 84.5t-132 110.5t-84.5 131t-30 146t30 146t84.5 131t132 110.5t172 85t204 55t228.5 19.5q116 0 224.5 -19.5t204 -55t175 -85t136 -110.5
t88 -131t31.5 -146zM648 25q54 0 99 11t78 35t51.5 62t18.5 92q0 48 -11 81.5t-35 58t-62.5 42.5t-93.5 36q-47 15 -67.5 30.5t-20.5 49.5q0 19 6.5 32t17.5 20.5t25 10.5t29 3q4 0 19 -0.5t35 -2.5t44 -7t47 -14q1 5 5.5 19.5l9.5 30.5l9.5 30.5t6.5 19.5q-17 10 -39 18
t-45 13t-46 7.5t-42 2.5q-45 0 -87 -9.5t-74.5 -31.5t-52 -58t-19.5 -88q0 -50 13.5 -82t38 -54t60 -37.5t80.5 -30.5q26 -8 44.5 -15.5t30 -17.5t17 -24t5.5 -35q0 -45 -25 -62.5t-76 -17.5q-8 0 -23.5 1t-35.5 4t-42.5 8t-44.5 14l-37 -105q19 -11 42.5 -18.5t49 -12
t50.5 -7t47 -2.5zM1041 37h146v656h-146v-656z" />
    <glyph glyph-name="Sweden" unicode="&#xe442;" 
d="M1760 366q0 -76 -31.5 -146t-88 -131t-136 -110.5t-175 -84.5t-204 -54.5t-224.5 -19.5q-119 0 -228.5 19.5t-204 54.5t-172 84.5t-132 110.5t-84.5 131t-30 146t30 146t84.5 131t132 110.5t172 85t204 55t228.5 19.5q116 0 224.5 -19.5t204 -55t175 -85t136 -110.5
t88 -131t31.5 -146zM641 25q54 0 99 11t78 35t51.5 62t18.5 92q0 48 -11 81.5t-35 58t-62.5 42.5t-93.5 36q-47 15 -67.5 30.5t-20.5 49.5q0 19 7 32t18 20.5t25 10.5t28 3q4 0 19 -0.5t35.5 -2.5t44 -7t46.5 -14q2 5 6.5 19.5l9.5 30.5t9 30.5t6 19.5q-17 10 -39 18t-45 13
t-45.5 7.5t-41.5 2.5q-45 0 -87 -9.5t-75 -31.5t-52.5 -58t-19.5 -88q0 -50 13.5 -82t38 -54t60.5 -37.5t81 -30.5q25 -8 43.5 -15.5t30.5 -17.5t17.5 -24t5.5 -35q0 -45 -25.5 -62.5t-76.5 -17.5q-8 0 -23.5 1t-35 4t-42.5 8t-45 14q-2 -5 -7 -20l-11 -32.5l-11.5 -32.5
t-6.5 -20q18 -11 42 -18.5t49 -12t50.5 -7t46.5 -2.5zM966 37h387v117h-241v167h212v115h-212v140h241v118h-387v-657z" />
    <glyph glyph-name="Slovakia" unicode="&#xe443;" 
d="M1760 366q0 -76 -31.5 -146t-88 -131t-136 -110.5t-175 -84.5t-204 -54.5t-224.5 -19.5q-119 0 -228.5 19.5t-204 54.5t-172 84.5t-132 110.5t-84.5 131t-30 146t30 146t84.5 131t132 110.5t172 85t204 55t228.5 19.5q116 0 224.5 -19.5t204 -55t175 -85t136 -110.5
t88 -131t31.5 -146zM638 25q54 0 99 11t78 35t51.5 62t18.5 92q0 48 -11 81.5t-35 58t-62.5 42.5t-93.5 36q-47 15 -67.5 30.5t-20.5 49.5q0 19 6.5 32t17.5 20.5t25 10.5t29 3q4 0 19 -0.5t35.5 -2.5t44 -7t46.5 -14q1 5 5.5 19.5l9.5 30.5l9.5 30.5t6.5 19.5
q-17 10 -39 18t-45 13t-46 7.5t-42 2.5q-45 0 -87 -9.5t-74.5 -31.5t-52 -58t-19.5 -88q0 -50 13.5 -82t38 -54t60.5 -37.5t81 -30.5q25 -8 43.5 -15.5t30 -17.5t17 -24t5.5 -35q0 -45 -25 -62.5t-76 -17.5q-8 0 -23.5 1t-35.5 4t-42.5 8t-44.5 14q-2 -5 -7 -20l-11 -32.5
l-11.5 -32.5t-6.5 -20q18 -11 41.5 -18.5t49 -12t50.5 -7t47 -2.5zM1098 334l181 -297h177l-229 343l227 313h-166l-190 -280h-5v280h-146v-656h146v296z" />
    <glyph glyph-name="Singapore" unicode="&#xe444;" 
d="M1760 366q0 -76 -31.5 -146t-88 -131t-136 -110.5t-175 -84.5t-204 -54.5t-224.5 -19.5q-119 0 -228.5 19.5t-204 54.5t-172 84.5t-132 110.5t-84.5 131t-30 146t30 146t84.5 131t132 110.5t172 85t204 55t228.5 19.5q116 0 224.5 -19.5t204 -55t175 -85t136 -110.5
t88 -131t31.5 -146zM606 25q54 0 99 11t78 35t51.5 62t18.5 92q0 48 -11 81.5t-35 58t-62.5 42.5t-93.5 36q-47 15 -67.5 30.5t-20.5 49.5q0 19 6.5 32t17.5 20.5t25 10.5t29 3q4 0 19 -0.5t35.5 -2.5t44 -7t46.5 -14q2 5 6.5 19.5l9.5 30.5t9 30.5t6 19.5q-17 10 -39 18
t-45 13t-46 7.5t-42 2.5q-45 0 -87 -9.5t-74.5 -31.5t-52 -58t-19.5 -88q0 -50 13.5 -82t38 -54t60.5 -37.5t81 -30.5q25 -8 43.5 -15.5t30 -17.5t17 -24t5.5 -35q0 -45 -25 -62.5t-76 -17.5q-8 0 -23.5 1t-35.5 4t-42.5 8t-44.5 14q-2 -5 -7 -20l-11 -32.5l-11.5 -32.5
t-6.5 -20q18 -11 42 -18.5t49 -12t50.5 -7t46.5 -2.5zM923 372q0 -74 12.5 -137.5t42.5 -110.5t80 -73.5t125 -26.5q19 0 44 2t52.5 8t57 16.5t58.5 27.5v322h-192v-84l52 -8v-152q-8 -4 -23 -7.5t-30 -3.5q-59 0 -91 61t-32 173q0 97 34 153t100 56q29 0 63 -7t58 -18
l37 100q-33 18 -76 31t-101 13q-69 0 -120 -28t-84.5 -74.5t-50 -107t-16.5 -125.5z" />
    <glyph glyph-name="Saudi.Arabia" unicode="&#xe445;" 
d="M1760 366q0 -76 -31.5 -146t-88 -131t-136 -110.5t-175 -84.5t-204 -54.5t-224.5 -19.5q-119 0 -228.5 19.5t-204 54.5t-172 84.5t-132 110.5t-84.5 131t-30 146t30 146t84.5 131t132 110.5t172 85t204 55t228.5 19.5q116 0 224.5 -19.5t204 -55t175 -85t136 -110.5
t88 -131t31.5 -146zM1249 186l36 -149h150l-186 656h-169l-182 -656h151l34 149h166zM612 25q54 0 99.5 11t78.5 35t51.5 62t18.5 92q0 48 -11 81.5t-35.5 58t-63 42.5t-93.5 36q-46 15 -67 30.5t-21 49.5q0 19 7 32t18 20.5t25 10.5t29 3q4 0 19 -0.5t35 -2.5t44 -7t47 -14
q1 5 5.5 19.5l9.5 30.5l9.5 30.5t6.5 19.5q-18 10 -39.5 18t-45 13t-46 7.5t-41.5 2.5q-45 0 -87 -9.5t-74.5 -31.5t-52 -58t-19.5 -88q0 -50 13 -82t38 -54t60.5 -37.5t80.5 -30.5q25 -8 43.5 -15.5t30.5 -17.5t17.5 -24t5.5 -35q0 -45 -25 -62.5t-76 -17.5q-8 0 -23.5 1
t-35.5 4t-42.5 8t-44.5 14l-37 -105q19 -11 42.5 -18.5t49 -12t50.5 -7t46 -2.5zM1109 298l52 255h7l56 -255h-115z" />
    <glyph glyph-name="Turkey" unicode="&#xe446;" 
d="M1760 366q0 -76 -31.5 -146t-88 -131t-136 -110.5t-175 -84.5t-204 -54.5t-224.5 -19.5q-119 0 -228.5 19.5t-204 54.5t-172 84.5t-132 110.5t-84.5 131t-30 146t30 146t84.5 131t132 110.5t172 85t204 55t228.5 19.5q116 0 224.5 -19.5t204 -55t175 -85t136 -110.5
t88 -131t31.5 -146zM1389 37l-95 229l-62 49q27 8 50 22.5t40.5 37.5t27.5 54.5t10 74.5q0 61 -21 98t-53.5 57.5t-71.5 27t-75 6.5h-197v-656h146v264h56l50 -132l49 -132h146zM709 576h145v118h-433v-118h141v-539h147v539zM1215 500q0 -45 -20 -64.5t-59 -22.5h-48v166
h40q17 0 32.5 -3t27.5 -12t19.5 -24.5t7.5 -39.5z" />
    <glyph glyph-name="Thailand" unicode="&#xe447;" 
d="M1760 366q0 -76 -31.5 -146t-88 -131t-136 -110.5t-175 -84.5t-204 -54.5t-224.5 -19.5q-119 0 -228.5 19.5t-204 54.5t-172 84.5t-132 110.5t-84.5 131t-30 146t30 146t84.5 131t132 110.5t172 85t204 55t228.5 19.5q116 0 224.5 -19.5t204 -55t175 -85t136 -110.5
t88 -131t31.5 -146zM674 576h145v118h-433v-118h141v-539h147v539zM1219 37h144v657h-144v-260h-184v260h-145v-657h145v284h184v-284z" />
    <glyph glyph-name="Ukraine" unicode="&#xe448;" 
d="M1760 366q0 -76 -31.5 -146t-88 -131t-136 -110.5t-175 -84.5t-204 -54.5t-224.5 -19.5q-119 0 -228.5 19.5t-204 54.5t-172 84.5t-132 110.5t-84.5 131t-30 146t30 146t84.5 131t132 110.5t172 85t204 55t228.5 19.5q116 0 224.5 -19.5t204 -55t175 -85t136 -110.5
t88 -131t31.5 -146zM843 693h-146v-451q0 -45 -22 -72t-70 -27q-46 0 -64 27t-18 72v451h-145v-466q0 -92 55.5 -147.5t171.5 -55.5q58 0 102.5 14.5t74.5 41.5t45.5 64.5t15.5 82.5v466zM1096 298l53 255h7l56 -255h-116zM1237 186l35 -149h151l-186 656h-169l-182 -656
h151l34 149h166z" />
    <glyph glyph-name="United.States" unicode="&#xe449;" 
d="M1760 366q0 -76 -31.5 -146t-88 -131t-136 -110.5t-175 -84.5t-204 -54.5t-224.5 -19.5q-119 0 -228.5 19.5t-204 54.5t-172 84.5t-132 110.5t-84.5 131t-30 146t30 146t84.5 131t132 110.5t172 85t204 55t228.5 19.5q116 0 224.5 -19.5t204 -55t175 -85t136 -110.5
t88 -131t31.5 -146zM870 693h-147v-451q0 -45 -22 -72t-70 -27q-45 0 -63 27t-18 72v451h-146v-466q0 -92 55.5 -147.5t171.5 -55.5q58 0 103 14.5t75 41.5t45.5 64.5t15.5 82.5v466zM1158 25q54 0 99.5 11t78.5 35t51.5 62t18.5 92q0 48 -11 81.5t-35.5 58t-63 42.5
t-93.5 36q-46 15 -67 30.5t-21 49.5q0 19 7 32t18 20.5t25 10.5t28 3q4 0 19 -0.5t35.5 -2.5t44 -7t46.5 -14q2 5 6.5 19.5l9.5 30.5t9 30.5t6 19.5q-17 10 -39 18t-45 13t-45.5 7.5t-41.5 2.5q-45 0 -87 -9.5t-75 -31.5t-52.5 -58t-19.5 -88q0 -50 13.5 -82t38 -54
t60.5 -37.5t81 -30.5q25 -8 43.5 -15.5t30.5 -17.5t17.5 -24t5.5 -35q0 -45 -25 -62.5t-76 -17.5q-8 0 -23.5 1t-35.5 4t-43 8t-45 14q-2 -5 -7 -20l-11 -32.5l-11.5 -32.5t-6.5 -20q18 -11 42 -18.5t49 -12t50.5 -7t46.5 -2.5z" />
    <glyph glyph-name="Venezuela" unicode="&#xe44a;" 
d="M1760 366q0 -76 -31.5 -146t-88 -131t-136 -110.5t-175 -84.5t-204 -54.5t-224.5 -19.5q-119 0 -228.5 19.5t-204 54.5t-172 84.5t-132 110.5t-84.5 131t-30 146t30 146t84.5 131t132 110.5t172 85t204 55t228.5 19.5q116 0 224.5 -19.5t204 -55t175 -85t136 -110.5
t88 -131t31.5 -146zM674 303l-28 -134h-4l-25 128l-88 396h-152l177 -656h177l177 656h-148zM968 37h387v117h-241v167h212v115h-212v140h241v118h-387v-657z" />
    <glyph glyph-name="Yemen" unicode="&#xe44b;" 
d="M1760 366q0 -76 -31.5 -146t-88 -131t-136 -110.5t-175 -84.5t-204 -54.5t-224.5 -19.5q-119 0 -228.5 19.5t-204 54.5t-172 84.5t-132 110.5t-84.5 131t-30 146t30 146t84.5 131t132 110.5t172 85t204 55t228.5 19.5q116 0 224.5 -19.5t204 -55t175 -85t136 -110.5
t88 -131t31.5 -146zM968 37h387v117h-241v167h212v115h-212v140h241v118h-387v-657zM652 425l-36 96l-75 172h-152l190 -404v-252h146v254l194 402h-152l-72 -172l-38 -96h-5z" />
    <glyph glyph-name="South.Africa" unicode="&#xe44c;" 
d="M1760 366q0 -76 -31.5 -146t-88 -131t-136 -110.5t-175 -84.5t-204 -54.5t-224.5 -19.5q-119 0 -228.5 19.5t-204 54.5t-172 84.5t-132 110.5t-84.5 131t-30 146t30 146t84.5 131t132 110.5t172 85t204 55t228.5 19.5q116 0 224.5 -19.5t204 -55t175 -85t136 -110.5
t88 -131t31.5 -146zM403 37h429v117h-267l255 436v104h-395v-118h231l-253 -431v-108zM1072 298l53 255h7l56 -255h-116zM1213 186l35 -149h151l-186 656h-169l-182 -656h151l34 149h166z" />
    <glyph glyph-name="Vietnam" unicode="&#xe44d;" 
d="M1760 366q0 -76 -31.5 -146t-88 -131t-136 -110.5t-175 -84.5t-204 -54.5t-224.5 -19.5q-119 0 -228.5 19.5t-204 54.5t-172 84.5t-132 110.5t-84.5 131t-30 146t30 146t84.5 131t132 110.5t172 85t204 55t228.5 19.5q116 0 224.5 -19.5t204 -55t175 -85t136 -110.5
t88 -131t31.5 -146zM661 303l-28 -134h-4l-25 128l-88 396h-152l177 -656h177l177 656h-148zM1265 312l-186 380h-165v-655h137v407h7l200 -407h152v655h-140v-380h-5z" />
    <glyph glyph-name="Albania.white" unicode="&#xe478;" 
d="M1021 694h145v-540h242v-117h-387v657zM752 298l-56 255h-7l-52 -255h115zM611 186l-34 -149h-150l181 656h169l186 -656h-150l-36 149h-166zM901 -121q107 0 207.5 17t188.5 48.5t161 75.5t125.5 98t81.5 116.5t29 130.5t-29 130t-81.5 116t-125.5 98.5t-161 76
t-188.5 48.5t-207.5 17q-165 0 -308.5 -38t-250 -103.5t-167.5 -154t-61 -190.5t61 -190.5t167.5 -154.5t250 -103.5t308.5 -37.5zM901 -181q-119 0 -228.5 19.5t-204.5 54.5t-172 84.5t-132 110.5t-85 131t-30 146q0 114 66 213.5t181 174t270.5 117t334.5 42.5
q116 0 224.5 -19.5t204 -55t174.5 -85t135.5 -110.5t88 -131t31.5 -146t-31.5 -146t-88 -131t-135.5 -110.5t-174.5 -84.5t-204 -54.5t-224.5 -19.5z" />
    <glyph glyph-name="Arab.Emirates.white" unicode="&#xe479;" 
d="M729 298l-56 255h-7l-52 -255h115zM588 186l-34 -149h-151l182 656h169l186 -656h-150l-36 149h-166zM977 694h387v-118h-241v-139h212v-116h-212v-167h241v-117h-387v657zM901 -121q107 0 207.5 17t188.5 48.5t161 75.5t125.5 98t81.5 116.5t29 130.5t-29 130t-81.5 116
t-125.5 98.5t-161 76t-188.5 48.5t-207.5 17q-165 0 -308.5 -38t-250 -103.5t-167.5 -154t-61 -190.5t61 -190.5t167.5 -154.5t250 -103.5t308.5 -37.5zM901 -181q-119 0 -228.5 19.5t-204.5 54.5t-172 84.5t-132 110.5t-85 131t-30 146q0 114 66 213.5t181 174t270.5 117
t334.5 42.5q116 0 224.5 -19.5t204 -55t174.5 -85t135.5 -110.5t88 -131t31.5 -146t-31.5 -146t-88 -131t-135.5 -110.5t-174.5 -84.5t-204 -54.5t-224.5 -19.5z" />
    <glyph glyph-name="Argentina.white" unicode="&#xe47a;" 
d="M901 -181q-119 0 -228.5 19.5t-204.5 54.5t-172 84.5t-132 110.5t-85 131t-30 146q0 114 66 213.5t181 174t270.5 117t334.5 42.5q116 0 224.5 -19.5t204 -55t174.5 -85t135.5 -110.5t88 -131t31.5 -146t-31.5 -146t-88 -131t-135.5 -110.5t-174.5 -84.5t-204 -54.5
t-224.5 -19.5zM901 -121q107 0 207.5 17t188.5 48.5t161 75.5t125.5 98t81.5 116.5t29 130.5t-29 130t-81.5 116t-125.5 98.5t-161 76t-188.5 48.5t-207.5 17q-165 0 -308.5 -38t-250 -103.5t-167.5 -154t-61 -190.5t61 -190.5t167.5 -154.5t250 -103.5t308.5 -37.5z
M1266 37l-49 132l-50 132h-56v-264h-145v656h197q36 0 75 -6.5t71.5 -26.5t53.5 -57.5t21 -98.5q0 -43 -10 -74.5t-27.5 -54.5t-41 -37.5t-50.5 -22.5l63 -49l94 -229h-146zM582 186l-34 -149h-151l181 656h170l186 -656h-151l-35 149h-166zM1238 500q0 24 -7 39.5t-19 24.5
t-27.5 12.5t-32.5 3.5h-41v-167h48q39 3 59 22.5t20 64.5zM722 298l-56 255h-6l-53 -255h115z" />
    <glyph glyph-name="Bulgaria.white" unicode="&#xe47b;" 
d="M737 386q59 -18 84 -60.5t25 -96.5q0 -42 -14.5 -77.5t-40 -61t-60 -39.5t-75.5 -14h-257v657h231q40 0 75.5 -10.5t62.5 -31.5t42.5 -53.5t15.5 -75.5q0 -42 -21.5 -79.5t-67.5 -54.5v-3zM702 237q0 47 -30 68t-71 21h-57v-178h57q22 0 40.5 4t32 14t21 27.5t7.5 43.5z
M682 516q0 19 -7.5 31.5t-18.5 20t-24.5 10.5t-26.5 3h-61v-146h55q36 0 59.5 19t23.5 62zM919 372q0 66 16.5 126.5t50 107t85 74t120.5 27.5q58 0 101 -13t76 -31l-37 -100q-24 11 -58 18t-63 7q-66 0 -100 -56t-34 -153q0 -112 32 -173t91 -61q15 0 30 4t23 7v152l-52 9
v83h191v-322q-29 -17 -58 -27.5t-56.5 -16.5t-52.5 -8t-44 -2q-75 0 -125 26.5t-80 73.5t-43 110.5t-13 137.5zM901 -121q107 0 207.5 17t188.5 48.5t161 75.5t125.5 98t81.5 116.5t29 130.5t-29 130t-81.5 116t-125.5 98.5t-161 76t-188.5 48.5t-207.5 17
q-165 0 -308.5 -38t-250 -103.5t-167.5 -154t-61 -190.5t61 -190.5t167.5 -154.5t250 -103.5t308.5 -37.5zM901 -181q-119 0 -228.5 19.5t-204.5 54.5t-172 84.5t-132 110.5t-85 131t-30 146q0 114 66 213.5t181 174t270.5 117t334.5 42.5q116 0 224.5 -19.5t204 -55
t174.5 -85t135.5 -110.5t88 -131t31.5 -146t-31.5 -146t-88 -131t-135.5 -110.5t-174.5 -84.5t-204 -54.5t-224.5 -19.5z" />
    <glyph glyph-name="Byelorussia.white" unicode="&#xe47c;" 
d="M781 386q59 -18 84 -60.5t25 -96.5q0 -42 -14.5 -77.5t-40 -61t-60 -39.5t-75.5 -14h-257v657h231q40 0 75.5 -10.5t62.5 -31.5t42.5 -53.5t15.5 -75.5q0 -42 -21.5 -79.5t-67.5 -54.5v-3zM746 237q0 47 -30 68t-71 21h-57v-178h57q22 0 40.5 4t32 14t21 27.5t7.5 43.5z
M726 516q0 19 -7.5 31.5t-18.5 20t-24.5 10.5t-26.5 3h-61v-146h55q36 0 59.5 19t23.5 62zM1177 426l37 95l73 172h152l-195 -402v-254h-145v252l-191 404h152l75 -172l36 -95h6zM901 -121q107 0 207.5 17t188.5 48.5t161 75.5t125.5 98t81.5 116.5t29 130.5t-29 130
t-81.5 116t-125.5 98.5t-161 76t-188.5 48.5t-207.5 17q-165 0 -308.5 -38t-250 -103.5t-167.5 -154t-61 -190.5t61 -190.5t167.5 -154.5t250 -103.5t308.5 -37.5zM901 -181q-119 0 -228.5 19.5t-204.5 54.5t-172 84.5t-132 110.5t-85 131t-30 146q0 114 66 213.5t181 174
t270.5 117t334.5 42.5q116 0 224.5 -19.5t204 -55t174.5 -85t135.5 -110.5t88 -131t31.5 -146t-31.5 -146t-88 -131t-135.5 -110.5t-174.5 -84.5t-204 -54.5t-224.5 -19.5z" />
    <glyph glyph-name="Brazil.white" unicode="&#xe47d;" 
d="M901 -181q-119 0 -228.5 19.5t-204.5 54.5t-172 84.5t-132 110.5t-85 131t-30 146q0 114 66 213.5t181 174t270.5 117t334.5 42.5q116 0 224.5 -19.5t204 -55t174.5 -85t135.5 -110.5t88 -131t31.5 -146t-31.5 -146t-88 -131t-135.5 -110.5t-174.5 -84.5t-204 -54.5
t-224.5 -19.5zM901 -121q107 0 207.5 17t188.5 48.5t161 75.5t125.5 98t81.5 116.5t29 130.5t-29 130t-81.5 116t-125.5 98.5t-161 76t-188.5 48.5t-207.5 17q-165 0 -308.5 -38t-250 -103.5t-167.5 -154t-61 -190.5t61 -190.5t167.5 -154.5t250 -103.5t308.5 -37.5z
M757 386q59 -18 83.5 -60.5t24.5 -96.5q0 -42 -14 -77.5t-39.5 -61t-60 -39.5t-75.5 -14h-257v657h231q39 0 74.5 -10.5t62.5 -31.5t43 -53.5t16 -75.5q0 -42 -21.5 -79.5t-67.5 -54.5v-3zM1266 37l-49 132l-50 132h-56v-264h-145v656h197q36 0 75 -6.5t71.5 -26.5
t53.5 -57.5t21 -98.5q0 -43 -10 -74.5t-27.5 -54.5t-41 -37.5t-50.5 -22.5l63 -49l94 -229h-146zM721 237q0 47 -29.5 68t-70.5 21h-57v-178h57q21 0 39.5 4t32 14t21 27.5t7.5 43.5zM1238 500q0 24 -7 39.5t-19 24.5t-27.5 12.5t-32.5 3.5h-41v-167h48q39 3 59 22.5
t20 64.5zM702 516q0 19 -7.5 31.5t-18.5 20t-24.5 10.5t-26.5 3h-61v-146h55q35 0 59 19t24 62z" />
    <glyph glyph-name="Serbia.white" unicode="&#xe47e;" 
d="M901 -181q-119 0 -228.5 19.5t-204.5 54.5t-172 84.5t-132 110.5t-85 131t-30 146q0 114 66 213.5t181 174t270.5 117t334.5 42.5q116 0 224.5 -19.5t204 -55t174.5 -85t135.5 -110.5t88 -131t31.5 -146t-31.5 -146t-88 -131t-135.5 -110.5t-174.5 -84.5t-204 -54.5
t-224.5 -19.5zM901 -121q107 0 207.5 17t188.5 48.5t161 75.5t125.5 98t81.5 116.5t29 130.5t-29 130t-81.5 116t-125.5 98.5t-161 76t-188.5 48.5t-207.5 17q-165 0 -308.5 -38t-250 -103.5t-167.5 -154t-61 -190.5t61 -190.5t167.5 -154.5t250 -103.5t308.5 -37.5z
M1128 25q-21 0 -46 2.5t-50.5 7t-49 12t-42.5 18.5l37 105q22 -9 44.5 -14t42.5 -8t35.5 -4t23.5 -1q51 0 76 17.5t25 62.5q0 21 -5.5 35t-17 24t-30 17.5t-44.5 15.5q-45 15 -80.5 30.5t-60.5 37.5t-38 54t-13 82q0 52 19.5 88t52 58t74.5 31.5t87 9.5q19 0 41.5 -2.5
t46 -7.5t45 -13t39.5 -18q-2 -5 -6.5 -19.5l-9.5 -30.5l-9.5 -30.5t-5.5 -19.5q-23 9 -47 14t-44 7t-35 2.5t-19 0.5q-15 0 -29 -3t-25 -10.5t-17.5 -20.5t-6.5 -32q0 -34 20.5 -49.5t67.5 -30.5q55 -18 93.5 -36t62.5 -42.5t35 -58t11 -81.5q0 -54 -18.5 -92t-51.5 -62
t-78.5 -35t-99.5 -11zM647 24q-68 0 -114 26.5t-73.5 73t-39 110t-11.5 137.5q0 66 14.5 126.5t46 107t80 74t117.5 27.5q60 0 101 -13t73 -32l-37 -98q-27 11 -58 17.5t-60 6.5q-64 0 -92.5 -55.5t-28.5 -152.5q0 -113 28.5 -173.5t82.5 -60.5q30 0 60 7.5t74 25.5l39 -100
q-42 -29 -91.5 -41.5t-110.5 -12.5z" />
    <glyph glyph-name="CzechRepublic.white" unicode="&#xe47f;" 
d="M647 24q-68 0 -114 26.5t-73.5 73t-39 110t-11.5 137.5q0 66 14.5 126.5t46 107t80 74t117.5 27.5q60 0 101 -13t73 -32l-37 -98q-27 11 -58 17.5t-60 6.5q-64 0 -92.5 -55.5t-28.5 -152.5q0 -113 28.5 -173.5t82.5 -60.5q30 0 60 7.5t74 25.5l39 -100
q-42 -29 -91.5 -41.5t-110.5 -12.5zM912 145l253 431h-231v118h395v-103l-256 -437h268v-117h-429v108zM901 -121q107 0 207.5 17t188.5 48.5t161 75.5t125.5 98t81.5 116.5t29 130.5t-29 130t-81.5 116t-125.5 98.5t-161 76t-188.5 48.5t-207.5 17q-165 0 -308.5 -38
t-250 -103.5t-167.5 -154t-61 -190.5t61 -190.5t167.5 -154.5t250 -103.5t308.5 -37.5zM901 -181q-119 0 -228.5 19.5t-204.5 54.5t-172 84.5t-132 110.5t-85 131t-30 146q0 114 66 213.5t181 174t270.5 117t334.5 42.5q116 0 224.5 -19.5t204 -55t174.5 -85t135.5 -110.5
t88 -131t31.5 -146t-31.5 -146t-88 -131t-135.5 -110.5t-174.5 -84.5t-204 -54.5t-224.5 -19.5z" />
    <glyph glyph-name="Cyprus.white" unicode="&#xe480;" 
d="M675 24q-68 0 -113.5 26.5t-73 73t-39 110t-11.5 137.5q0 66 14.5 126.5t45.5 107t80 74t118 27.5q59 0 100.5 -13t73.5 -32l-38 -98q-27 11 -57.5 17.5t-59.5 6.5q-64 0 -92.5 -55.5t-28.5 -152.5q0 -113 28 -173.5t83 -60.5q29 0 59.5 7.5t74.5 25.5l39 -100
q-42 -29 -91.5 -41.5t-111.5 -12.5zM1191 426l38 95l72 172h152l-195 -402v-254h-145v252l-190 404h152l74 -172l37 -95h5zM901 -121q107 0 207.5 17t188.5 48.5t161 75.5t125.5 98t81.5 116.5t29 130.5t-29 130t-81.5 116t-125.5 98.5t-161 76t-188.5 48.5t-207.5 17
q-165 0 -308.5 -38t-250 -103.5t-167.5 -154t-61 -190.5t61 -190.5t167.5 -154.5t250 -103.5t308.5 -37.5zM901 -181q-119 0 -228.5 19.5t-204.5 54.5t-172 84.5t-132 110.5t-85 131t-30 146q0 114 66 213.5t181 174t270.5 117t334.5 42.5q116 0 224.5 -19.5t204 -55
t174.5 -85t135.5 -110.5t88 -131t31.5 -146t-31.5 -146t-88 -131t-135.5 -110.5t-174.5 -84.5t-204 -54.5t-224.5 -19.5z" />
    <glyph glyph-name="Canada.white" unicode="&#xe481;" 
d="M660 24q-68 0 -114 26.5t-73.5 73t-39 110t-11.5 137.5q0 66 14.5 126.5t46 107t80.5 74t118 27.5q59 0 100 -13t73 -32l-37 -98q-27 11 -58 17.5t-60 6.5q-63 0 -92 -55.5t-29 -152.5q0 -113 28.5 -173.5t82.5 -60.5q30 0 60 7.5t75 25.5l38 -100q-42 -29 -91.5 -41.5
t-110.5 -12.5zM1218 298l-57 255h-6l-53 -255h116zM1077 186l-34 -149h-151l181 656h170l186 -656h-151l-35 149h-166zM901 -121q107 0 207.5 17t188.5 48.5t161 75.5t125.5 98t81.5 116.5t29 130.5t-29 130t-81.5 116t-125.5 98.5t-161 76t-188.5 48.5t-207.5 17
q-165 0 -308.5 -38t-250 -103.5t-167.5 -154t-61 -190.5t61 -190.5t167.5 -154.5t250 -103.5t308.5 -37.5zM901 -181q-119 0 -228.5 19.5t-204.5 54.5t-172 84.5t-132 110.5t-85 131t-30 146q0 114 66 213.5t181 174t270.5 117t334.5 42.5q116 0 224.5 -19.5t204 -55
t174.5 -85t135.5 -110.5t88 -131t31.5 -146t-31.5 -146t-88 -131t-135.5 -110.5t-174.5 -84.5t-204 -54.5t-224.5 -19.5z" />
    <glyph glyph-name="China.white" unicode="&#xe482;" 
d="M645 24q-68 0 -113.5 26.5t-73 73t-39 110t-11.5 137.5q0 66 14.5 126.5t46 107t80 74t117.5 27.5q59 0 100.5 -13t73.5 -32l-37 -98q-28 11 -58.5 17.5t-59.5 6.5q-64 0 -92.5 -55.5t-28.5 -152.5q0 -113 28.5 -173.5t82.5 -60.5q30 0 60 7.5t74 25.5l39 -100
q-42 -29 -91.5 -41.5t-111.5 -12.5zM1258 312v380h140v-655h-152l-200 407h-7v-407h-137v655h165l186 -380h5zM901 -121q107 0 207.5 17t188.5 48.5t161 75.5t125.5 98t81.5 116.5t29 130.5t-29 130t-81.5 116t-125.5 98.5t-161 76t-188.5 48.5t-207.5 17q-165 0 -308.5 -38
t-250 -103.5t-167.5 -154t-61 -190.5t61 -190.5t167.5 -154.5t250 -103.5t308.5 -37.5zM901 -181q-119 0 -228.5 19.5t-204.5 54.5t-172 84.5t-132 110.5t-85 131t-30 146q0 114 66 213.5t181 174t270.5 117t334.5 42.5q116 0 224.5 -19.5t204 -55t174.5 -85t135.5 -110.5
t88 -131t31.5 -146t-31.5 -146t-88 -131t-135.5 -110.5t-174.5 -84.5t-204 -54.5t-224.5 -19.5z" />
    <glyph glyph-name="Switzerland.white" unicode="&#xe483;" 
d="M632 24q-68 0 -113.5 26.5t-73 73t-39 110t-11.5 137.5q0 66 14.5 126.5t45.5 107t80 74t118 27.5q59 0 100.5 -13t73.5 -32l-37 -98q-28 11 -58.5 17.5t-59.5 6.5q-64 0 -92.5 -55.5t-28.5 -152.5q0 -113 28 -173.5t83 -60.5q30 0 60 7.5t74 25.5l39 -100
q-42 -29 -91.5 -41.5t-111.5 -12.5zM1245 321h-184v-284h-145v657h145v-260h184v260h144v-657h-144v284zM901 -121q107 0 207.5 17t188.5 48.5t161 75.5t125.5 98t81.5 116.5t29 130.5t-29 130t-81.5 116t-125.5 98.5t-161 76t-188.5 48.5t-207.5 17q-165 0 -308.5 -38
t-250 -103.5t-167.5 -154t-61 -190.5t61 -190.5t167.5 -154.5t250 -103.5t308.5 -37.5zM901 -181q-119 0 -228.5 19.5t-204.5 54.5t-172 84.5t-132 110.5t-85 131t-30 146q0 114 66 213.5t181 174t270.5 117t334.5 42.5q116 0 224.5 -19.5t204 -55t174.5 -85t135.5 -110.5
t88 -131t31.5 -146t-31.5 -146t-88 -131t-135.5 -110.5t-174.5 -84.5t-204 -54.5t-224.5 -19.5z" />
    <glyph glyph-name="Cuba.white" unicode="&#xe484;" 
d="M644 24q-68 0 -113.5 26.5t-73 73t-39 110t-11.5 137.5q0 66 14.5 126.5t46 107t80 74t117.5 27.5q59 0 100.5 -13t73.5 -32l-37 -98q-28 11 -58.5 17.5t-59.5 6.5q-64 0 -92.5 -55.5t-28.5 -152.5q0 -113 28 -173.5t83 -60.5q30 0 60 7.5t74 25.5l39 -100
q-42 -29 -91.5 -41.5t-111.5 -12.5zM1384 227q0 -45 -15.5 -82.5t-45.5 -64.5t-75 -41.5t-103 -14.5q-116 0 -171.5 55.5t-55.5 147.5v466h146v-451q0 -45 17.5 -72t63.5 -27q48 0 70 27t22 72v451h147v-466zM901 -121q107 0 207.5 17t188.5 48.5t161 75.5t125.5 98
t81.5 116.5t29 130.5t-29 130t-81.5 116t-125.5 98.5t-161 76t-188.5 48.5t-207.5 17q-165 0 -308.5 -38t-250 -103.5t-167.5 -154t-61 -190.5t61 -190.5t167.5 -154.5t250 -103.5t308.5 -37.5zM901 -181q-119 0 -228.5 19.5t-204.5 54.5t-172 84.5t-132 110.5t-85 131
t-30 146q0 114 66 213.5t181 174t270.5 117t334.5 42.5q116 0 224.5 -19.5t204 -55t174.5 -85t135.5 -110.5t88 -131t31.5 -146t-31.5 -146t-88 -131t-135.5 -110.5t-174.5 -84.5t-204 -54.5t-224.5 -19.5z" />
    <glyph glyph-name="Germany.white" unicode="&#xe485;" 
d="M981 695h387v-118h-241v-139h213v-116h-213v-167h241v-117h-387v657zM882 371q0 -85 -14 -147.5t-47 -104t-87 -62t-135 -20.5h-180v657h179q52 0 102.5 -9.5t91 -43t65.5 -97.5t25 -173zM732 375q0 66 -9 106t-25.5 62.5t-40.5 30t-54 7.5h-40v-431h52q38 0 61 15.5
t35.5 45t16.5 71t4 93.5zM901 -121q107 0 207.5 17t188.5 48.5t161 75.5t125.5 98t81.5 116.5t29 130.5t-29 130t-81.5 116t-125.5 98.5t-161 76t-188.5 48.5t-207.5 17q-165 0 -308.5 -38t-250 -103.5t-167.5 -154t-61 -190.5t61 -190.5t167.5 -154.5t250 -103.5
t308.5 -37.5zM901 -181q-119 0 -228.5 19.5t-204.5 54.5t-172 84.5t-132 110.5t-85 131t-30 146q0 114 66 213.5t181 174t270.5 117t334.5 42.5q116 0 224.5 -19.5t204 -55t174.5 -85t135.5 -110.5t88 -131t31.5 -146t-31.5 -146t-88 -131t-135.5 -110.5t-174.5 -84.5
t-204 -54.5t-224.5 -19.5z" />
    <glyph glyph-name="Denmark.white" unicode="&#xe486;" 
d="M882 371q0 -85 -14 -147.5t-47 -104t-87 -62t-135 -20.5h-180v657h179q52 0 102.5 -9.5t91 -43t65.5 -97.5t25 -173zM732 375q0 66 -9 106t-25.5 62.5t-40.5 30t-54 7.5h-40v-431h52q38 0 61 15.5t35.5 45t16.5 71t4 93.5zM1104 333v-296h-146v656h146v-280h5l190 280
h166l-227 -313l229 -343h-177l-181 297zM901 -121q107 0 207.5 17t188.5 48.5t161 75.5t125.5 98t81.5 116.5t29 130.5t-29 130t-81.5 116t-125.5 98.5t-161 76t-188.5 48.5t-207.5 17q-165 0 -308.5 -38t-250 -103.5t-167.5 -154t-61 -190.5t61 -190.5t167.5 -154.5
t250 -103.5t308.5 -37.5zM901 -181q-119 0 -228.5 19.5t-204.5 54.5t-172 84.5t-132 110.5t-85 131t-30 146q0 114 66 213.5t181 174t270.5 117t334.5 42.5q116 0 224.5 -19.5t204 -55t174.5 -85t135.5 -110.5t88 -131t31.5 -146t-31.5 -146t-88 -131t-135.5 -110.5
t-174.5 -84.5t-204 -54.5t-224.5 -19.5z" />
    <glyph glyph-name="Spain.white" unicode="&#xe487;" 
d="M441 694h387v-118h-241v-139h212v-116h-212v-167h241v-117h-387v657zM1135 25q-21 0 -46.5 2.5t-50.5 7t-49 12t-42 18.5q1 5 6.5 20l11.5 32.5l11 32.5t7 20q22 -9 45 -14t43 -8t35.5 -4t23.5 -1q51 0 76 17.5t25 62.5q0 21 -5.5 35t-17.5 24t-30.5 17.5t-43.5 15.5
q-45 15 -81 30.5t-60.5 37.5t-38 54t-13.5 82q0 52 19.5 88t52.5 58t75 31.5t87 9.5q19 0 41.5 -2.5t45.5 -7.5t45 -13t39 -18q-2 -5 -6 -19.5t-9 -30.5l-9.5 -30.5t-6.5 -19.5q-23 9 -46.5 14t-44 7t-35.5 2.5t-19 0.5q-14 0 -28 -3t-25 -10.5t-18 -20.5t-7 -32
q0 -34 21 -49.5t67 -30.5q55 -18 93.5 -36t63 -42.5t35.5 -58t11 -81.5q0 -54 -18.5 -92t-51.5 -62t-78.5 -35t-99.5 -11zM901 -121q107 0 207.5 17t188.5 48.5t161 75.5t125.5 98t81.5 116.5t29 130.5t-29 130t-81.5 116t-125.5 98.5t-161 76t-188.5 48.5t-207.5 17
q-165 0 -308.5 -38t-250 -103.5t-167.5 -154t-61 -190.5t61 -190.5t167.5 -154.5t250 -103.5t308.5 -37.5zM901 -181q-119 0 -228.5 19.5t-204.5 54.5t-172 84.5t-132 110.5t-85 131t-30 146q0 114 66 213.5t181 174t270.5 117t334.5 42.5q116 0 224.5 -19.5t204 -55
t174.5 -85t135.5 -110.5t88 -131t31.5 -146t-31.5 -146t-88 -131t-135.5 -110.5t-174.5 -84.5t-204 -54.5t-224.5 -19.5z" />
    <glyph glyph-name="Estonia.white" unicode="&#xe488;" 
d="M474 694h387v-118h-241v-139h212v-116h-212v-167h241v-117h-387v657zM973 694h388v-118h-241v-139h212v-116h-212v-167h241v-117h-388v657zM901 -121q107 0 207.5 17t188.5 48.5t161 75.5t125.5 98t81.5 116.5t29 130.5t-29 130t-81.5 116t-125.5 98.5t-161 76
t-188.5 48.5t-207.5 17q-165 0 -308.5 -38t-250 -103.5t-167.5 -154t-61 -190.5t61 -190.5t167.5 -154.5t250 -103.5t308.5 -37.5zM901 -181q-119 0 -228.5 19.5t-204.5 54.5t-172 84.5t-132 110.5t-85 131t-30 146q0 114 66 213.5t181 174t270.5 117t334.5 42.5
q116 0 224.5 -19.5t204 -55t174.5 -85t135.5 -110.5t88 -131t31.5 -146t-31.5 -146t-88 -131t-135.5 -110.5t-174.5 -84.5t-204 -54.5t-224.5 -19.5z" />
    <glyph glyph-name="Egypt.white" unicode="&#xe489;" 
d="M450 694h387v-118h-241v-139h212v-116h-212v-167h241v-117h-387v657zM916 372q0 66 16.5 126.5t50 107t85 74t120.5 27.5q58 0 101 -13t76 -31l-37 -100q-24 11 -58 18t-63 7q-66 0 -100.5 -56t-34.5 -153q0 -112 32 -173t92 -61q14 0 29 4t23 7v152l-51 9v83h191v-322
q-29 -17 -58 -27.5t-56.5 -16.5t-52.5 -8t-44 -2q-75 0 -125 26.5t-80 73.5t-43 110.5t-13 137.5zM901 -121q107 0 207.5 17t188.5 48.5t161 75.5t125.5 98t81.5 116.5t29 130.5t-29 130t-81.5 116t-125.5 98.5t-161 76t-188.5 48.5t-207.5 17q-165 0 -308.5 -38
t-250 -103.5t-167.5 -154t-61 -190.5t61 -190.5t167.5 -154.5t250 -103.5t308.5 -37.5zM901 -181q-119 0 -228.5 19.5t-204.5 54.5t-172 84.5t-132 110.5t-85 131t-30 146q0 114 66 213.5t181 174t270.5 117t334.5 42.5q116 0 224.5 -19.5t204 -55t174.5 -85t135.5 -110.5
t88 -131t31.5 -146t-31.5 -146t-88 -131t-135.5 -110.5t-174.5 -84.5t-204 -54.5t-224.5 -19.5z" />
    <glyph glyph-name="France.white" unicode="&#xe48a;" 
d="M901 -181q-119 0 -228.5 19.5t-204.5 54.5t-172 84.5t-132 110.5t-85 131t-30 146q0 114 66 213.5t181 174t270.5 117t334.5 42.5q116 0 224.5 -19.5t204 -55t174.5 -85t135.5 -110.5t88 -131t31.5 -146t-31.5 -146t-88 -131t-135.5 -110.5t-174.5 -84.5t-204 -54.5
t-224.5 -19.5zM901 -121q107 0 207.5 17t188.5 48.5t161 75.5t125.5 98t81.5 116.5t29 130.5t-29 130t-81.5 116t-125.5 98.5t-161 76t-188.5 48.5t-207.5 17q-165 0 -308.5 -38t-250 -103.5t-167.5 -154t-61 -190.5t61 -190.5t167.5 -154.5t250 -103.5t308.5 -37.5z
M1259 38l-49 132l-50 132h-56v-264h-145v656h197q36 0 75 -6.5t71.5 -26.5t53.5 -57.5t21 -98.5q0 -43 -10 -74.5t-27.5 -54t-41 -37t-50.5 -22.5l63 -50l95 -229h-147zM483 693h386v-118h-240v-140h211v-115h-211v-284h-146v657zM1232 501q0 24 -7.5 39.5t-19.5 24.5
t-27.5 12.5t-32.5 3.5h-41v-166h49q38 2 58.5 21.5t20.5 64.5z" />
    <glyph glyph-name="Finland.white" unicode="&#xe48b;" 
d="M556 694h387v-118h-240v-139h211v-116h-211v-284h-147v657zM1070 693h145v-656h-145v656zM901 -121q107 0 207.5 17t188.5 48.5t161 75.5t125.5 98t81.5 116.5t29 130.5t-29 130t-81.5 116t-125.5 98.5t-161 76t-188.5 48.5t-207.5 17q-165 0 -308.5 -38t-250 -103.5
t-167.5 -154t-61 -190.5t61 -190.5t167.5 -154.5t250 -103.5t308.5 -37.5zM901 -181q-119 0 -228.5 19.5t-204.5 54.5t-172 84.5t-132 110.5t-85 131t-30 146q0 114 66 213.5t181 174t270.5 117t334.5 42.5q116 0 224.5 -19.5t204 -55t174.5 -85t135.5 -110.5t88 -131
t31.5 -146t-31.5 -146t-88 -131t-135.5 -110.5t-174.5 -84.5t-204 -54.5t-224.5 -19.5z" />
    <glyph glyph-name="UnitedKingdom.white" unicode="&#xe48c;" 
d="M1313 389q60 -19 85 -61.5t25 -96.5q0 -43 -14 -78.5t-39.5 -61t-60.5 -39.5t-76 -14h-259v657h233q39 0 74.5 -10t62.5 -31t43 -53t16 -75q0 -42 -21 -79.5t-69 -56.5v-1zM1280 238q0 47 -30 68.5t-71 21.5h-58v-180h58q21 0 39.5 4t32 14.5t21.5 28t8 43.5zM1259 518
q0 19 -7.5 31.5t-19 20t-25 10.5t-26.5 3h-60v-145h56q34 0 58 19t24 61zM377 373q0 66 16.5 127.5t50 108.5t85 75t120.5 28q59 0 102 -13t77 -33l-37 -100q-25 11 -59 18t-63 7q-66 0 -100.5 -57t-35.5 -154q0 -112 33.5 -173t91.5 -61q15 0 30.5 3.5t21.5 6.5v153l-51 9
v84h192v-322q-29 -18 -58.5 -29t-57.5 -17t-52.5 -8t-42.5 -2q-75 0 -125.5 27t-81 74t-43.5 110.5t-13 137.5zM901 -121q107 0 207.5 17t188.5 48.5t161 75.5t125.5 98t81.5 116.5t29 130.5t-29 130t-81.5 116t-125.5 98.5t-161 76t-188.5 48.5t-207.5 17
q-165 0 -308.5 -38t-250 -103.5t-167.5 -154t-61 -190.5t61 -190.5t167.5 -154.5t250 -103.5t308.5 -37.5zM901 -181q-119 0 -228.5 19.5t-204.5 54.5t-172 84.5t-132 110.5t-85 131t-30 146q0 114 66 213.5t181 174t270.5 117t334.5 42.5q116 0 224.5 -19.5t204 -55
t174.5 -85t135.5 -110.5t88 -131t31.5 -146t-31.5 -146t-88 -131t-135.5 -110.5t-174.5 -84.5t-204 -54.5t-224.5 -19.5z" />
    <glyph glyph-name="Greece.white" unicode="&#xe48d;" 
d="M901 -181q-119 0 -228.5 19.5t-204.5 54.5t-172 84.5t-132 110.5t-85 131t-30 146q0 114 66 213.5t181 174t270.5 117t334.5 42.5q116 0 224.5 -19.5t204 -55t174.5 -85t135.5 -110.5t88 -131t31.5 -146t-31.5 -146t-88 -131t-135.5 -110.5t-174.5 -84.5t-204 -54.5
t-224.5 -19.5zM901 -121q107 0 207.5 17t188.5 48.5t161 75.5t125.5 98t81.5 116.5t29 130.5t-29 130t-81.5 116t-125.5 98.5t-161 76t-188.5 48.5t-207.5 17q-165 0 -308.5 -38t-250 -103.5t-167.5 -154t-61 -190.5t61 -190.5t167.5 -154.5t250 -103.5t308.5 -37.5z
M1277 36l-49 132l-50 132h-56v-264h-145v656h197q36 0 75 -6.5t71.5 -27t53.5 -57.5t21 -98q0 -43 -10 -74.5t-27.5 -54.5t-41 -37.5t-50.5 -22.5l63 -49l94 -229h-146zM379 373q0 66 16.5 127.5t50 108.5t85 75t120.5 28q59 0 102 -13t77 -33l-37 -100q-25 11 -59 18t-63 7
q-66 0 -100 -57t-36 -154q0 -112 33.5 -173t91.5 -61q16 0 31 3.5t22 6.5v153l-52 9v84h192v-322q-29 -18 -58.5 -29t-57 -17t-52 -8t-43.5 -2q-75 0 -125.5 27t-81 74t-43.5 110.5t-13 137.5zM1249 499q0 24 -7 39.5t-19 24.5t-27.5 12t-32.5 3h-41v-166h48q39 3 59 22.5
t20 64.5z" />
    <glyph glyph-name="Georgia.white" unicode="&#xe48e;" 
d="M425 373q0 66 16.5 127.5t50 108.5t85 75t120.5 28q59 0 102 -13t77 -33l-37 -100q-25 11 -59 18t-63 7q-66 0 -100 -57t-35 -154q0 -112 33 -173t91 -61q16 0 31 3.5t22 6.5v153l-52 9v84h193v-322q-29 -18 -58.5 -29t-57.5 -17t-52.5 -8t-43.5 -2q-75 0 -125.5 27
t-81 74t-43.5 110.5t-13 137.5zM1002 694h387v-118h-241v-139h213v-116h-213v-167h241v-117h-387v657zM901 -121q107 0 207.5 17t188.5 48.5t161 75.5t125.5 98t81.5 116.5t29 130.5t-29 130t-81.5 116t-125.5 98.5t-161 76t-188.5 48.5t-207.5 17q-165 0 -308.5 -38
t-250 -103.5t-167.5 -154t-61 -190.5t61 -190.5t167.5 -154.5t250 -103.5t308.5 -37.5zM901 -181q-119 0 -228.5 19.5t-204.5 54.5t-172 84.5t-132 110.5t-85 131t-30 146q0 114 66 213.5t181 174t270.5 117t334.5 42.5q116 0 224.5 -19.5t204 -55t174.5 -85t135.5 -110.5
t88 -131t31.5 -146t-31.5 -146t-88 -131t-135.5 -110.5t-174.5 -84.5t-204 -54.5t-224.5 -19.5z" />
    <glyph glyph-name="Hungary.white" unicode="&#xe48f;" 
d="M691 322h-184v-284h-145v657h145v-260h184v260h144v-657h-144v284zM1424 229q0 -45 -15.5 -82.5t-45.5 -64.5t-74.5 -42t-102.5 -15t-101 14.5t-71 41.5t-41.5 64.5t-13.5 83.5v465h145v-451q0 -45 18 -72t64 -27q48 0 70 27.5t22 71.5v451h146v-465zM901 -121
q107 0 207.5 17t188.5 48.5t161 75.5t125.5 98t81.5 116.5t29 130.5t-29 130t-81.5 116t-125.5 98.5t-161 76t-188.5 48.5t-207.5 17q-165 0 -308.5 -38t-250 -103.5t-167.5 -154t-61 -190.5t61 -190.5t167.5 -154.5t250 -103.5t308.5 -37.5zM901 -181q-119 0 -228.5 19.5
t-204.5 54.5t-172 84.5t-132 110.5t-85 131t-30 146q0 114 66 213.5t181 174t270.5 117t334.5 42.5q116 0 224.5 -19.5t204 -55t174.5 -85t135.5 -110.5t88 -131t31.5 -146t-31.5 -146t-88 -131t-135.5 -110.5t-174.5 -84.5t-204 -54.5t-224.5 -19.5z" />
    <glyph glyph-name="Croatia.white" unicode="&#xe490;" 
d="M901 -181q-119 0 -228.5 19.5t-204.5 54.5t-172 84.5t-132 110.5t-85 131t-30 146q0 114 66 213.5t181 174t270.5 117t334.5 42.5q116 0 224.5 -19.5t204 -55t174.5 -85t135.5 -110.5t88 -131t31.5 -146t-31.5 -146t-88 -131t-135.5 -110.5t-174.5 -84.5t-204 -54.5
t-224.5 -19.5zM901 -121q107 0 207.5 17t188.5 48.5t161 75.5t125.5 98t81.5 116.5t29 130.5t-29 130t-81.5 116t-125.5 98.5t-161 76t-188.5 48.5t-207.5 17q-165 0 -308.5 -38t-250 -103.5t-167.5 -154t-61 -190.5t61 -190.5t167.5 -154.5t250 -103.5t308.5 -37.5z
M1255 37l-49 132l-50 132h-56v-264h-145v656h197q36 0 75 -6.5t71.5 -26.5t53.5 -57.5t21 -98.5q0 -43 -10 -74.5t-27.5 -54.5t-41 -37.5t-50.5 -22.5l63 -49l94 -229h-146zM691 322h-184v-284h-145v657h145v-260h184v260h144v-657h-144v284zM1227 500q0 24 -7 39.5
t-19 24.5t-27.5 12.5t-32.5 3.5h-41v-167h48q39 3 59 22.5t20 64.5z" />
    <glyph glyph-name="HongKong.white" unicode="&#xe491;" 
d="M901 -181q-119 0 -228.5 19.5t-204.5 54.5t-172 84.5t-132 110.5t-85 131t-30 146q0 114 66 213.5t181 174t270.5 117t334.5 42.5q116 0 224.5 -19.5t204 -55t174.5 -85t135.5 -110.5t88 -131t31.5 -146t-31.5 -146t-88 -131t-135.5 -110.5t-174.5 -84.5t-204 -54.5
t-224.5 -19.5zM901 -121q171 0 322 42.5t261 115.5h-164l-182 297l-4 -1v-296h-146v656h146v-280h4l191 280h155q-111 73 -261.5 115.5t-321.5 42.5q-165 0 -308.5 -38t-250 -103.5t-167.5 -154t-61 -190.5t61 -190.5t167.5 -154.5t250 -103.5t308.5 -37.5zM722 322h-183
v-284h-145v657h145v-260h183v260h145v-657h-145v284zM1694 365q0 94 -54.5 176t-148.5 147l-223 -308l225 -337q94 64 147.5 146t53.5 176z" />
    <glyph glyph-name="Italy.white" unicode="&#xe492;" 
d="M574 693h145v-656h-145v656zM1164 37h-148v539h-141v118h434v-118h-145v-539zM901 -121q107 0 207.5 17t188.5 48.5t161 75.5t125.5 98t81.5 116.5t29 130.5t-29 130t-81.5 116t-125.5 98.5t-161 76t-188.5 48.5t-207.5 17q-165 0 -308.5 -38t-250 -103.5t-167.5 -154
t-61 -190.5t61 -190.5t167.5 -154.5t250 -103.5t308.5 -37.5zM901 -181q-119 0 -228.5 19.5t-204.5 54.5t-172 84.5t-132 110.5t-85 131t-30 146q0 114 66 213.5t181 174t270.5 117t334.5 42.5q116 0 224.5 -19.5t204 -55t174.5 -85t135.5 -110.5t88 -131t31.5 -146
t-31.5 -146t-88 -131t-135.5 -110.5t-174.5 -84.5t-204 -54.5t-224.5 -19.5z" />
    <glyph glyph-name="Israel.white" unicode="&#xe493;" 
d="M615 693h145v-656h-145v656zM947 694h145v-540h242v-117h-387v657zM901 -121q107 0 207.5 17t188.5 48.5t161 75.5t125.5 98t81.5 116.5t29 130.5t-29 130t-81.5 116t-125.5 98.5t-161 76t-188.5 48.5t-207.5 17q-165 0 -308.5 -38t-250 -103.5t-167.5 -154t-61 -190.5
t61 -190.5t167.5 -154.5t250 -103.5t308.5 -37.5zM901 -181q-119 0 -228.5 19.5t-204.5 54.5t-172 84.5t-132 110.5t-85 131t-30 146q0 114 66 213.5t181 174t270.5 117t334.5 42.5q116 0 224.5 -19.5t204 -55t174.5 -85t135.5 -110.5t88 -131t31.5 -146t-31.5 -146
t-88 -131t-135.5 -110.5t-174.5 -84.5t-204 -54.5t-224.5 -19.5z" />
    <glyph glyph-name="Iceland.white" unicode="&#xe494;" 
d="M901 -181q-119 0 -228.5 19.5t-204.5 54.5t-172 84.5t-132 110.5t-85 131t-30 146q0 114 66 213.5t181 174t270.5 117t334.5 42.5q116 0 224.5 -19.5t204 -55t174.5 -85t135.5 -110.5t88 -131t31.5 -146t-31.5 -146t-88 -131t-135.5 -110.5t-174.5 -84.5t-204 -54.5
t-224.5 -19.5zM901 -121q107 0 207.5 17t188.5 48.5t161 75.5t125.5 98t81.5 116.5t29 130.5t-29 130t-81.5 116t-125.5 98.5t-161 76t-188.5 48.5t-207.5 17q-165 0 -308.5 -38t-250 -103.5t-167.5 -154t-61 -190.5t61 -190.5t167.5 -154.5t250 -103.5t308.5 -37.5z
M1061 25q-21 0 -46 2.5t-50.5 7t-49 12t-42.5 18.5l37 105q22 -9 44.5 -14t42.5 -8t35.5 -4t23.5 -1q51 0 76 17.5t25 62.5q0 21 -5.5 35t-17.5 24t-30.5 17.5t-43.5 15.5q-45 15 -80.5 30.5t-60.5 37.5t-38 54t-13 82q0 52 19.5 88t52 58t74.5 31.5t87 9.5q19 0 41.5 -2.5
t46 -7.5t45 -13t39.5 -18q-2 -5 -6.5 -19.5l-9.5 -30.5l-9.5 -30.5t-5.5 -19.5q-23 9 -47 14t-44 7t-35 2.5t-19 0.5q-15 0 -29 -3t-25 -10.5t-18 -20.5t-7 -32q0 -34 21 -49.5t67 -30.5q55 -18 93.5 -36t63 -42.5t35.5 -58t11 -81.5q0 -54 -18.5 -92t-51.5 -62t-78.5 -35
t-99.5 -11zM584 693h145v-656h-145v656z" />
    <glyph glyph-name="Ireland.white" unicode="&#xe495;" 
d="M584 693h145v-656h-145v656zM914 694h387v-118h-241v-139h213v-116h-213v-167h241v-117h-387v657zM901 -121q107 0 207.5 17t188.5 48.5t161 75.5t125.5 98t81.5 116.5t29 130.5t-29 130t-81.5 116t-125.5 98.5t-161 76t-188.5 48.5t-207.5 17q-165 0 -308.5 -38
t-250 -103.5t-167.5 -154t-61 -190.5t61 -190.5t167.5 -154.5t250 -103.5t308.5 -37.5zM901 -181q-119 0 -228.5 19.5t-204.5 54.5t-172 84.5t-132 110.5t-85 131t-30 146q0 114 66 213.5t181 174t270.5 117t334.5 42.5q116 0 224.5 -19.5t204 -55t174.5 -85t135.5 -110.5
t88 -131t31.5 -146t-31.5 -146t-88 -131t-135.5 -110.5t-174.5 -84.5t-204 -54.5t-224.5 -19.5z" />
    <glyph glyph-name="India.white" unicode="&#xe496;" 
d="M531 693h145v-656h-145v656zM1204 312v380h140v-655h-152l-200 407h-7v-407h-137v655h165l186 -380h5zM901 -121q107 0 207.5 17t188.5 48.5t161 75.5t125.5 98t81.5 116.5t29 130.5t-29 130t-81.5 116t-125.5 98.5t-161 76t-188.5 48.5t-207.5 17q-165 0 -308.5 -38
t-250 -103.5t-167.5 -154t-61 -190.5t61 -190.5t167.5 -154.5t250 -103.5t308.5 -37.5zM901 -181q-119 0 -228.5 19.5t-204.5 54.5t-172 84.5t-132 110.5t-85 131t-30 146q0 114 66 213.5t181 174t270.5 117t334.5 42.5q116 0 224.5 -19.5t204 -55t174.5 -85t135.5 -110.5
t88 -131t31.5 -146t-31.5 -146t-88 -131t-135.5 -110.5t-174.5 -84.5t-204 -54.5t-224.5 -19.5z" />
    <glyph glyph-name="Indonesia.white" unicode="&#xe497;" 
d="M575 693h145v-656h-145v656zM1362 371q0 -85 -14 -147.5t-47 -104t-87.5 -62t-134.5 -20.5h-181v657h180q51 0 102 -9.5t91.5 -43t65.5 -97.5t25 -173zM1212 375q0 66 -9 106t-25.5 62.5t-40.5 30t-55 7.5h-39v-431h51q38 0 61.5 15.5t36 45t16.5 71t4 93.5zM901 -121
q107 0 207.5 17t188.5 48.5t161 75.5t125.5 98t81.5 116.5t29 130.5t-29 130t-81.5 116t-125.5 98.5t-161 76t-188.5 48.5t-207.5 17q-165 0 -308.5 -38t-250 -103.5t-167.5 -154t-61 -190.5t61 -190.5t167.5 -154.5t250 -103.5t308.5 -37.5zM901 -181q-119 0 -228.5 19.5
t-204.5 54.5t-172 84.5t-132 110.5t-85 131t-30 146q0 114 66 213.5t181 174t270.5 117t334.5 42.5q116 0 224.5 -19.5t204 -55t174.5 -85t135.5 -110.5t88 -131t31.5 -146t-31.5 -146t-88 -131t-135.5 -110.5t-174.5 -84.5t-204 -54.5t-224.5 -19.5z" />
    <glyph glyph-name="Iraq.white" unicode="&#xe498;" 
d="M901 -181q-119 0 -228.5 19.5t-204.5 54.5t-172 84.5t-132 110.5t-85 131t-30 146q0 114 66 213.5t181 174t270.5 117t334.5 42.5q116 0 224.5 -19.5t204 -55t174.5 -85t135.5 -110.5t88 -131t31.5 -146t-31.5 -146t-88 -131t-135.5 -110.5t-174.5 -84.5t-204 -54.5
t-224.5 -19.5zM901 -121q60 0 117 5.5t111 15.5l-49 125q-69 -1 -116.5 24t-77 70t-43 108t-13.5 140q0 76 13 138.5t43 107t77.5 69t116.5 24.5t116.5 -24.5t77.5 -69t43 -107t13 -138.5q0 -63 -8.5 -118.5t-29 -99t-53.5 -73t-81 -42.5l60 -47q5 -15 11 -30l12 -30
q99 29 182.5 74t143.5 101.5t93.5 123t33.5 139.5q0 68 -29 130t-81.5 116t-125.5 98.5t-161 76t-188.5 48.5t-207.5 17q-165 0 -308.5 -38t-250 -103.5t-167.5 -154t-61 -190.5t61 -190.5t167.5 -154.5t250 -103.5t308.5 -37.5zM542 693h145v-656h-145v656zM1080 586
q-31 0 -49.5 -16t-28.5 -45.5t-13.5 -69.5t-3.5 -88q0 -51 3.5 -92.5t13.5 -71t29 -45t49 -15.5t48.5 16.5t28.5 46t13.5 70.5t3.5 91q0 48 -3.5 88t-13.5 69t-28.5 45.5t-48.5 16.5z" />
    <glyph glyph-name="Iran.white" unicode="&#xe499;" 
d="M568 693h146v-656h-146v656zM1177 37l-49 132l-50 132h-56v-264h-146v656h197q36 0 75 -6.5t72 -26.5t54 -57.5t21 -98.5q0 -43 -10 -74.5t-27.5 -54.5t-41 -37.5t-50.5 -22.5l63 -49l47 -115l47 -114h-146zM1149 500q0 24 -7 39.5t-19 24.5t-28 12.5t-33 3.5h-40v-167
h48q39 3 59 22.5t20 64.5zM901 -121q107 0 207.5 17t188.5 48.5t161 75.5t125.5 98t81.5 116.5t29 130.5t-29 130t-81.5 116t-125.5 98.5t-161 76t-188.5 48.5t-207.5 17q-165 0 -308.5 -38t-250 -103.5t-167.5 -154t-61 -190.5t61 -190.5t167.5 -154.5t250 -103.5
t308.5 -37.5zM901 -181q-119 0 -228.5 19.5t-204.5 54.5t-172 84.5t-132 110.5t-85 131t-30 146q0 114 66 213.5t181 174t270.5 117t334.5 42.5q116 0 224.5 -19.5t204 -55t174.5 -85t135.5 -110.5t88 -131t31.5 -146t-31.5 -146t-88 -131t-135.5 -110.5t-174.5 -84.5
t-204 -54.5t-224.5 -19.5z" />
    <glyph glyph-name="Japan.white" unicode="&#xe49a;" 
d="M461 160q31 -8 54 -11t42 -3q45 0 60 24t15 81v442h148v-446q0 -47 -7.5 -87.5t-29 -70.5t-60.5 -47.5t-102 -17.5q-42 0 -79 7.5t-73 24.5zM1090 293v-256h-146v657h198q30 0 68 -5t72 -24.5t57.5 -58.5t23.5 -106q0 -64 -20.5 -104t-53 -63t-73.5 -31.5t-81 -8.5h-45z
M1090 581v-175h33q20 0 37 3.5t29.5 13t19.5 27t7 46.5q0 27 -7 43.5t-19 25.5t-26.5 12.5t-29.5 3.5h-44zM901 -121q107 0 207.5 17t188.5 48.5t161 75.5t125.5 98t81.5 116.5t29 130.5t-29 130t-81.5 116t-125.5 98.5t-161 76t-188.5 48.5t-207.5 17q-165 0 -308.5 -38
t-250 -103.5t-167.5 -154t-61 -190.5t61 -190.5t167.5 -154.5t250 -103.5t308.5 -37.5zM901 -181q-119 0 -228.5 19.5t-204.5 54.5t-172 84.5t-132 110.5t-85 131t-30 146q0 114 66 213.5t181 174t270.5 117t334.5 42.5q116 0 224.5 -19.5t204 -55t174.5 -85t135.5 -110.5
t88 -131t31.5 -146t-31.5 -146t-88 -131t-135.5 -110.5t-174.5 -84.5t-204 -54.5t-224.5 -19.5z" />
    <glyph glyph-name="Jordan.white" unicode="&#xe49b;" 
d="M412 160q32 -8 55 -11t42 -3q44 0 59.5 24t15.5 81v442h147v-446q0 -47 -7 -87.5t-28.5 -70.5t-60.5 -47.5t-103 -17.5q-42 0 -78.5 7.5t-73.5 24.5zM1106 24q-71 0 -119 25.5t-77 71.5t-41.5 109t-12.5 137q0 76 13.5 138.5t43 107t77 69t116.5 24.5t116.5 -24.5t77 -69
t42.5 -107t13 -138.5q0 -74 -12 -137t-41 -108.5t-77 -71.5t-119 -26zM1106 587q-31 0 -49.5 -16.5t-28.5 -45.5t-13 -69.5t-3 -88.5q0 -51 3 -92t13 -70.5t28.5 -45t49.5 -15.5q30 0 48.5 16.5t28.5 45.5t13 70t3 91q0 48 -3 88t-13 69.5t-28 46t-49 16.5zM901 -121
q107 0 207.5 17t188.5 48.5t161 75.5t125.5 98t81.5 116.5t29 130.5t-29 130t-81.5 116t-125.5 98.5t-161 76t-188.5 48.5t-207.5 17q-165 0 -308.5 -38t-250 -103.5t-167.5 -154t-61 -190.5t61 -190.5t167.5 -154.5t250 -103.5t308.5 -37.5zM901 -181q-119 0 -228.5 19.5
t-204.5 54.5t-172 84.5t-132 110.5t-85 131t-30 146q0 114 66 213.5t181 174t270.5 117t334.5 42.5q116 0 224.5 -19.5t204 -55t174.5 -85t135.5 -110.5t88 -131t31.5 -146t-31.5 -146t-88 -131t-135.5 -110.5t-174.5 -84.5t-204 -54.5t-224.5 -19.5z" />
    <glyph glyph-name="Kuweit.white" unicode="&#xe49c;" 
d="M447 333v-266h-132v590h132v-251h4l171 251h150l-205 -281l207 -309h-159l-164 267zM785 655h140l49 -308l17 -139h4l28 155l50 292h146l54 -309l24 -136h4l16 127l44 318h141l-122 -588h-161l-51 280l-21 132h-3l-21 -133l-50 -279h-163zM901 -121q107 0 207.5 17
t188.5 48.5t161 75.5t125.5 98t81.5 116.5t29 130.5t-29 130t-81.5 116t-125.5 98.5t-161 76t-188.5 48.5t-207.5 17q-165 0 -308.5 -38t-250 -103.5t-167.5 -154t-61 -190.5t61 -190.5t167.5 -154.5t250 -103.5t308.5 -37.5zM901 -181q-119 0 -228.5 19.5t-204.5 54.5
t-172 84.5t-132 110.5t-85 131t-30 146q0 114 66 213.5t181 174t270.5 117t334.5 42.5q116 0 224.5 -19.5t204 -55t174.5 -85t135.5 -110.5t88 -131t31.5 -146t-31.5 -146t-88 -131t-135.5 -110.5t-174.5 -84.5t-204 -54.5t-224.5 -19.5z" />
    <glyph glyph-name="Latvia.white" unicode="&#xe49d;" 
d="M509 694h145v-540h242v-117h-387v657zM1244 693h148l-177 -656h-177l-177 656h152l88 -396l25 -128h5l27 134zM901 -121q107 0 207.5 17t188.5 48.5t161 75.5t125.5 98t81.5 116.5t29 130.5t-29 130t-81.5 116t-125.5 98.5t-161 76t-188.5 48.5t-207.5 17
q-165 0 -308.5 -38t-250 -103.5t-167.5 -154t-61 -190.5t61 -190.5t167.5 -154.5t250 -103.5t308.5 -37.5zM901 -181q-119 0 -228.5 19.5t-204.5 54.5t-172 84.5t-132 110.5t-85 131t-30 146q0 114 66 213.5t181 174t270.5 117t334.5 42.5q116 0 224.5 -19.5t204 -55
t174.5 -85t135.5 -110.5t88 -131t31.5 -146t-31.5 -146t-88 -131t-135.5 -110.5t-174.5 -84.5t-204 -54.5t-224.5 -19.5z" />
    <glyph glyph-name="Lithuania.white" unicode="&#xe49e;" 
d="M524 694h146v-540h242v-117h-388v657zM1190 37h-147v539h-141v118h433v-118h-145v-539zM901 -121q107 0 207.5 17t188.5 48.5t161 75.5t125.5 98t81.5 116.5t29 130.5t-29 130t-81.5 116t-125.5 98.5t-161 76t-188.5 48.5t-207.5 17q-165 0 -308.5 -38t-250 -103.5
t-167.5 -154t-61 -190.5t61 -190.5t167.5 -154.5t250 -103.5t308.5 -37.5zM901 -181q-119 0 -228.5 19.5t-204.5 54.5t-172 84.5t-132 110.5t-85 131t-30 146q0 114 66 213.5t181 174t270.5 117t334.5 42.5q116 0 224.5 -19.5t204 -55t174.5 -85t135.5 -110.5t88 -131
t31.5 -146t-31.5 -146t-88 -131t-135.5 -110.5t-174.5 -84.5t-204 -54.5t-224.5 -19.5z" />
    <glyph glyph-name="Lebanon.white" unicode="&#xe49f;" 
d="M487 694h145v-540h242v-117h-387v657zM1275 386q59 -18 84 -60.5t25 -96.5q0 -42 -14.5 -77.5t-40 -61t-60 -39.5t-75.5 -14h-257v657h231q40 0 75.5 -10.5t62.5 -31.5t42.5 -53.5t15.5 -75.5q0 -42 -21.5 -79.5t-67.5 -54.5v-3zM1240 237q0 47 -30 68t-71 21h-57v-178
h57q22 0 40.5 4t32 14t21 27.5t7.5 43.5zM1220 516q0 19 -7.5 31.5t-18.5 20t-24.5 10.5t-26.5 3h-61v-146h55q36 0 59.5 19t23.5 62zM901 -121q107 0 207.5 17t188.5 48.5t161 75.5t125.5 98t81.5 116.5t29 130.5t-29 130t-81.5 116t-125.5 98.5t-161 76t-188.5 48.5
t-207.5 17q-165 0 -308.5 -38t-250 -103.5t-167.5 -154t-61 -190.5t61 -190.5t167.5 -154.5t250 -103.5t308.5 -37.5zM901 -181q-119 0 -228.5 19.5t-204.5 54.5t-172 84.5t-132 110.5t-85 131t-30 146q0 114 66 213.5t181 174t270.5 117t334.5 42.5q116 0 224.5 -19.5
t204 -55t174.5 -85t135.5 -110.5t88 -131t31.5 -146t-31.5 -146t-88 -131t-135.5 -110.5t-174.5 -84.5t-204 -54.5t-224.5 -19.5z" />
    <glyph glyph-name="Moldavia.white" unicode="&#xe4a0;" 
d="M651 368l49 111l88 213h162v-655h-138v415h-6l-40 -91l-70 -172h-92l-72 176l-37 89h-7v-417h-140v655h163l89 -213l49 -111h2zM1494 371q0 -85 -14 -147.5t-47 -104t-87.5 -62t-134.5 -20.5h-180v657h179q51 0 102 -9.5t91.5 -43t65.5 -97.5t25 -173zM1344 375
q0 66 -9 106t-25.5 62.5t-40.5 30t-55 7.5h-39v-431h51q38 0 61.5 15.5t36 45t16.5 71t4 93.5zM901 -121q107 0 207.5 17t188.5 48.5t161 75.5t125.5 98t81.5 116.5t29 130.5t-29 130t-81.5 116t-125.5 98.5t-161 76t-188.5 48.5t-207.5 17q-165 0 -308.5 -38t-250 -103.5
t-167.5 -154t-61 -190.5t61 -190.5t167.5 -154.5t250 -103.5t308.5 -37.5zM901 -181q-119 0 -228.5 19.5t-204.5 54.5t-172 84.5t-132 110.5t-85 131t-30 146q0 114 66 213.5t181 174t270.5 117t334.5 42.5q116 0 224.5 -19.5t204 -55t174.5 -85t135.5 -110.5t88 -131
t31.5 -146t-31.5 -146t-88 -131t-135.5 -110.5t-174.5 -84.5t-204 -54.5t-224.5 -19.5z" />
    <glyph glyph-name="Mexico.white" unicode="&#xe4a1;" 
d="M901 -181q-119 0 -228.5 19.5t-204.5 54.5t-172 84.5t-132 110.5t-85 131t-30 146q0 114 66 213.5t181 174t270.5 117t334.5 42.5q116 0 224.5 -19.5t204 -55t174.5 -85t135.5 -110.5t88 -131t31.5 -146t-31.5 -146t-88 -131t-135.5 -110.5t-174.5 -84.5t-204 -54.5
t-224.5 -19.5zM901 -121q171 0 322 42.5t261 115.5h-140l-106 222h-3l-105 -222h-160l182 338l-171 318h158l96 -210h5l92 210h152q-111 73 -261.5 115.5t-321.5 42.5q-165 0 -308.5 -38t-250 -103.5t-167.5 -154t-61 -190.5t61 -190.5t167.5 -154.5t250 -103.5t308.5 -37.5
zM621 368l50 111l88 213h162v-655h-139v415h-6l-39 -91l-71 -172h-92l-72 176l-37 89h-7v-417h-139v655h163l89 -213l48 -111h2zM1694 365q0 94 -55 177t-150 147l-169 -313l177 -331q92 64 144.5 145t52.5 175z" />
    <glyph glyph-name="Malta.white" unicode="&#xe4a2;" 
d="M684 368l49 111l88 213h162v-655h-138v415h-6l-40 -91l-70 -172h-92l-72 176l-37 89h-7v-417h-140v655h163l89 -213l49 -111h2zM1328 37h-148v539h-141v118h434v-118h-145v-539zM901 -121q107 0 207.5 17t188.5 48.5t161 75.5t125.5 98t81.5 116.5t29 130.5t-29 130
t-81.5 116t-125.5 98.5t-161 76t-188.5 48.5t-207.5 17q-165 0 -308.5 -38t-250 -103.5t-167.5 -154t-61 -190.5t61 -190.5t167.5 -154.5t250 -103.5t308.5 -37.5zM901 -181q-119 0 -228.5 19.5t-204.5 54.5t-172 84.5t-132 110.5t-85 131t-30 146q0 114 66 213.5t181 174
t270.5 117t334.5 42.5q116 0 224.5 -19.5t204 -55t174.5 -85t135.5 -110.5t88 -131t31.5 -146t-31.5 -146t-88 -131t-135.5 -110.5t-174.5 -84.5t-204 -54.5t-224.5 -19.5z" />
    <glyph glyph-name="Norway.white" unicode="&#xe4a3;" 
d="M752 312v380h140v-655h-152l-200 407h-7v-407h-137v655h165l186 -380h5zM1203 24q-71 0 -119.5 25.5t-77.5 71.5t-41.5 109t-12.5 137q0 76 13.5 138.5t43.5 107t77.5 69t116.5 24.5t116.5 -24.5t77 -69t42.5 -107t13 -138.5q0 -74 -12.5 -137t-41.5 -108.5t-76.5 -71.5
t-118.5 -26zM1203 587q-31 0 -49.5 -16.5t-28.5 -45.5t-13 -69.5t-3 -88.5q0 -51 3 -92t13 -70.5t28.5 -45t49.5 -15.5q30 0 48.5 16.5t28.5 45.5t13 70t3 91q0 48 -3 88t-13 69.5t-28 46t-49 16.5zM901 -121q107 0 207.5 17t188.5 48.5t161 75.5t125.5 98t81.5 116.5
t29 130.5t-29 130t-81.5 116t-125.5 98.5t-161 76t-188.5 48.5t-207.5 17q-165 0 -308.5 -38t-250 -103.5t-167.5 -154t-61 -190.5t61 -190.5t167.5 -154.5t250 -103.5t308.5 -37.5zM901 -181q-119 0 -228.5 19.5t-204.5 54.5t-172 84.5t-132 110.5t-85 131t-30 146
q0 114 66 213.5t181 174t270.5 117t334.5 42.5q116 0 224.5 -19.5t204 -55t174.5 -85t135.5 -110.5t88 -131t31.5 -146t-31.5 -146t-88 -131t-135.5 -110.5t-174.5 -84.5t-204 -54.5t-224.5 -19.5z" />
    <glyph glyph-name="Netherlands.white" unicode="&#xe4a4;" 
d="M768 312v380h139v-655h-152l-200 407h-6v-407h-138v655h165l186 -380h6zM1062 694h146v-540h242v-117h-388v657zM901 -121q107 0 207.5 17t188.5 48.5t161 75.5t125.5 98t81.5 116.5t29 130.5t-29 130t-81.5 116t-125.5 98.5t-161 76t-188.5 48.5t-207.5 17
q-165 0 -308.5 -38t-250 -103.5t-167.5 -154t-61 -190.5t61 -190.5t167.5 -154.5t250 -103.5t308.5 -37.5zM901 -181q-119 0 -228.5 19.5t-204.5 54.5t-172 84.5t-132 110.5t-85 131t-30 146q0 114 66 213.5t181 174t270.5 117t334.5 42.5q116 0 224.5 -19.5t204 -55
t174.5 -85t135.5 -110.5t88 -131t31.5 -146t-31.5 -146t-88 -131t-135.5 -110.5t-174.5 -84.5t-204 -54.5t-224.5 -19.5z" />
    <glyph glyph-name="NewZealand.white" unicode="&#xe4a5;" 
d="M786 312v380h140v-655h-152l-200 407h-7v-407h-137v655h165l186 -380h5zM991 145l253 431h-231v118h395v-103l-255 -437h267v-117h-429v108zM901 -121q107 0 207.5 17t188.5 48.5t161 75.5t125.5 98t81.5 116.5t29 130.5t-29 130t-81.5 116t-125.5 98.5t-161 76
t-188.5 48.5t-207.5 17q-165 0 -308.5 -38t-250 -103.5t-167.5 -154t-61 -190.5t61 -190.5t167.5 -154.5t250 -103.5t308.5 -37.5zM901 -181q-119 0 -228.5 19.5t-204.5 54.5t-172 84.5t-132 110.5t-85 131t-30 146q0 114 66 213.5t181 174t270.5 117t334.5 42.5
q116 0 224.5 -19.5t204 -55t174.5 -85t135.5 -110.5t88 -131t31.5 -146t-31.5 -146t-88 -131t-135.5 -110.5t-174.5 -84.5t-204 -54.5t-224.5 -19.5z" />
    </font>
</defs>
</svg>
